<?xml version="1.0" encoding="UTF-8" standalone="no"?>
<!-- Created with Inkscape (http://www.inkscape.org/) -->

<svg
   version="1.1"
   id="svg134"
   width="116.2057"
   height="99.637329"
   viewBox="0 0 116.2057 99.637329"
   sodipodi:docname="NEWMThomepage.svg"
   xml:space="preserve"
   inkscape:export-filename="..\code\NSF code\refactored\media\NEWMTlogo.svg"
   inkscape:export-xdpi="96"
   inkscape:export-ydpi="96"
   inkscape:version="1.2.2 (b0a8486, 2022-12-01)"
   xmlns:inkscape="http://www.inkscape.org/namespaces/inkscape"
   xmlns:sodipodi="http://sodipodi.sourceforge.net/DTD/sodipodi-0.dtd"
   xmlns="http://www.w3.org/2000/svg"
   xmlns:svg="http://www.w3.org/2000/svg"><defs
     id="defs138" /><sodipodi:namedview
     id="namedview136"
     pagecolor="#ffffff"
     bordercolor="#000000"
     borderopacity="0.25"
     inkscape:showpageshadow="2"
     inkscape:pageopacity="0.0"
     inkscape:pagecheckerboard="0"
     inkscape:deskcolor="#d1d1d1"
     showgrid="false"
     inkscape:zoom="0.25914268"
     inkscape:cx="538.31348"
     inkscape:cy="1055.4031"
     inkscape:window-width="1470"
     inkscape:window-height="801"
     inkscape:window-x="0"
     inkscape:window-y="37"
     inkscape:window-maximized="0"
     inkscape:current-layer="g140" /><g
     inkscape:groupmode="layer"
     inkscape:label="Image"
     id="g140"
     transform="translate(135.55804,-1176.6078)"><g
       id="g2694"
       transform="matrix(1.1448689,0,0,1.1448689,-715.38494,462.45869)"><rect
         style="fill:#f9ad29;fill-opacity:1;stroke:#f9ad29;stroke-width:4.12688;stroke-linejoin:round;stroke-dasharray:none;stroke-opacity:1"
         id="rect97535-5"
         width="3.5049114"
         height="50.436615"
         x="192.77141"
         y="-872.07324"
         transform="matrix(-0.57485046,0.81825849,-0.82183884,-0.56972003,0,0)"
         clip-path="none" /><g
         id="g96721-6-7"
         transform="matrix(7.0973153,6.0971332,-4.4629986,6.5696587,402.3777,401.05378)"
         style="fill:#f9ad29;fill-opacity:1;stroke:#f9ad29;stroke-opacity:1"
         clip-path="none"><path
           style="fill:#f9ad29;fill-opacity:1;stroke:#f9ad29;stroke-width:0.771873;stroke-linejoin:round;stroke-dasharray:none;stroke-opacity:1"
           id="path94400-6-4"
           d="m 28.378173,15.732291 a 1.5559835,1.4665335 0 0 1 -1.47265,1.464429 1.5559835,1.4665335 0 0 1 -1.630391,-1.307568 1.5559835,1.4665335 0 0 1 1.298011,-1.604487 1.5559835,1.4665335 0 0 1 1.769427,1.135704 l -1.520381,0.311922 z" /><rect
           style="fill:#f9ad29;fill-opacity:1;stroke:#f9ad29;stroke-width:0.757862;stroke-linejoin:round;stroke-dasharray:none;stroke-opacity:1"
           id="rect94402-8-6"
           width="0.2794134"
           height="7.3481517"
           x="28.105097"
           y="8.391881" /></g><g
         id="g96721-6-7-4"
         transform="matrix(7.0973153,6.0971332,-4.4629986,6.5696587,439.79935,426.95534)"
         style="fill:#f9ad29;fill-opacity:1;stroke:#f9ad29;stroke-opacity:1"
         clip-path="none"><path
           style="fill:#f9ad29;fill-opacity:1;stroke:#f9ad29;stroke-width:0.771873;stroke-linejoin:round;stroke-dasharray:none;stroke-opacity:1"
           id="path94400-6-4-4"
           d="m 28.378173,15.732291 a 1.5559835,1.4665335 0 0 1 -1.47265,1.464429 1.5559835,1.4665335 0 0 1 -1.630391,-1.307568 1.5559835,1.4665335 0 0 1 1.298011,-1.604487 1.5559835,1.4665335 0 0 1 1.769427,1.135704 l -1.520381,0.311922 z" /><rect
           style="fill:#f9ad29;fill-opacity:1;stroke:#f9ad29;stroke-width:0.757862;stroke-linejoin:round;stroke-dasharray:none;stroke-opacity:1"
           id="rect94402-8-6-8"
           width="0.2794134"
           height="7.3481517"
           x="28.105097"
           y="8.391881" /></g></g></g></svg>
