<?xml version="1.0" encoding="UTF-8" standalone="no"?>
<!-- Created with Inkscape (http://www.inkscape.org/) -->

<svg
   version="1.1"
   id="svg134"
   width="268.17847"
   height="263.94388"
   viewBox="0 0 268.17847 263.94388"
   sodipodi:docname="NEWMThomepage.svg"
   xml:space="preserve"
   inkscape:export-filename="..\code\NSF code\refactored\media\NEWMTlogo.svg"
   inkscape:export-xdpi="96"
   inkscape:export-ydpi="96"
   inkscape:version="1.2.2 (b0a8486, 2022-12-01)"
   xmlns:inkscape="http://www.inkscape.org/namespaces/inkscape"
   xmlns:sodipodi="http://sodipodi.sourceforge.net/DTD/sodipodi-0.dtd"
   xmlns="http://www.w3.org/2000/svg"
   xmlns:svg="http://www.w3.org/2000/svg"><defs
     id="defs138" /><sodipodi:namedview
     id="namedview136"
     pagecolor="#ffffff"
     bordercolor="#000000"
     borderopacity="0.25"
     inkscape:showpageshadow="2"
     inkscape:pageopacity="0.0"
     inkscape:pagecheckerboard="0"
     inkscape:deskcolor="#d1d1d1"
     showgrid="false"
     inkscape:zoom="0.25914268"
     inkscape:cx="538.31348"
     inkscape:cy="1055.4031"
     inkscape:window-width="1470"
     inkscape:window-height="801"
     inkscape:window-x="0"
     inkscape:window-y="37"
     inkscape:window-maximized="0"
     inkscape:current-layer="g140" /><g
     inkscape:groupmode="layer"
     inkscape:label="Image"
     id="g140"
     transform="translate(-1494.9119,-39.602345)"><path
       style="fill:#f7f6f8;fill-opacity:1;stroke:#f7f6f8;stroke-width:4.54672;stroke-linejoin:round;stroke-dasharray:none;stroke-dashoffset:0;stroke-opacity:1"
       d="m 1626.4593,203.5961 0.5278,10.6421 -103.6372,69.6864 c 0,0 9.7594,2.4348 13.9654,5.7648 1.717,1.3591 2.9148,2.6367 2.8839,3.539 0,1.557 -0.2149,2.3189 -3.7064,2.5569 -3.2887,0.2244 -9.68,-0.4558 -17.5502,-0.7537 -3.5564,-0.4054 -10.1409,-0.166 -13.8425,-0.5469 -2.8187,-0.2898 -6.9227,0.3823 -7.757,-0.7972 -0.5891,-1.2597 0.7523,-3.0413 2.1033,-7.0772 1.9056,-5.6901 3.4196,-9.9528 5.1159,-14.1375 2.4559,-5.785 3.6171,-9.5834 5.3411,-14.0349 1.4033,-3.7043 2.6116,-6.1071 3.6836,-6.2312 1.3654,-0.1578 2.8061,5.6759 3.2502,7.6535 0.502,2.2328 -1.0461,8.0716 -0.3713,14.2347 l 101.5251,-75.068 z"
       id="path22975-3-3"
       sodipodi:nodetypes="cccscscscsccssccc" /><path
       style="fill:#f7f6f8;fill-opacity:1;stroke:#f7f6f8;stroke-width:4.54672;stroke-linejoin:round;stroke-dasharray:none;stroke-dashoffset:0;stroke-opacity:1"
       d="m 1627.5329,203.9063 8.9995,-5.0351 104.5884,68.1211 c 0,0 -2.0504,-10.2508 -0.9577,-15.6409 0.4462,-2.2002 1.042,-3.8757 1.838,-4.231 1.3482,-0.6679 2.1018,-0.7863 3.7965,2.4086 1.5963,3.0088 3.7316,9.3321 6.8292,16.8884 1.1645,3.5301 4.1796,9.6435 5.4278,13.3 0.9495,2.7844 3.2828,6.372 2.6158,7.6626 -0.8408,1.0924 -2.9567,0.5877 -7.0313,1.0312 -5.7446,0.6271 -10.0848,1.0148 -14.4352,1.1985 -6.0616,0.1483 -9.849,0.672 -14.4427,0.9414 -3.809,0.2544 -6.4069,0.1388 -6.9715,-0.8203 -0.7197,-1.2217 3.7234,-5.0689 5.2483,-6.3314 1.7215,-1.4251 7.4425,-2.453 12.4968,-5.7182 l -108.3526,-63.833 z"
       id="path22975-3-8"
       sodipodi:nodetypes="cccscscscsccssccc" /><path
       style="fill:#bf8fbe;fill-opacity:1;stroke:#bf8fbe;stroke-width:3.58978;stroke-linejoin:round;stroke-dasharray:none;stroke-dashoffset:0;stroke-opacity:1"
       d="m 1642.8439,99.776604 41.4438,-0.3605 -16.6124,27.108396 c 0,0 13.7513,-0.2176 16.656,2.6087 0.054,5.0499 -0.1483,9.0678 -0.2054,11.3509 -7.3237,-0.7904 -41.2601,-0.1225 -41.2601,-0.1225 l 17.2296,-28.8202 -17.3557,-1.3114 c 0,0 0.068,-7.7712 0.1088,-10.454996 z"
       id="path25177"
       sodipodi:nodetypes="ccccccccc" /><path
       style="fill:#f1806b;fill-opacity:1;stroke:#f1806b;stroke-width:4.38051;stroke-linejoin:round;stroke-dasharray:none;stroke-dashoffset:0;stroke-opacity:1"
       d="m 1518.3125,188.91 11.2659,22.1066 -11.7973,20.1935 h 16.4737 l 6.2706,-9.8842 5.9518,9.6717 15.6233,0.3183 -12.116,-20.5125 10.6281,-22.3191 -11.5846,0.2123 -9.3528,14.1355 -9.0341,-13.4978 z"
       id="path25179"
       sodipodi:nodetypes="ccccccccccccc" /><path
       style="fill:#f9ad29;fill-opacity:1;stroke:#f9ad29;stroke-width:4.38051;stroke-linejoin:round;stroke-dasharray:none;stroke-dashoffset:0;stroke-opacity:1"
       d="m 1647.551,259.5873 15.7297,17.7491 -14.2417,20.8312 14.0292,3.1884 27.6332,-41.8749 -13.9229,0.5319 -7.0145,8.1836 -7.6523,-8.1836 z"
       id="path25181"
       sodipodi:nodetypes="ccccccccc" /><path
       style="fill:#f7f6f8;fill-opacity:1;stroke:#f7f6f8;stroke-width:4.54672;stroke-linejoin:round;stroke-dasharray:none;stroke-dashoffset:0;stroke-opacity:1"
       d="m 1627.0217,203.9293 -8.6635,-5.6408 4.5757,-128.571096 c 0,0 -7.4999,6.957 -12.524,8.6496 -2.0508,0.6911 -3.7402,0.9849 -4.4314,0.4421 -1.2257,-0.887 -1.6987,-1.5117 0.1088,-4.6353 1.7064,-2.9421 5.8997,-8.0215 10.6388,-14.5856 2.3547,-2.8107 5.9356,-8.5822 8.3537,-11.5315 1.8415,-2.2458 3.6628,-6.1425 5.0674,-6.181 1.3264,0.2177 1.9593,2.3843 4.3564,5.8513 3.3798,4.8879 5.8623,8.6236 8.1791,12.4707 3.1394,5.413 5.459,8.581 7.9696,12.6046 2.1071,3.3211 3.3034,5.7307 2.7872,6.719 -0.6571,1.2584 -6.0659,-0.8475 -7.8741,-1.6002 -2.0413,-0.8489 -5.7426,-5.5162 -10.9716,-8.4665 l 0.8612,129.844696 z"
       id="path22975-3"
       sodipodi:nodetypes="cccscscscsccssccc" /></g></svg>
