<?xml version="1.0" encoding="UTF-8" standalone="no"?>
<svg
   height="20"
   viewBox="0 -960 1400 400"
   width="70"
   version="1.1"
   id="svg19"
   sodipodi:docname="connectionbanner2.svg"
   inkscape:export-filename="connectionbanner2.svg"
   inkscape:export-xdpi="96"
   inkscape:export-ydpi="96"
   inkscape:version="1.2.2 (732a01da63, 2022-12-09)"
   xmlns:inkscape="http://www.inkscape.org/namespaces/inkscape"
   xmlns:sodipodi="http://sodipodi.sourceforge.net/DTD/sodipodi-0.dtd"
   xmlns="http://www.w3.org/2000/svg"
   xmlns:svg="http://www.w3.org/2000/svg">
  <defs
     id="defs23" />
  <sodipodi:namedview
     id="namedview21"
     pagecolor="#ffffff"
     bordercolor="#000000"
     borderopacity="0.25"
     inkscape:showpageshadow="2"
     inkscape:pageopacity="0.0"
     inkscape:pagecheckerboard="0"
     inkscape:deskcolor="#d1d1d1"
     showgrid="false"
     inkscape:zoom="16"
     inkscape:cx="46.53125"
     inkscape:cy="8.0625"
     inkscape:window-width="1513"
     inkscape:window-height="1161"
     inkscape:window-x="0"
     inkscape:window-y="0"
     inkscape:window-maximized="0"
     inkscape:current-layer="svg19" />
  <rect
     style="fill:#e6e4df;fill-opacity:1;stroke:none;stroke-width:29.0306;stroke-linejoin:round;stroke-dasharray:none;stroke-opacity:1"
     id="rect97535-6"
     width="53.259293"
     height="329.82059"
     x="-95.495987"
     y="1026.7875"
     transform="matrix(-0.94100787,-0.33838466,0.76882315,-0.63946147,0,0)"
     clip-path="none" />
  <g
     id="g96721-6-4"
     transform="matrix(22.188405,-13.187869,13.287317,24.472741,399.05247,-755.7021)"
     style="fill:#dac1da;fill-opacity:1;stroke:#dac1da;stroke-opacity:1"
     clip-path="none">
    <path
       style="fill:#dac1da;fill-opacity:1;stroke:#dac1da;stroke-width:0.771873;stroke-linejoin:round;stroke-dasharray:none;stroke-opacity:1"
       id="path94400-6-9"
       sodipodi:type="arc"
       sodipodi:cx="26.822189"
       sodipodi:cy="15.732291"
       sodipodi:rx="1.5559835"
       sodipodi:ry="1.4665335"
       sodipodi:start="0"
       sodipodi:end="6.0688543"
       sodipodi:arc-type="slice"
       d="m 28.378173,15.732291 a 1.5559835,1.4665335 0 0 1 -1.47265,1.464429 1.5559835,1.4665335 0 0 1 -1.630391,-1.307568 1.5559835,1.4665335 0 0 1 1.298011,-1.604487 1.5559835,1.4665335 0 0 1 1.769427,1.135704 l -1.520381,0.311922 z" />
    <rect
       style="fill:#dac1da;fill-opacity:1;stroke:#dac1da;stroke-width:0.757862;stroke-linejoin:round;stroke-dasharray:none;stroke-opacity:1"
       id="rect94402-8-65"
       width="0.2794134"
       height="7.3481517"
       x="28.105097"
       y="8.391881" />
  </g>
  <path
     sodipodi:type="star"
     style="fill:#f9ad29;fill-opacity:1;stroke:#e6e4df;stroke-width:0.635052;stroke-linejoin:round;stroke-dasharray:none;stroke-opacity:1"
     id="path95265-5"
     inkscape:flatsided="true"
     sodipodi:sides="3"
     sodipodi:cx="15.411979"
     sodipodi:cy="11.377083"
     sodipodi:r1="0.44371971"
     sodipodi:r2="0.22185986"
     sodipodi:arg1="-0.46364761"
     sodipodi:arg2="0.58354994"
     inkscape:rounded="0"
     inkscape:randomized="0"
     d="m 15.808854,11.178645 -0.423461,0.64136 -0.343704,-0.687407 z"
     inkscape:transform-center-x="-3.2858116"
     inkscape:transform-center-y="-4.1632545"
     transform="matrix(22.016128,19.829108,-20.609263,24.085821,737.70405,-1753.7686)"
     clip-path="none" />
  <path
     sodipodi:type="star"
     style="fill:#f9ad29;fill-opacity:1;stroke:#f7f6f8;stroke-width:0.635052;stroke-linejoin:round;stroke-dasharray:none;stroke-opacity:1"
     id="path95265-5-8"
     inkscape:flatsided="true"
     sodipodi:sides="3"
     sodipodi:cx="15.411979"
     sodipodi:cy="11.377083"
     sodipodi:r1="0.44371971"
     sodipodi:r2="0.22185986"
     sodipodi:arg1="-0.46364761"
     sodipodi:arg2="0.58354994"
     inkscape:rounded="0"
     inkscape:randomized="0"
     d="m 15.808854,11.178645 -0.423461,0.64136 -0.343704,-0.687407 z"
     inkscape:transform-center-x="-7.9363597"
     inkscape:transform-center-y="-10.668239"
     transform="matrix(53.17647,50.811563,-49.778411,61.719276,842.71337,-2673.0671)"
     clip-path="none" />
  <path
     sodipodi:type="spiral"
     style="fill:none;fill-rule:evenodd;stroke:#e6e4df;stroke-width:1.518;stroke-dasharray:18.216, 1.518;stroke-dashoffset:0;stroke-opacity:1"
     id="path14440-4"
     sodipodi:cx="34.25"
     sodipodi:cy="8.1875"
     sodipodi:expansion="1"
     sodipodi:revolution="2.8302026"
     sodipodi:radius="8.023078"
     sodipodi:argument="-18.553051"
     sodipodi:t0="0.20530242"
     d="m 33.109217,6.999333 c 0.590206,-0.9882224 1.95815,-1.0685055 2.840168,-0.4434467 1.246545,0.8833888 1.319732,2.6858358 0.423059,3.8422167 -1.169635,1.508403 -3.416201,1.573486 -4.844264,0.402672 C 29.756068,9.3478891 29.699575,6.6528441 31.145895,4.9544619 32.88048,2.917577 36.026354,2.8699247 37.994256,4.5925644 c 2.302323,2.0153809 2.340991,5.6134976 0.34151,7.8504096 -2.295606,2.5682 -6.346882,2.597799 -8.852457,0.321123 C 26.648924,10.188649 26.62845,5.6835818 29.182573,2.9095909 32.026349,-0.17898652 36.962135,-0.2045957 40.007821,2.600258"
     transform="matrix(10.36293,-15.215689,-14.738133,-10.698717,37.347691,-180.88365)" />
  <path
     sodipodi:type="star"
     style="fill:#f9ad29;fill-opacity:1;stroke:#dac1da;stroke-width:3;stroke-linecap:round;stroke-linejoin:round;stroke-dasharray:none;stroke-dashoffset:0;stroke-opacity:1"
     id="path14498-5"
     inkscape:flatsided="false"
     sodipodi:sides="6"
     sodipodi:cx="41.1875"
     sodipodi:cy="4.375"
     sodipodi:r1="5.3125"
     sodipodi:r2="2.606437"
     sodipodi:arg1="0.15354378"
     sodipodi:arg2="0.67714256"
     inkscape:rounded="0"
     inkscape:randomized="0"
     d="M 46.4375,5.1875 43.218869,6.0081115 43.108854,9.3278834 40.788868,6.950773 37.858854,8.5153834 38.757499,5.3176615 35.9375,3.5625 39.156131,2.7418885 39.266146,-0.57788336 41.586132,1.799227 44.516146,0.23461662 43.617501,3.4323385 Z"
     transform="matrix(-1.1002282,-25.08741,26.568449,-1.0388967,673.68201,254.0899)" />
  <path
     sodipodi:type="star"
     style="fill:#fefefe;fill-opacity:1;stroke:#fefefe;stroke-width:3;stroke-linecap:round;stroke-linejoin:round;stroke-dasharray:none;stroke-dashoffset:0;stroke-opacity:1"
     id="path14498-3-8"
     inkscape:flatsided="false"
     sodipodi:sides="6"
     sodipodi:cx="41.1875"
     sodipodi:cy="4.375"
     sodipodi:r1="5.3125"
     sodipodi:r2="2.606437"
     sodipodi:arg1="0.15354378"
     sodipodi:arg2="0.67714256"
     inkscape:rounded="0"
     inkscape:randomized="0"
     d="M 46.4375,5.1875 43.218869,6.0081115 43.108854,9.3278834 40.788868,6.950773 37.858854,8.5153834 38.757499,5.3176615 35.9375,3.5625 39.156131,2.7418885 39.266146,-0.57788336 41.586132,1.799227 44.516146,0.23461662 43.617501,3.4323385 Z"
     transform="matrix(-0.73347306,-16.724658,17.712001,-0.69258612,691.47067,-89.139252)" />
</svg>
