<?xml version="1.0" encoding="UTF-8" standalone="no"?>
<svg
   height="20"
   viewBox="0 -960 1400 400"
   width="70"
   version="1.1"
   id="svg19"
   sodipodi:docname="connectionbanner3.svg"
   inkscape:export-filename="connectionbanner2.svg"
   inkscape:export-xdpi="96"
   inkscape:export-ydpi="96"
   inkscape:version="1.2.2 (732a01da63, 2022-12-09)"
   xmlns:inkscape="http://www.inkscape.org/namespaces/inkscape"
   xmlns:sodipodi="http://sodipodi.sourceforge.net/DTD/sodipodi-0.dtd"
   xmlns="http://www.w3.org/2000/svg"
   xmlns:svg="http://www.w3.org/2000/svg">
  <defs
     id="defs23" />
  <sodipodi:namedview
     id="namedview21"
     pagecolor="#ffffff"
     bordercolor="#000000"
     borderopacity="0.25"
     inkscape:showpageshadow="2"
     inkscape:pageopacity="0.0"
     inkscape:pagecheckerboard="0"
     inkscape:deskcolor="#d1d1d1"
     showgrid="false"
     inkscape:zoom="16"
     inkscape:cx="25.46875"
     inkscape:cy="8.0625"
     inkscape:window-width="1513"
     inkscape:window-height="1161"
     inkscape:window-x="0"
     inkscape:window-y="0"
     inkscape:window-maximized="0"
     inkscape:current-layer="svg19" />
  <rect
     style="fill:#e6e4df;fill-opacity:1;stroke:none;stroke-width:50.8116;stroke-linejoin:round;stroke-dasharray:none;stroke-opacity:1"
     id="rect97535-6"
     width="40.933502"
     height="654.67969"
     x="-1526.1707"
     y="-779.35333"
     transform="matrix(-0.35862412,0.93348205,-0.90925696,-0.41623524,0,0)"
     clip-path="none" />
  <g
     id="g96733"
     transform="matrix(-28.967809,-19.908178,16.956653,-28.830066,2058.6178,793.2589)"
     style="fill:#e6e4df;fill-opacity:1;stroke:#e6e4df;stroke-opacity:1"
     clip-path="none">
    <path
       style="fill:#e6e4df;fill-opacity:1;stroke:#e6e4df;stroke-width:0.97433;stroke-linejoin:round;stroke-dasharray:none;stroke-opacity:1"
       id="path94400-8-60"
       sodipodi:type="arc"
       sodipodi:cx="13.792349"
       sodipodi:cy="50.324417"
       sodipodi:rx="2.1783085"
       sodipodi:ry="1.6693102"
       sodipodi:start="0"
       sodipodi:end="6.0688543"
       sodipodi:arc-type="slice"
       d="m 15.970657,50.324417 a 2.1783085,1.6693102 0 0 1 -2.061644,1.666915 2.1783085,1.6693102 0 0 1 -2.282476,-1.488365 2.1783085,1.6693102 0 0 1 1.817159,-1.826339 2.1783085,1.6693102 0 0 1 2.477119,1.292737 l -2.128466,0.355052 z"
       transform="matrix(0.73443586,-0.67867811,0.69916289,0.71496242,0,0)" />
    <rect
       style="fill:#e6e4df;fill-opacity:1;stroke:#e6e4df;stroke-width:0.956686;stroke-linejoin:round;stroke-dasharray:none;stroke-opacity:1"
       id="rect94402-3-0"
       width="0.39116642"
       height="8.3641768"
       x="15.588361"
       y="41.96904"
       transform="matrix(0.73443586,-0.67867811,0.69916289,0.71496242,0,0)" />
    <path
       style="fill:#e6e4df;fill-opacity:1;stroke:#e6e4df;stroke-width:0.974179;stroke-linejoin:round;stroke-dasharray:none;stroke-opacity:1"
       d="m 41.147485,19.110214 c 0,0 3.019603,0.512899 5.249927,-1.527497 -0.530878,1.093968 -2.243266,2.370975 -3.239888,3.58296 z"
       id="path94533"
       sodipodi:nodetypes="cccc" />
  </g>
  <path
     sodipodi:type="star"
     style="fill:#dac1da;fill-opacity:1;stroke:#dac1da;stroke-width:1.039;stroke-linejoin:round;stroke-dasharray:none;stroke-opacity:1"
     id="path95261"
     inkscape:flatsided="true"
     sodipodi:sides="3"
     sodipodi:cx="13.361458"
     sodipodi:cy="7.8713541"
     sodipodi:r1="1.3129572"
     sodipodi:r2="0.93661189"
     sodipodi:arg1="0.71409069"
     sodipodi:arg2="1.7612882"
     inkscape:rounded="0"
     inkscape:randomized="0"
     d="M 14.353645,8.7312498 12.120673,8.3006657 13.610056,6.5821467 Z"
     inkscape:transform-center-x="-4.8447817"
     inkscape:transform-center-y="10.694213"
     transform="matrix(-28.368568,-1.7043868,3.9085544,-25.999845,569.30141,-795.44225)"
     clip-path="none" />
  <path
     sodipodi:type="star"
     style="fill:#974795;fill-opacity:1;stroke:#974795;stroke-width:0.635052;stroke-linejoin:round;stroke-dasharray:none;stroke-opacity:1"
     id="path95265"
     inkscape:flatsided="true"
     sodipodi:sides="3"
     sodipodi:cx="15.411979"
     sodipodi:cy="11.377083"
     sodipodi:r1="0.44371971"
     sodipodi:r2="0.22185986"
     sodipodi:arg1="-0.46364761"
     sodipodi:arg2="0.58354994"
     inkscape:rounded="0"
     inkscape:randomized="0"
     d="m 15.808854,11.178645 -0.423461,0.64136 -0.343704,-0.687407 z"
     inkscape:transform-center-x="-4.3620064"
     inkscape:transform-center-y="-5.3870133"
     transform="matrix(29.227028,25.657615,-27.359376,31.165532,220.56791,-1970.474)"
     clip-path="none" />
  <path
     sodipodi:type="star"
     style="fill:#f9ad29;fill-opacity:1;stroke:#e6e4df;stroke-width:0.635052;stroke-linejoin:round;stroke-dasharray:none;stroke-opacity:1"
     id="path95265-5"
     inkscape:flatsided="true"
     sodipodi:sides="3"
     sodipodi:cx="15.411979"
     sodipodi:cy="11.377083"
     sodipodi:r1="0.44371971"
     sodipodi:r2="0.22185986"
     sodipodi:arg1="-0.46364761"
     sodipodi:arg2="0.58354994"
     inkscape:rounded="0"
     inkscape:randomized="0"
     d="m 15.808854,11.178645 -0.423461,0.64136 -0.343704,-0.687407 z"
     inkscape:transform-center-x="-3.2858116"
     inkscape:transform-center-y="-4.1632545"
     transform="matrix(22.016128,19.829108,-20.609263,24.085821,736.28654,-1642.0872)"
     clip-path="none" />
  <path
     sodipodi:type="star"
     style="fill:#f9ad29;fill-opacity:1;stroke:#dac1da;stroke-width:0.635052;stroke-linejoin:round;stroke-dasharray:none;stroke-opacity:1"
     id="path95265-5-8"
     inkscape:flatsided="true"
     sodipodi:sides="3"
     sodipodi:cx="15.411979"
     sodipodi:cy="11.377083"
     sodipodi:r1="0.44371971"
     sodipodi:r2="0.22185986"
     sodipodi:arg1="-0.46364761"
     sodipodi:arg2="0.58354994"
     inkscape:rounded="0"
     inkscape:randomized="0"
     d="m 15.808854,11.178645 -0.423461,0.64136 -0.343704,-0.687407 z"
     inkscape:transform-center-x="-3.6435959"
     inkscape:transform-center-y="-15.148934"
     transform="matrix(44.864357,156.9432,-167.39995,47.521516,1538.8354,-3747.8658)"
     clip-path="none" />
  <path
     sodipodi:type="spiral"
     style="fill:none;fill-rule:evenodd;stroke:#f7f6f8;stroke-width:1.518;stroke-dasharray:18.216, 1.518;stroke-dashoffset:0;stroke-opacity:1"
     id="path14440-4"
     sodipodi:cx="34.25"
     sodipodi:cy="8.1875"
     sodipodi:expansion="1"
     sodipodi:revolution="2.4104786"
     sodipodi:radius="6.8332424"
     sodipodi:argument="-18.553051"
     sodipodi:t0="0"
     d="m 34.25,8.1875 c 0.407792,0.1245848 0.03325,0.6111608 -0.207068,0.6777766 -0.651253,0.1805247 -1.141764,-0.5157204 -1.148485,-1.0919128 -0.01202,-1.030673 1.023003,-1.7027649 1.976757,-1.6191935 1.399674,0.1226443 2.275024,1.5352263 2.089902,2.8616021 C 36.714368,10.783623 34.912157,11.867529 33.214659,11.576383 31.078533,11.210005 29.78392,9.013057 30.183341,6.9450914 30.667092,4.4405079 33.261398,2.9340792 35.699477,3.4430639 38.572668,4.0428848 40.29157,7.0360721 39.672213,9.8440448 38.95714,13.085961 35.564107,15.017758 32.386387,14.287489 30.186144,13.781853 28.38974,12.109519 27.657036,9.9836163"
     transform="matrix(0.9428654,-33.586507,35.802942,1.2688054,367.63579,408.78623)" />
  <rect
     style="fill:#dac1da;fill-opacity:1;stroke:#dac1da;stroke-width:7.62185;stroke-linejoin:round;stroke-dasharray:none;stroke-opacity:1"
     id="rect97535-5"
     width="7.1955066"
     height="83.800461"
     x="-268.83575"
     y="-1058.8181"
     transform="matrix(0.28375273,0.95889749,-0.8774674,0.47963628,0,0)"
     clip-path="none" />
  <g
     id="g96721-6-7"
     transform="matrix(14.140441,-5.5169122,4.8083099,15.535252,343.70509,-698.7019)"
     style="fill:#dac1da;fill-opacity:1;stroke:#dac1da;stroke-opacity:1"
     clip-path="none">
    <path
       style="fill:#dac1da;fill-opacity:1;stroke:#dac1da;stroke-width:0.771873;stroke-linejoin:round;stroke-dasharray:none;stroke-opacity:1"
       id="path94400-6-4"
       sodipodi:type="arc"
       sodipodi:cx="26.822189"
       sodipodi:cy="15.732291"
       sodipodi:rx="1.5559835"
       sodipodi:ry="1.4665335"
       sodipodi:start="0"
       sodipodi:end="6.0688543"
       sodipodi:arc-type="slice"
       d="m 28.378173,15.732291 a 1.5559835,1.4665335 0 0 1 -1.47265,1.464429 1.5559835,1.4665335 0 0 1 -1.630391,-1.307568 1.5559835,1.4665335 0 0 1 1.298011,-1.604487 1.5559835,1.4665335 0 0 1 1.769427,1.135704 l -1.520381,0.311922 z" />
    <rect
       style="fill:#dac1da;fill-opacity:1;stroke:#dac1da;stroke-width:0.757862;stroke-linejoin:round;stroke-dasharray:none;stroke-opacity:1"
       id="rect94402-8-6"
       width="0.2794134"
       height="7.3481517"
       x="28.105097"
       y="8.391881" />
  </g>
  <g
     id="g96721-6-7-4"
     transform="matrix(14.140441,-5.5169122,4.8083099,15.535252,410.03698,-735.0353)"
     style="fill:#dac1da;fill-opacity:1;stroke:#dac1da;stroke-opacity:1"
     clip-path="none">
    <path
       style="fill:#dac1da;fill-opacity:1;stroke:#dac1da;stroke-width:0.771873;stroke-linejoin:round;stroke-dasharray:none;stroke-opacity:1"
       id="path94400-6-4-4"
       sodipodi:type="arc"
       sodipodi:cx="26.822189"
       sodipodi:cy="15.732291"
       sodipodi:rx="1.5559835"
       sodipodi:ry="1.4665335"
       sodipodi:start="0"
       sodipodi:end="6.0688543"
       sodipodi:arc-type="slice"
       d="m 28.378173,15.732291 a 1.5559835,1.4665335 0 0 1 -1.47265,1.464429 1.5559835,1.4665335 0 0 1 -1.630391,-1.307568 1.5559835,1.4665335 0 0 1 1.298011,-1.604487 1.5559835,1.4665335 0 0 1 1.769427,1.135704 l -1.520381,0.311922 z" />
    <rect
       style="fill:#dac1da;fill-opacity:1;stroke:#dac1da;stroke-width:0.757862;stroke-linejoin:round;stroke-dasharray:none;stroke-opacity:1"
       id="rect94402-8-6-8"
       width="0.2794134"
       height="7.3481517"
       x="28.105097"
       y="8.391881" />
  </g>
</svg>
