<?xml version="1.0" encoding="UTF-8" standalone="no"?>
<!-- Created with Inkscape (http://www.inkscape.org/) -->

<svg
   width="175"
   height="175"
   viewBox="0 0 46.302083 46.302082"
   version="1.1"
   id="svg1583"
   inkscape:export-filename="..\code\NSF code\refactored\media\trumpet-6.svg"
   inkscape:export-xdpi="96"
   inkscape:export-ydpi="96"
   inkscape:version="1.2.2 (732a01da63, 2022-12-09)"
   sodipodi:docname="dj-hand.svg"
   xml:space="preserve"
   xmlns:inkscape="http://www.inkscape.org/namespaces/inkscape"
   xmlns:sodipodi="http://sodipodi.sourceforge.net/DTD/sodipodi-0.dtd"
   xmlns="http://www.w3.org/2000/svg"
   xmlns:svg="http://www.w3.org/2000/svg"><sodipodi:namedview
     id="namedview1585"
     pagecolor="#ffffff"
     bordercolor="#000000"
     borderopacity="0.25"
     inkscape:showpageshadow="2"
     inkscape:pageopacity="0.0"
     inkscape:pagecheckerboard="0"
     inkscape:deskcolor="#d1d1d1"
     inkscape:document-units="mm"
     showgrid="false"
     inkscape:zoom="4"
     inkscape:cx="90.25"
     inkscape:cy="116.625"
     inkscape:window-width="1581"
     inkscape:window-height="1401"
     inkscape:window-x="-8"
     inkscape:window-y="0"
     inkscape:window-maximized="0"
     inkscape:current-layer="layer1"
     showguides="true"
     inkscape:lockguides="false"><inkscape:grid
       type="xygrid"
       id="grid7707"
       originx="0"
       originy="0" /></sodipodi:namedview><defs
     id="defs1580"><inkscape:path-effect
       effect="bspline"
       id="path-effect106065"
       is_visible="true"
       lpeversion="1"
       weight="33.333333"
       steps="2"
       helper_size="0"
       apply_no_weight="true"
       apply_with_weight="true"
       only_selected="false" /><inkscape:path-effect
       effect="bspline"
       id="path-effect100771"
       is_visible="true"
       lpeversion="1"
       weight="33.333333"
       steps="2"
       helper_size="0"
       apply_no_weight="true"
       apply_with_weight="true"
       only_selected="false" /><inkscape:path-effect
       effect="bspline"
       id="path-effect100771-7"
       is_visible="true"
       lpeversion="1"
       weight="33.333333"
       steps="2"
       helper_size="0"
       apply_no_weight="true"
       apply_with_weight="true"
       only_selected="false" /></defs><g
     inkscape:label="Layer 1"
     inkscape:groupmode="layer"
     id="layer1"><rect
       style="fill:#f9ad29;fill-opacity:1;stroke:#f9ad29;stroke-width:0.838999;stroke-linejoin:round;stroke-dasharray:none;stroke-opacity:1"
       id="rect109744"
       width="12.567708"
       height="5.2255206"
       x="32.080727"
       y="7.9375" /><path
       style="fill:#bf8fbe;fill-opacity:1;stroke:#bf8fbe;stroke-width:1.03494;stroke-linejoin:round;stroke-dasharray:none;stroke-opacity:1"
       d="m 27.244344,18.851498 c -0.04377,-2.381391 -1.9e-5,-6.35042 -1.268951,-7.960163 -1.268931,-1.6097434 -3.850132,-0.860052 -6.048589,-4.8e-5 -2.198457,0.860005 -4.014047,1.830192 -4.002908,4.068284 0.01114,2.238093 1.848603,5.743999 4.090643,7.265432 2.242039,1.521433 4.888863,1.058389 6.146842,0.430033 1.25798,-0.628356 1.126733,-1.422146 1.082963,-3.803538 z"
       id="path100769"
       inkscape:path-effect="#path-effect100771"
       inkscape:original-d="m 27.156828,20.438868 c 0.04349,-3.968764 0.08724,-7.937793 0.13125,-11.9070885 -2.581566,0.749986 -5.162766,1.4996775 -7.743755,2.2491185 -1.815924,0.970491 -3.631514,1.940678 -5.446879,2.91062 1.837275,3.506311 3.674741,7.012217 5.512504,10.517929 2.646667,-0.4628 5.293491,-0.925843 7.94063,-1.389161 -0.131515,-0.793557 -0.262763,-1.587347 -0.39375,-2.381418 z" /><path
       style="fill:#974795;fill-opacity:1;stroke:#974795;stroke-width:1.07669;stroke-linejoin:round;stroke-dasharray:none;stroke-opacity:1"
       d="m 28.966687,18.286853 c -1.783572,0.832903 -4.672049,1.197922 -6.008205,-0.324212 -1.336157,-1.522134 -1.119895,-4.931354 -1.639294,-6.420549 -0.519399,-1.489195 -1.774098,-1.057976 -2.374021,1.111702 -0.599923,2.169677 -0.545288,6.07715 1.118713,8.085576 1.664,2.008426 4.937571,2.117559 7.213084,0.819772 2.275512,-1.297787 3.552402,-4.002167 3.851881,-4.704102 0.299479,-0.701936 -0.378587,0.59891 -2.162158,1.431813 z"
       id="path100769-1"
       inkscape:path-effect="#path-effect100771-7"
       inkscape:original-d="m 30.072268,18.754651 c -2.889124,0.365332 -5.777601,0.730351 -8.666209,1.095156 0.216022,-3.409315 0.432283,-6.818536 0.648822,-10.2282635 -1.255038,0.4315095 -2.509737,0.8627285 -3.764282,1.2937195 0.05438,3.908212 0.109013,7.815685 0.163918,11.723406 3.273358,0.10929 6.546929,0.218424 9.820909,0.327407 1.276939,-2.704774 2.553827,-5.409154 3.831218,-8.114305 -0.678418,1.301282 -1.356484,2.602128 -2.034376,3.90288 z"
       sodipodi:nodetypes="cccccccc" /><rect
       style="fill:#974795;fill-opacity:1;stroke:#974795;stroke-width:0.83572;stroke-linejoin:round;stroke-dasharray:none;stroke-opacity:1"
       id="rect105947"
       width="0.91890609"
       height="2.3148816"
       x="-19.598179"
       y="13.385535"
       transform="matrix(-0.98925257,0.14621679,0.1439515,0.98958474,0,0)" /><rect
       style="fill:#fdeed3;fill-opacity:1;stroke:#fdeed3;stroke-width:0.896863;stroke-linejoin:round;stroke-dasharray:none;stroke-opacity:1"
       id="rect111985"
       width="4.6384897"
       height="6.8874488"
       x="40.113304"
       y="7.04039" /><path
       id="path100761"
       style="fill:#dac1da;fill-opacity:1;stroke:#dac1da;stroke-width:0.83572;stroke-linejoin:round;stroke-dasharray:none;stroke-opacity:1"
       d="m 26.858439,0.93636031 c 2.689829,0.00593 5.322583,0.24726509 6.806035,0.93644289 2.373524,1.1026843 1.804975,3.3517698 0.809546,4.5313083 -0.995427,1.179539 -2.417518,1.289748 -3.368923,0.9700349 C 30.153693,7.0544339 29.672649,6.3045494 28.009954,6.12814 26.347258,5.9517305 23.503421,6.3490079 21.884778,7.4185915 c -1.618641,1.069583 -2.01255,2.8115875 -2.100001,4.7189075 -0.08746,1.90732 0.131301,3.979847 0.885937,5.34682 0.754637,1.366972 2.045561,2.028586 3.106423,2.348343 1.060863,0.319755 1.891985,0.297422 4.407645,-1.543684 2.515662,-1.841106 4.484412,-3.979749 6.584551,-4.453789 2.10014,-0.474041 8.727965,1.708562 1.760597,4.850692 -2.230421,1.005872 -2.198169,1.753412 -4.15591,4.366448 -1.957743,2.613037 -4.67049,5.45727 -6.650176,6.570604 -1.266086,0.712021 -1.536755,1.186111 -3.492996,1.041354 l 0.06973,0.160208 0.196876,8.467263 -19.5562648,-0.132302 0.08818,-2.41811 c -0.340109,0.03473 -0.333998,-0.220078 -0.317871,-0.724038 0.03281,-1.025195 0.09849,-3.075668 0.2625,-4.486863 0.164019,-1.411195 0.426543,-2.18323 2.264068,-6.89102 C 7.0755912,19.931633 10.48797,11.288343 13.320713,6.6687136 16.153456,2.0490841 18.406411,1.4535455 22.190862,1.1337782 23.61003,1.0138655 25.244545,0.93280381 26.858443,0.93636031 Z"
       sodipodi:nodetypes="sssssssssssssscccccssssss" /><path
       style="fill:#bf8fbe;fill-opacity:1;stroke:none;stroke-width:0.835719;stroke-linejoin:round;stroke-dasharray:none;stroke-opacity:1"
       d="m 2.2654996,32.437965 c -0.3865504,1.107043 -0.3865504,2.759776 -0.3865504,4.14746 0,1.387684 0,2.510271 1.0748871,2.673903 1.074887,0.163633 3.2248918,-0.631534 3.4724033,-1.107156 C 6.6737511,37.67655 5.0187113,37.520635 4.3304897,36.250034 3.6422682,34.979433 3.9206859,32.593934 3.6730599,31.68178 3.4254339,30.769626 2.6520499,31.330921 2.2654996,32.437965 Z"
       id="path106063"
       inkscape:path-effect="#path-effect106065"
       inkscape:original-d="m 1.8789492,31.892011 c -2.63e-4,1.652997 -2.63e-4,3.30573 0,4.958198 -2.63e-4,1.1229 -2.63e-4,2.245487 0,3.367833 2.149829,-0.794933 4.299834,-1.590099 6.4501441,-2.385548 -1.6553691,-0.155658 -3.3104091,-0.311572 -4.9652201,-0.467756 0.278168,-2.385331 0.556584,-4.770831 0.83527,-7.156643 -0.773674,0.56158 -1.547058,1.122875 -2.320194,1.683916 z" /><path
       style="fill:#974795;fill-opacity:1;stroke:#974795;stroke-width:1.03494;stroke-linejoin:round;stroke-dasharray:none;stroke-opacity:1"
       d="M 25.056827,45.046849 V 38.034897 L 1.4318102,38.167198 1.2349342,45.377601 Z"
       id="path100767" /><path
       style="fill:#bf8fbe;fill-opacity:1;stroke:#bf8fbe;stroke-width:0.835719;stroke-linejoin:round;stroke-dasharray:none;stroke-opacity:1"
       id="path104404"
       sodipodi:type="arc"
       sodipodi:cx="-4.8443131"
       sodipodi:cy="41.904705"
       sodipodi:rx="1.312501"
       sodipodi:ry="1.3560849"
       sodipodi:start="0"
       sodipodi:end="6.0688543"
       sodipodi:arc-type="slice"
       d="m -3.5318122,41.904705 a 1.312501,1.3560849 0 0 1 -1.2422072,1.354139 1.312501,1.3560849 0 0 1 -1.3752652,-1.209091 1.312501,1.3560849 0 0 1 1.0948967,-1.48365 1.312501,1.3560849 0 0 1 1.4925442,1.050171 l -1.2824694,0.288431 z"
       transform="scale(-1,1)" /><rect
       style="fill:#974795;fill-opacity:1;stroke:#974795;stroke-width:0.899038;stroke-linejoin:round;stroke-dasharray:none;stroke-opacity:1"
       id="rect105949"
       width="0.079728439"
       height="1.0712066"
       x="-18.666666"
       y="13.032557"
       transform="matrix(-0.9918747,0.12721863,0.20646428,0.97845414,0,0)" /><path
       id="path106005"
       style="fill:#bf8fbe;fill-opacity:1;stroke:none;stroke-width:0.835719;stroke-linejoin:round;stroke-dasharray:none;stroke-opacity:1"
       d="m 22.06576,0.68519511 c 0.147691,-0.00251 0.270513,0.00599 0.37478,0.026357 -0.200293,0.02921 -0.501626,0.071367 -1.10896,0.1560738 C 20.101731,1.039156 17.642343,1.3819268 14.425057,6.8315058 11.207769,12.281085 7.2329292,22.836649 5.2298592,28.192429 c -1.157587,3.095139 -1.65504,4.451717 -1.438624,4.911673 -0.03575,0.01131 -0.07556,0.02477 -0.11023,0.03566 -2.235036,0.701744 -1.693603,-0.670763 -0.154572,-5.324911 1.795597,-5.430027 5.9315051,-15.396299 9.1487928,-20.8458792 3.217287,-5.4495796 5.676784,-5.7930571 7.277715,-6.02692959 1.000582,-0.1461704 1.665817,-0.2492647 2.112819,-0.25685 z"
       sodipodi:nodetypes="scsssccssss" /></g></svg>
