<?xml version="1.0" encoding="UTF-8" standalone="no"?>
<!-- Created with Inkscape (http://www.inkscape.org/) -->

<svg
   width="222"
   height="240"
   viewBox="0 0 58.737499 63.499988"
   version="1.1"
   id="svg1583"
   sodipodi:docname="drum-bass.svg"
   inkscape:version="1.2.2 (b0a8486, 2022-12-01)"
   xmlns:inkscape="http://www.inkscape.org/namespaces/inkscape"
   xmlns:sodipodi="http://sodipodi.sourceforge.net/DTD/sodipodi-0.dtd"
   xmlns="http://www.w3.org/2000/svg"
   xmlns:svg="http://www.w3.org/2000/svg">
  <sodipodi:namedview
     id="namedview364707"
     pagecolor="#ffffff"
     bordercolor="#000000"
     borderopacity="0.25"
     inkscape:showpageshadow="2"
     inkscape:pageopacity="0.0"
     inkscape:pagecheckerboard="0"
     inkscape:deskcolor="#d1d1d1"
     showgrid="false"
     inkscape:zoom="0.6707981"
     inkscape:cx="-140.13158"
     inkscape:cy="132.67778"
     inkscape:window-width="1309"
     inkscape:window-height="456"
     inkscape:window-x="0"
     inkscape:window-y="37"
     inkscape:window-maximized="0"
     inkscape:current-layer="svg1583" />
  <defs
     id="defs1580" />
  <rect
     style="fill:#dac1da;fill-opacity:1;stroke:#bf8fbe;stroke-width:1.24301;stroke-dasharray:none;stroke-opacity:1"
     id="rect47022"
     width="22.887207"
     height="14.817417"
     x="17.925131"
     y="-1.0587084" />
  <ellipse
     style="fill:#dac1da;fill-opacity:1;stroke:#bf8fbe;stroke-width:3.175;stroke-dasharray:none;stroke-opacity:1"
     id="path44518-3"
     cx="29.434881"
     cy="13.063803"
     rx="11.762085"
     ry="2.9977622" />
  <rect
     style="fill:#dac1da;fill-opacity:1;stroke:#bf8fbe;stroke-width:1.50812;stroke-dasharray:none;stroke-opacity:1"
     id="rect47018"
     width="42.769909"
     height="11.482931"
     x="8.413743"
     y="51.805431" />
  <ellipse
     style="fill:#dac1da;fill-opacity:1;stroke:none;stroke-width:0.264583;stroke-opacity:1"
     id="path44518"
     cx="29.368736"
     cy="13.559896"
     rx="11.509375"
     ry="2.5135417" />
  <ellipse
     style="fill:#dac1da;fill-opacity:1;stroke:#bf8fbe;stroke-width:3.17512;stroke-dasharray:none;stroke-opacity:1"
     id="path44518-3-8"
     cx="-28.767223"
     cy="-52.096954"
     rx="21.211117"
     ry="3.2223182"
     transform="matrix(-0.9999768,0.00681235,-0.01917708,-0.9998161,0,0)" />
  <ellipse
     style="fill:#dac1da;fill-opacity:1;stroke:none;stroke-width:0.368373;stroke-opacity:1"
     id="path44518-8"
     cx="-28.886507"
     cy="-51.563698"
     rx="20.755392"
     ry="2.7018259"
     transform="matrix(-0.9999768,0.00681235,-0.01917708,-0.9998161,0,0)" />
  <rect
     style="fill:#bf8fbe;fill-opacity:1;stroke:none;stroke-width:0.339451;stroke-opacity:1"
     id="rect47182"
     width="1.6449239"
     height="10.376173"
     x="15.184831"
     y="-1.3516287" />
  <rect
     style="fill:#bf8fbe;fill-opacity:1;stroke:none;stroke-width:0.339451;stroke-opacity:1"
     id="rect47182-9-8-3-3-1-8-4"
     width="1.6449239"
     height="10.376173"
     x="41.94083"
     y="-1.3516285" />
  <rect
     style="fill:#bf8fbe;fill-opacity:1;stroke:none;stroke-width:0.111306;stroke-opacity:1"
     id="rect47182-9-8-3-3-1-8-4-07"
     width="1.6434928"
     height="1.1165935"
     x="4.8739362"
     y="-42.060074"
     transform="matrix(0.01317664,0.99991318,-0.9998994,-0.0141841,0,0)" />
  <rect
     style="fill:#bf8fbe;fill-opacity:1;stroke:none;stroke-width:0.111306;stroke-opacity:1"
     id="rect47182-9-8-3-3-1-8-4-07-6"
     width="1.6434928"
     height="1.1165935"
     x="4.8936734"
     y="-17.351864"
     transform="matrix(0.01317664,0.99991318,-0.9998994,-0.0141841,0,0)" />
  <rect
     style="fill:#bf8fbe;fill-opacity:1;stroke:none;stroke-width:0.379308;stroke-opacity:1"
     id="rect47182-9-8-3-3-1-8-4-0"
     width="1.6449239"
     height="12.95586"
     x="20.939518"
     y="-2.7406907" />
  <rect
     style="fill:#bf8fbe;fill-opacity:1;stroke:none;stroke-width:0.379308;stroke-opacity:1"
     id="rect47182-9-8-3-3-1-8-4-0-3"
     width="1.6449239"
     height="12.95586"
     x="28.149414"
     y="-3.6998053" />
  <rect
     style="fill:#bf8fbe;fill-opacity:1;stroke:none;stroke-width:0.379308;stroke-opacity:1"
     id="rect47182-9-8-3-3-1-8-4-0-3-7"
     width="1.6449239"
     height="12.95586"
     x="36.351498"
     y="-3.0383468" />
  <rect
     style="fill:#bf8fbe;fill-opacity:1;stroke:none;stroke-width:0.348756;stroke-opacity:1"
     id="rect47182-9-8-3-3-1-8-4-8-5"
     width="1.3064914"
     height="13.790081"
     x="45.265762"
     y="32.935688"
     transform="matrix(0.78296758,0.62206251,-0.61535175,0.78825264,0,0)" />
  <rect
     style="fill:#bf8fbe;fill-opacity:1;stroke:none;stroke-width:0.379634;stroke-opacity:1"
     id="rect47182-9-8-3-3-1-8-4-8-6"
     width="1.451036"
     height="14.71233"
     x="-21.149401"
     y="54.685276"
     transform="matrix(0.85589344,-0.51715222,0.59360825,0.80475415,0,0)" />
  <rect
     style="fill:#bf8fbe;fill-opacity:1;stroke:none;stroke-width:0.348756;stroke-opacity:1"
     id="rect47182-9-8-3-3-1-8-4-8-5-1"
     width="1.3064914"
     height="13.790081"
     x="57.215481"
     y="23.927673"
     transform="matrix(0.78296758,0.62206251,-0.61535175,0.78825264,0,0)" />
  <rect
     style="fill:#bf8fbe;fill-opacity:1;stroke:none;stroke-width:0.379634;stroke-opacity:1"
     id="rect47182-9-8-3-3-1-8-4-8-6-0"
     width="1.451036"
     height="14.71233"
     x="-9.3065948"
     y="62.709358"
     transform="matrix(0.85589344,-0.51715222,0.59360825,0.80475415,0,0)" />
  <rect
     style="fill:#bf8fbe;fill-opacity:1;stroke:none;stroke-width:0.348756;stroke-opacity:1"
     id="rect47182-9-8-3-3-1-8-4-8-5-1-8"
     width="1.3064914"
     height="13.790081"
     x="68.541679"
     y="14.905541"
     transform="matrix(0.78296758,0.62206251,-0.61535175,0.78825264,0,0)" />
  <rect
     style="fill:#bf8fbe;fill-opacity:1;stroke:none;stroke-width:0.379634;stroke-opacity:1"
     id="rect47182-9-8-3-3-1-8-4-8-6-0-6"
     width="1.451036"
     height="14.71233"
     x="2.3865252"
     y="70.141418"
     transform="matrix(0.85589344,-0.51715222,0.59360825,0.80475415,0,0)" />
  <ellipse
     style="fill:#e6e4df;fill-opacity:1;stroke:none;stroke-width:1.24301;stroke-dasharray:none;stroke-opacity:1"
     id="path56559"
     cx="29.170313"
     cy="13.460677"
     rx="5.2916665"
     ry="1.0252604" />
  <ellipse
     style="fill:#e6e4df;fill-opacity:1;stroke:none;stroke-width:1.24301;stroke-dasharray:none;stroke-opacity:1"
     id="path56559-6"
     cx="29.897917"
     cy="51.064606"
     rx="5.2916665"
     ry="1.0252604" />
  <g
     id="g70916"
     transform="matrix(1.122983,0,0,1.3165728,-3.8200426,0.85008404)">
    <path
       style="fill:#f9ad29;fill-opacity:1;stroke:#f9ad29;stroke-width:0.783;stroke-linejoin:round;stroke-dasharray:none;stroke-opacity:1"
       id="path70897"
       d="m 44.449997,17.528645 -4.586535,3.970954 -1.145679,-5.957533 z"
       transform="matrix(0.89796938,-0.89236145,0.67762294,1.1825356,-15.03098,46.691357)" />
    <path
       style="fill:#f9ad29;fill-opacity:1;stroke:#f9ad29;stroke-width:0.783;stroke-linejoin:round;stroke-dasharray:none;stroke-opacity:1"
       id="path70899"
       d="M 47.757293,14.089063 40.963268,13.778261 44.629442,8.0498638 Z"
       transform="matrix(0.81222481,-0.83382119,0.75668972,0.99509725,-20.211746,56.87164)" />
    <path
       style="fill:#f9ad29;fill-opacity:1;stroke:#f9ad29;stroke-width:0.783;stroke-linejoin:round;stroke-dasharray:none;stroke-opacity:1"
       id="path70901"
       d="M 48.815625,11.310937 39.584169,15.714679 40.386144,5.518133 Z"
       transform="matrix(1.014347,0.64059032,-0.4864382,1.3357932,-8.9088546,-9.7966074)" />
  </g>
  <path
     style="fill:#f9ad29;fill-opacity:1;stroke:#f9ad29;stroke-width:0.602001;stroke-linejoin:round;stroke-dasharray:none;stroke-opacity:1"
     id="path70970-6"
     d="M 12.948078,42.58166 19.917,44.105772 15.112619,49.378979 Z" />
  <path
     style="fill:#fdeed3;fill-opacity:1;stroke:#fdeed3;stroke-width:0.491565;stroke-linejoin:round;stroke-dasharray:none;stroke-opacity:1"
     id="path71772-4-2-6"
     d="m 15.073373,40.838567 2.873937,-3.064074 1.365699,4.14805 z" />
  <rect
     style="fill:#974795;fill-opacity:1;stroke:#974795;stroke-width:0.49098;stroke-linejoin:round;stroke-dasharray:none;stroke-opacity:1"
     id="rect57471"
     width="35.097252"
     height="1.9912149"
     x="2.1235008"
     y="35.525311"
     transform="matrix(0.953954,0.29995293,-0.15214865,0.98835762,0,0)" />
  <path
     style="fill:#974795;fill-opacity:1;stroke:none;stroke-width:0.713557;stroke-dasharray:none;stroke-opacity:1"
     id="path57417"
     d="m 26.702247,49.759626 -1.844527,-2.414559 -3.353476,0.213413 1.39541,-1.777915 -3.388895,-1.766966 3.584576,0.197535 -0.872408,-2.416783 3.074482,2.024237 2.301022,-1.246713 0.249241,2.326647 3.741734,0.862158 -2.763684,0.877044 2.364845,2.321806 -3.695499,-1.232991 z" />
  <ellipse
     style="fill:#974795;fill-opacity:1;stroke:#f9ad29;stroke-width:0.702;stroke-dasharray:none;stroke-opacity:1"
     id="path57361"
     cx="42.204086"
     cy="35.513931"
     rx="5.0364327"
     ry="4.4192133"
     transform="rotate(17.963078)" />
  <path
     style="fill:#f9ad29;fill-opacity:1;stroke:#f9ad29;stroke-width:0.602001;stroke-linejoin:round;stroke-dasharray:none;stroke-opacity:1"
     id="path70970"
     d="m 45.072933,43.028344 -1.44611,6.985524 -5.326587,-4.74513 z" />
  <path
     style="fill:#fdeed3;fill-opacity:1;stroke:#fdeed3;stroke-width:0.602001;stroke-linejoin:round;stroke-dasharray:none;stroke-opacity:1"
     id="path71772"
     d="m 24.804688,36.644799 -4.291083,-3.078792 4.811854,-2.176792 z" />
  <path
     style="fill:#fdeed3;fill-opacity:1;stroke:#fdeed3;stroke-width:0.602001;stroke-linejoin:round;stroke-dasharray:none;stroke-opacity:1"
     id="path71772-4"
     d="m 33.368198,36.522451 -0.64068,-5.242316 4.86032,2.066313 z" />
  <path
     style="fill:#fdeed3;fill-opacity:1;stroke:#fdeed3;stroke-width:0.491565;stroke-linejoin:round;stroke-dasharray:none;stroke-opacity:1"
     id="path71772-4-2"
     d="m 38.641259,43.816166 0.102245,-4.199715 3.781815,2.183879 z" />
</svg>
