<?xml version="1.0" encoding="UTF-8" standalone="no"?>
<!-- Created with Inkscape (http://www.inkscape.org/) -->

<svg
   width="222"
   height="192"
   viewBox="0 0 58.737499 50.799999"
   version="1.1"
   id="svg1583"
   xmlns="http://www.w3.org/2000/svg"
   xmlns:svg="http://www.w3.org/2000/svg">
  <defs
     id="defs1580" />
  <g
     id="layer1">
    <rect
       style="fill:#dac1da;fill-opacity:1;stroke:#bf8fbe;stroke-width:1.24301;stroke-dasharray:none;stroke-opacity:1"
       id="rect47022"
       width="22.887207"
       height="14.817417"
       x="17.925131"
       y="-1.0587084" />
    <ellipse
       style="fill:#dac1da;fill-opacity:1;stroke:#bf8fbe;stroke-width:3.175;stroke-dasharray:none;stroke-opacity:1"
       id="path44518-3"
       cx="29.434881"
       cy="13.063803"
       rx="11.762085"
       ry="2.9977622" />
    <rect
       style="fill:#dac1da;fill-opacity:1;stroke:#bf8fbe;stroke-width:1.50812;stroke-dasharray:none;stroke-opacity:1"
       id="rect47018"
       width="42.769909"
       height="11.482931"
       x="8.413743"
       y="41.751255" />
    <ellipse
       style="fill:#dac1da;fill-opacity:1;stroke:none;stroke-width:0.264583;stroke-opacity:1"
       id="path44518"
       cx="29.368736"
       cy="13.559896"
       rx="11.509375"
       ry="2.5135417" />
    <ellipse
       style="fill:#dac1da;fill-opacity:1;stroke:#bf8fbe;stroke-width:3.17512;stroke-dasharray:none;stroke-opacity:1"
       id="path44518-3-8"
       cx="-28.960054"
       cy="-42.042271"
       rx="21.211117"
       ry="3.2223182"
       transform="matrix(-0.9999768,0.00681235,-0.01917708,-0.9998161,0,0)" />
    <ellipse
       style="fill:#dac1da;fill-opacity:1;stroke:none;stroke-width:0.368373;stroke-opacity:1"
       id="path44518-8"
       cx="-29.079338"
       cy="-41.509014"
       rx="20.755392"
       ry="2.7018259"
       transform="matrix(-0.9999768,0.00681235,-0.01917708,-0.9998161,0,0)" />
    <rect
       style="fill:#bf8fbe;fill-opacity:1;stroke:none;stroke-width:0.339451;stroke-opacity:1"
       id="rect47182"
       width="1.6449239"
       height="10.376173"
       x="15.184831"
       y="-1.3516287" />
    <rect
       style="fill:#bf8fbe;fill-opacity:1;stroke:none;stroke-width:0.339451;stroke-opacity:1"
       id="rect47182-9-8-3-3-1-8-4"
       width="1.6449239"
       height="10.376173"
       x="41.94083"
       y="-1.3516285" />
    <rect
       style="fill:#bf8fbe;fill-opacity:1;stroke:none;stroke-width:0.111306;stroke-opacity:1"
       id="rect47182-9-8-3-3-1-8-4-07"
       width="1.6434928"
       height="1.1165935"
       x="4.8739362"
       y="-42.060074"
       transform="matrix(0.01317664,0.99991318,-0.9998994,-0.0141841,0,0)" />
    <rect
       style="fill:#bf8fbe;fill-opacity:1;stroke:none;stroke-width:0.111306;stroke-opacity:1"
       id="rect47182-9-8-3-3-1-8-4-07-6"
       width="1.6434928"
       height="1.1165935"
       x="4.8936734"
       y="-17.351864"
       transform="matrix(0.01317664,0.99991318,-0.9998994,-0.0141841,0,0)" />
    <rect
       style="fill:#bf8fbe;fill-opacity:1;stroke:none;stroke-width:0.379308;stroke-opacity:1"
       id="rect47182-9-8-3-3-1-8-4-0"
       width="1.6449239"
       height="12.95586"
       x="20.939518"
       y="-2.7406907" />
    <rect
       style="fill:#bf8fbe;fill-opacity:1;stroke:none;stroke-width:0.379308;stroke-opacity:1"
       id="rect47182-9-8-3-3-1-8-4-0-3"
       width="1.6449239"
       height="12.95586"
       x="28.149414"
       y="-3.6998053" />
    <rect
       style="fill:#bf8fbe;fill-opacity:1;stroke:none;stroke-width:0.379308;stroke-opacity:1"
       id="rect47182-9-8-3-3-1-8-4-0-3-7"
       width="1.6449239"
       height="12.95586"
       x="36.351498"
       y="-3.0383468" />
    <rect
       style="fill:#bf8fbe;fill-opacity:1;stroke:none;stroke-width:0.348756;stroke-opacity:1"
       id="rect47182-9-8-3-3-1-8-4-8-5"
       width="1.3064914"
       height="13.790081"
       x="39.078716"
       y="25.063314"
       transform="matrix(0.78296758,0.62206251,-0.61535175,0.78825264,0,0)" />
    <rect
       style="fill:#bf8fbe;fill-opacity:1;stroke:none;stroke-width:0.379634;stroke-opacity:1"
       id="rect47182-9-8-3-3-1-8-4-8-6"
       width="1.451036"
       height="14.71233"
       x="-15.155803"
       y="46.04343"
       transform="matrix(0.85589344,-0.51715222,0.59360825,0.80475415,0,0)" />
    <rect
       style="fill:#bf8fbe;fill-opacity:1;stroke:none;stroke-width:0.348756;stroke-opacity:1"
       id="rect47182-9-8-3-3-1-8-4-8-5-1"
       width="1.3064914"
       height="13.790081"
       x="51.028435"
       y="16.055304"
       transform="matrix(0.78296758,0.62206251,-0.61535175,0.78825264,0,0)" />
    <rect
       style="fill:#bf8fbe;fill-opacity:1;stroke:none;stroke-width:0.379634;stroke-opacity:1"
       id="rect47182-9-8-3-3-1-8-4-8-6-0"
       width="1.451036"
       height="14.71233"
       x="-3.3130023"
       y="54.067513"
       transform="matrix(0.85589344,-0.51715222,0.59360825,0.80475415,0,0)" />
    <rect
       style="fill:#bf8fbe;fill-opacity:1;stroke:none;stroke-width:0.348756;stroke-opacity:1"
       id="rect47182-9-8-3-3-1-8-4-8-5-1-8"
       width="1.3064914"
       height="13.790081"
       x="62.354584"
       y="7.0331717"
       transform="matrix(0.78296758,0.62206251,-0.61535175,0.78825264,0,0)" />
    <rect
       style="fill:#bf8fbe;fill-opacity:1;stroke:none;stroke-width:0.379634;stroke-opacity:1"
       id="rect47182-9-8-3-3-1-8-4-8-6-0-6"
       width="1.451036"
       height="14.71233"
       x="8.3801155"
       y="61.499569"
       transform="matrix(0.85589344,-0.51715222,0.59360825,0.80475415,0,0)" />
    <ellipse
       style="fill:#e6e4df;fill-opacity:1;stroke:none;stroke-width:1.24301;stroke-dasharray:none;stroke-opacity:1"
       id="path56559"
       cx="29.170313"
       cy="13.460677"
       rx="5.2916665"
       ry="1.0252604" />
    <ellipse
       style="fill:#e6e4df;fill-opacity:1;stroke:none;stroke-width:1.24301;stroke-dasharray:none;stroke-opacity:1"
       id="path56559-6"
       cx="29.897917"
       cy="41.010429"
       rx="5.2916665"
       ry="1.0252604" />
    <g
       id="g70916"
       transform="matrix(1.122983,0,0,1.3165728,-3.8200426,-9.2040814)">
      <path
         style="fill:#f9ad29;fill-opacity:1;stroke:#f9ad29;stroke-width:0.783;stroke-linejoin:round;stroke-dasharray:none;stroke-opacity:1"
         id="path70897"
         d="m 44.449997,17.528645 -4.586535,3.970954 -1.145679,-5.957533 z"
         transform="matrix(0.89796938,-0.89236145,0.67762294,1.1825356,-15.03098,46.691357)" />
      <path
         style="fill:#f9ad29;fill-opacity:1;stroke:#f9ad29;stroke-width:0.783;stroke-linejoin:round;stroke-dasharray:none;stroke-opacity:1"
         id="path70899"
         d="M 47.757293,14.089063 40.963268,13.778261 44.629442,8.0498638 Z"
         transform="matrix(0.81222481,-0.83382119,0.75668972,0.99509725,-20.211746,56.87164)" />
      <path
         style="fill:#f9ad29;fill-opacity:1;stroke:#f9ad29;stroke-width:0.783;stroke-linejoin:round;stroke-dasharray:none;stroke-opacity:1"
         id="path70901"
         d="M 48.815625,11.310937 39.584169,15.714679 40.386144,5.518133 Z"
         transform="matrix(1.014347,0.64059032,-0.4864382,1.3357932,-8.9088546,-9.7966074)" />
    </g>
    <path
       style="fill:#f9ad29;fill-opacity:1;stroke:#f9ad29;stroke-width:0.602001;stroke-linejoin:round;stroke-dasharray:none;stroke-opacity:1"
       id="path70970-6"
       d="m 43.920832,29.170312 -3.582009,6.169116 -3.551607,-6.186669 z"
       transform="rotate(-107.80456,29.6584,42.140816)" />
    <path
       style="fill:#fdeed3;fill-opacity:1;stroke:#fdeed3;stroke-width:0.602001;stroke-linejoin:round;stroke-dasharray:none;stroke-opacity:1"
       id="path71772-4-2-6"
       d="m 46.897396,21.431251 -4.291083,-3.078792 4.811854,-2.176791 z"
       transform="matrix(-0.08491873,0.80482054,-0.81510637,-0.12650324,36.52459,-4.2484707)" />
    <rect
       style="fill:#974795;fill-opacity:1;stroke:#974795;stroke-width:0.49098;stroke-linejoin:round;stroke-dasharray:none;stroke-opacity:1"
       id="rect57471"
       width="35.097252"
       height="1.9912149"
       x="0.57595307"
       y="25.822369"
       transform="matrix(0.953954,0.29995293,-0.15214865,0.98835762,0,0)" />
    <path
       style="fill:#974795;fill-opacity:1;stroke:none;stroke-width:1.24301;stroke-dasharray:none;stroke-opacity:1"
       id="path57417"
       d="M 13.030729,21.894271 8.738581,19.177067 5.7864421,23.311146 5.234727,18.261261 0.16194536,18.530742 3.7661161,14.950841 0.39259982,11.1528 5.4386424,11.738622 6.304718,6.7330608 8.9928595,11.04347 13.446354,8.5996789 l -1.693985,4.7891701 4.687342,1.958203 -4.800506,1.661588 z"
       transform="matrix(0.64960532,0.36490809,-0.34729661,0.31220297,25.841222,28.114978)" />
    <ellipse
       style="fill:#974795;fill-opacity:1;stroke:#f9ad29;stroke-width:0.702;stroke-dasharray:none;stroke-opacity:1"
       id="path57361"
       cx="39.103352"
       cy="25.949858"
       rx="5.0364327"
       ry="4.4192133"
       transform="rotate(17.963078)" />
    <path
       style="fill:#f9ad29;fill-opacity:1;stroke:#f9ad29;stroke-width:0.602001;stroke-linejoin:round;stroke-dasharray:none;stroke-opacity:1"
       id="path70970"
       d="m 43.920832,29.170312 -3.582009,6.169116 -3.551607,-6.186669 z"
       transform="rotate(-18.445092,56.210541,27.524445)" />
    <path
       style="fill:#fdeed3;fill-opacity:1;stroke:#fdeed3;stroke-width:0.602001;stroke-linejoin:round;stroke-dasharray:none;stroke-opacity:1"
       id="path71772"
       d="m 46.897396,21.431251 -4.291083,-3.078792 4.811854,-2.176791 z"
       transform="translate(-22.092708,5.1593745)" />
    <path
       style="fill:#fdeed3;fill-opacity:1;stroke:#fdeed3;stroke-width:0.602001;stroke-linejoin:round;stroke-dasharray:none;stroke-opacity:1"
       id="path71772-4"
       d="m 46.897396,21.431251 -4.291083,-3.078792 4.811854,-2.176791 z"
       transform="rotate(47.373339,34.391834,8.5298318)" />
    <path
       style="fill:#fdeed3;fill-opacity:1;stroke:#fdeed3;stroke-width:0.602001;stroke-linejoin:round;stroke-dasharray:none;stroke-opacity:1"
       id="path71772-4-2"
       d="m 46.897396,21.431251 -4.291083,-3.078792 4.811854,-2.176791 z"
       transform="matrix(0.47280584,0.65681195,-0.69218514,0.44864373,31.30229,-6.6557735)" />
  </g>
</svg>
