<?xml version="1.0" encoding="UTF-8" standalone="no"?>
<svg
   height="28"
   viewBox="0 -960 2980 560"
   width="149"
   version="1.1"
   id="svg19"
   sodipodi:docname="Harmonyvis.svg"
   inkscape:export-filename="..\..\..\mainroot\project files\code\NSF code\refactored\media\sensor.svg"
   inkscape:export-xdpi="96"
   inkscape:export-ydpi="96"
   inkscape:version="1.2.2 (b0a8486, 2022-12-01)"
   xmlns:inkscape="http://www.inkscape.org/namespaces/inkscape"
   xmlns:sodipodi="http://sodipodi.sourceforge.net/DTD/sodipodi-0.dtd"
   xmlns="http://www.w3.org/2000/svg"
   xmlns:svg="http://www.w3.org/2000/svg">
  <defs
     id="defs23" />
  <sodipodi:namedview
     id="namedview21"
     pagecolor="#ffffff"
     bordercolor="#000000"
     borderopacity="0.25"
     inkscape:showpageshadow="2"
     inkscape:pageopacity="0.0"
     inkscape:pagecheckerboard="0"
     inkscape:deskcolor="#d1d1d1"
     showgrid="false"
     inkscape:zoom="4.0871759"
     inkscape:cx="83.921027"
     inkscape:cy="27.28045"
     inkscape:window-width="1293"
     inkscape:window-height="835"
     inkscape:window-x="0"
     inkscape:window-y="37"
     inkscape:window-maximized="0"
     inkscape:current-layer="svg19" />
  <rect
     style="fill:#fefefe;fill-opacity:1;stroke:none;stroke-width:36.56;stroke-linecap:round;stroke-linejoin:round;stroke-opacity:1"
     id="rect310162"
     width="3210.0403"
     height="381.68164"
     x="-53.8269"
     y="-1229.1345" />
  <rect
     style="fill:#fefefe;fill-opacity:1;stroke:none;stroke-width:36.56;stroke-linecap:round;stroke-linejoin:round;stroke-opacity:1"
     id="rect310162-3"
     width="3210.0403"
     height="381.68164"
     x="-73.400246"
     y="-470.66458" />
  <rect
     style="fill:#fefefe;fill-opacity:1;stroke:none;stroke-width:13.3132;stroke-linecap:round;stroke-linejoin:round;stroke-opacity:1"
     id="rect310162-3-6"
     width="288.70776"
     height="562.73578"
     x="2950.6926"
     y="-964.89337" />
  <rect
     style="fill:#fefefe;fill-opacity:1;stroke:none;stroke-width:13.3132;stroke-linecap:round;stroke-linejoin:round;stroke-opacity:1"
     id="rect310162-3-6-5"
     width="288.70776"
     height="562.73578"
     x="-256.901"
     y="-918.40656" />
  <rect
     style="fill:#fdeed3;fill-opacity:0.0614334;stroke:#974795;stroke-width:32.1055;stroke-linecap:round;stroke-linejoin:round;stroke-dasharray:none;stroke-opacity:1"
     id="rect178086"
     width="128.49159"
     height="354.48956"
     x="30.732885"
     y="-832.01678" />
  <rect
     style="fill:#fdeed3;fill-opacity:0;stroke:#974795;stroke-width:32.1055;stroke-linecap:round;stroke-linejoin:round;stroke-dasharray:none;stroke-opacity:1"
     id="rect178086-9"
     width="128.49159"
     height="354.48956"
     x="162.86554"
     y="-832.02716" />
  <rect
     style="fill:#fdeed3;fill-opacity:0;stroke:#974795;stroke-width:32.1055;stroke-linecap:round;stroke-linejoin:round;stroke-dasharray:none;stroke-opacity:1"
     id="rect178086-9-2"
     width="128.49159"
     height="354.48956"
     x="297.44516"
     y="-832.02716" />
  <rect
     style="fill:#fdeed3;fill-opacity:0;stroke:#974795;stroke-width:32.1055;stroke-linecap:round;stroke-linejoin:round;stroke-dasharray:none;stroke-opacity:1"
     id="rect178086-9-2-9"
     width="128.49159"
     height="354.48956"
     x="432.02475"
     y="-832.02716" />
  <rect
     style="fill:#fdeed3;fill-opacity:0.0102389;stroke:#974795;stroke-width:32.1055;stroke-linecap:round;stroke-linejoin:round;stroke-dasharray:none;stroke-opacity:1"
     id="rect178086-9-2-9-6"
     width="128.49159"
     height="354.48956"
     x="569.05121"
     y="-832.02716" />
  <rect
     style="fill:#fdeed3;fill-opacity:0;stroke:#974795;stroke-width:32.1055;stroke-linecap:round;stroke-linejoin:round;stroke-dasharray:none;stroke-opacity:1"
     id="rect178086-9-2-9-6-9"
     width="128.49159"
     height="354.48956"
     x="701.78882"
     y="-832.02716" />
  <path
     style="fill:#974795;fill-opacity:1;stroke:#974795;stroke-width:30.4083;stroke-linecap:round;stroke-linejoin:round;stroke-dasharray:none;stroke-opacity:1"
     id="path184604"
     sodipodi:type="arc"
     sodipodi:cx="161.34285"
     sodipodi:cy="-702.04492"
     sodipodi:rx="28.155214"
     sodipodi:ry="39.886898"
     sodipodi:start="0"
     sodipodi:end="6.248534"
     sodipodi:arc-type="slice"
     d="m 189.49806,-702.04492 a 28.155214,39.886898 0 0 1 -27.91131,39.8854 28.155214,39.886898 0 0 1 -28.39489,-39.19437 28.155214,39.886898 0 0 1 27.41936,-40.56446 28.155214,39.886898 0 0 1 28.86994,38.49157 l -28.13831,1.38186 z" />
  <rect
     style="fill:#974795;fill-opacity:1;stroke:#974795;stroke-width:34.1968;stroke-linecap:round;stroke-linejoin:round;stroke-dasharray:none;stroke-opacity:1"
     id="rect184606"
     width="52.972233"
     height="189.40213"
     x="134.61711"
     y="-892.09576" />
  <path
     style="fill:#974795;fill-opacity:1;stroke:#974795;stroke-width:30.4083;stroke-linecap:round;stroke-linejoin:round;stroke-dasharray:none;stroke-opacity:1"
     id="path184604-0"
     sodipodi:type="arc"
     sodipodi:cx="295.27533"
     sodipodi:cy="-699.62744"
     sodipodi:rx="28.155214"
     sodipodi:ry="39.886898"
     sodipodi:start="0"
     sodipodi:end="6.248534"
     sodipodi:arc-type="slice"
     d="m 323.43054,-699.62744 a 28.155214,39.886898 0 0 1 -27.91131,39.8854 28.155214,39.886898 0 0 1 -28.39489,-39.19437 28.155214,39.886898 0 0 1 27.41936,-40.56446 28.155214,39.886898 0 0 1 28.86994,38.49157 l -28.13831,1.38186 z" />
  <rect
     style="fill:#974795;fill-opacity:1;stroke:#974795;stroke-width:34.1968;stroke-linecap:round;stroke-linejoin:round;stroke-dasharray:none;stroke-opacity:1"
     id="rect184606-6"
     width="52.972233"
     height="189.40213"
     x="268.54962"
     y="-889.67841" />
  <path
     style="fill:#974795;fill-opacity:1;stroke:#974795;stroke-width:30.4083;stroke-linecap:round;stroke-linejoin:round;stroke-dasharray:none;stroke-opacity:1"
     id="path184604-0-3"
     sodipodi:type="arc"
     sodipodi:cx="564.5777"
     sodipodi:cy="-706.13818"
     sodipodi:rx="28.155214"
     sodipodi:ry="39.886898"
     sodipodi:start="0"
     sodipodi:end="6.248534"
     sodipodi:arc-type="slice"
     d="m 592.73291,-706.13818 a 28.155214,39.886898 0 0 1 -27.91131,39.8854 28.155214,39.886898 0 0 1 -28.39489,-39.19437 28.155214,39.886898 0 0 1 27.41936,-40.56446 28.155214,39.886898 0 0 1 28.86994,38.49157 l -28.13831,1.38186 z" />
  <rect
     style="fill:#974795;fill-opacity:1;stroke:#974795;stroke-width:34.1968;stroke-linecap:round;stroke-linejoin:round;stroke-dasharray:none;stroke-opacity:1"
     id="rect184606-6-3"
     width="52.972233"
     height="189.40213"
     x="537.85193"
     y="-896.18915" />
  <path
     style="fill:#974795;fill-opacity:1;stroke:#974795;stroke-width:30.4083;stroke-linecap:round;stroke-linejoin:round;stroke-dasharray:none;stroke-opacity:1"
     id="path184604-0-3-5"
     sodipodi:type="arc"
     sodipodi:cx="700.01837"
     sodipodi:cy="-704.3064"
     sodipodi:rx="28.155214"
     sodipodi:ry="39.886898"
     sodipodi:start="0"
     sodipodi:end="6.248534"
     sodipodi:arc-type="slice"
     d="m 728.17359,-704.3064 a 28.155214,39.886898 0 0 1 -27.91132,39.8854 28.155214,39.886898 0 0 1 -28.39489,-39.19436 28.155214,39.886898 0 0 1 27.41936,-40.56447 28.155214,39.886898 0 0 1 28.86994,38.49158 l -28.13831,1.38185 z" />
  <rect
     style="fill:#974795;fill-opacity:1;stroke:#974795;stroke-width:34.1968;stroke-linecap:round;stroke-linejoin:round;stroke-dasharray:none;stroke-opacity:1"
     id="rect184606-6-3-0"
     width="52.972233"
     height="189.40213"
     x="673.29266"
     y="-894.35724" />
  <rect
     style="fill:#fdeed3;fill-opacity:0;stroke:#974795;stroke-width:32.1055;stroke-linecap:round;stroke-linejoin:round;stroke-dasharray:none;stroke-opacity:1"
     id="rect178086-9-2-9-66"
     width="128.49159"
     height="354.48956"
     x="830.72675"
     y="-830.9314" />
  <path
     style="fill:#974795;fill-opacity:1;stroke:#974795;stroke-width:30.4083;stroke-linecap:round;stroke-linejoin:round;stroke-dasharray:none;stroke-opacity:1"
     id="path184604-0-3-5-6"
     sodipodi:type="arc"
     sodipodi:cx="834.33801"
     sodipodi:cy="-704.8623"
     sodipodi:rx="28.155214"
     sodipodi:ry="39.886898"
     sodipodi:start="0"
     sodipodi:end="6.248534"
     sodipodi:arc-type="slice"
     d="m 862.49323,-704.8623 a 28.155214,39.886898 0 0 1 -27.91132,39.8854 28.155214,39.886898 0 0 1 -28.39489,-39.19437 28.155214,39.886898 0 0 1 27.41936,-40.56446 28.155214,39.886898 0 0 1 28.86995,38.49157 l -28.13832,1.38186 z" />
  <rect
     style="fill:#974795;fill-opacity:1;stroke:#974795;stroke-width:34.1968;stroke-linecap:round;stroke-linejoin:round;stroke-dasharray:none;stroke-opacity:1"
     id="rect184606-6-3-0-5"
     width="52.972233"
     height="189.40213"
     x="807.61218"
     y="-894.91315" />
  <rect
     style="fill:#fdeed3;fill-opacity:0;stroke:#974795;stroke-width:32.1055;stroke-linecap:round;stroke-linejoin:round;stroke-dasharray:none;stroke-opacity:1"
     id="rect178086-3"
     width="128.49159"
     height="354.48956"
     x="961.89221"
     y="-832.00726" />
  <rect
     style="fill:#fdeed3;fill-opacity:0;stroke:#974795;stroke-width:32.1055;stroke-linecap:round;stroke-linejoin:round;stroke-dasharray:none;stroke-opacity:1"
     id="rect178086-9-6"
     width="128.49159"
     height="354.48956"
     x="1094.0249"
     y="-832.00726" />
  <rect
     style="fill:#fdeed3;fill-opacity:0;stroke:#974795;stroke-width:32.1055;stroke-linecap:round;stroke-linejoin:round;stroke-dasharray:none;stroke-opacity:1"
     id="rect178086-9-2-0"
     width="128.49159"
     height="354.48956"
     x="1228.6045"
     y="-832.00726" />
  <rect
     style="fill:#fdeed3;fill-opacity:0;stroke:#974795;stroke-width:32.1055;stroke-linecap:round;stroke-linejoin:round;stroke-dasharray:none;stroke-opacity:1"
     id="rect178086-9-2-9-4"
     width="128.49159"
     height="354.48956"
     x="1363.1841"
     y="-832.00726" />
  <rect
     style="fill:#fdeed3;fill-opacity:0;stroke:#974795;stroke-width:32.1055;stroke-linecap:round;stroke-linejoin:round;stroke-dasharray:none;stroke-opacity:1"
     id="rect178086-9-2-9-6-3"
     width="128.49159"
     height="354.48956"
     x="1500.2106"
     y="-832.00726" />
  <rect
     style="fill:#fdeed3;fill-opacity:0;stroke:#974795;stroke-width:32.1055;stroke-linecap:round;stroke-linejoin:round;stroke-dasharray:none;stroke-opacity:1"
     id="rect178086-9-2-9-6-9-8"
     width="128.49159"
     height="354.48956"
     x="1632.9481"
     y="-832.00726" />
  <path
     style="fill:#974795;fill-opacity:1;stroke:#974795;stroke-width:30.4083;stroke-linecap:round;stroke-linejoin:round;stroke-dasharray:none;stroke-opacity:1"
     id="path184604-2"
     sodipodi:type="arc"
     sodipodi:cx="1092.5022"
     sodipodi:cy="-699.27948"
     sodipodi:rx="28.155214"
     sodipodi:ry="39.886898"
     sodipodi:start="0"
     sodipodi:end="6.248534"
     sodipodi:arc-type="slice"
     d="m 1120.6574,-699.27948 a 28.155214,39.886898 0 0 1 -27.9113,39.8854 28.155214,39.886898 0 0 1 -28.3949,-39.19437 28.155214,39.886898 0 0 1 27.4194,-40.56446 28.155214,39.886898 0 0 1 28.8699,38.49157 l -28.1383,1.38186 z" />
  <rect
     style="fill:#974795;fill-opacity:1;stroke:#974795;stroke-width:34.1968;stroke-linecap:round;stroke-linejoin:round;stroke-dasharray:none;stroke-opacity:1"
     id="rect184606-0"
     width="52.972233"
     height="189.40213"
     x="1065.7764"
     y="-894.92157" />
  <path
     style="fill:#974795;fill-opacity:1;stroke:#974795;stroke-width:30.4083;stroke-linecap:round;stroke-linejoin:round;stroke-dasharray:none;stroke-opacity:1"
     id="path184604-0-6"
     sodipodi:type="arc"
     sodipodi:cx="1226.4347"
     sodipodi:cy="-696.86206"
     sodipodi:rx="28.155214"
     sodipodi:ry="39.886898"
     sodipodi:start="0"
     sodipodi:end="6.248534"
     sodipodi:arc-type="slice"
     d="m 1254.5899,-696.86206 a 28.155214,39.886898 0 0 1 -27.9113,39.8854 28.155214,39.886898 0 0 1 -28.3949,-39.19437 28.155214,39.886898 0 0 1 27.4194,-40.56446 28.155214,39.886898 0 0 1 28.8699,38.49157 l -28.1383,1.38186 z" />
  <rect
     style="fill:#974795;fill-opacity:1;stroke:#974795;stroke-width:34.1968;stroke-linecap:round;stroke-linejoin:round;stroke-dasharray:none;stroke-opacity:1"
     id="rect184606-6-5"
     width="52.972233"
     height="189.40213"
     x="1199.709"
     y="-894.92157" />
  <path
     style="fill:#974795;fill-opacity:1;stroke:#974795;stroke-width:30.4083;stroke-linecap:round;stroke-linejoin:round;stroke-dasharray:none;stroke-opacity:1"
     id="path184604-0-3-7"
     sodipodi:type="arc"
     sodipodi:cx="1495.7371"
     sodipodi:cy="-703.3728"
     sodipodi:rx="28.155214"
     sodipodi:ry="39.886898"
     sodipodi:start="0"
     sodipodi:end="6.248534"
     sodipodi:arc-type="slice"
     d="m 1523.8923,-703.3728 a 28.155214,39.886898 0 0 1 -27.9113,39.8854 28.155214,39.886898 0 0 1 -28.3949,-39.19437 28.155214,39.886898 0 0 1 27.4193,-40.56446 28.155214,39.886898 0 0 1 28.87,38.49157 l -28.1383,1.38186 z" />
  <rect
     style="fill:#974795;fill-opacity:1;stroke:#974795;stroke-width:34.1968;stroke-linecap:round;stroke-linejoin:round;stroke-dasharray:none;stroke-opacity:1"
     id="rect184606-6-3-2"
     width="52.972233"
     height="189.40213"
     x="1469.0114"
     y="-894.92157" />
  <path
     style="fill:#974795;fill-opacity:1;stroke:#974795;stroke-width:30.4083;stroke-linecap:round;stroke-linejoin:round;stroke-dasharray:none;stroke-opacity:1"
     id="path184604-0-3-5-2"
     sodipodi:type="arc"
     sodipodi:cx="1631.1777"
     sodipodi:cy="-701.54095"
     sodipodi:rx="28.155214"
     sodipodi:ry="39.886898"
     sodipodi:start="0"
     sodipodi:end="6.248534"
     sodipodi:arc-type="slice"
     d="m 1659.3329,-701.54095 a 28.155214,39.886898 0 0 1 -27.9113,39.8854 28.155214,39.886898 0 0 1 -28.3949,-39.19437 28.155214,39.886898 0 0 1 27.4194,-40.56446 28.155214,39.886898 0 0 1 28.8699,38.49157 l -28.1383,1.38186 z" />
  <rect
     style="fill:#974795;fill-opacity:1;stroke:#974795;stroke-width:34.1968;stroke-linecap:round;stroke-linejoin:round;stroke-dasharray:none;stroke-opacity:1"
     id="rect184606-6-3-0-0"
     width="52.972233"
     height="189.40213"
     x="1604.452"
     y="-894.92157" />
  <rect
     style="fill:#fdeed3;fill-opacity:0;stroke:#974795;stroke-width:32.1055;stroke-linecap:round;stroke-linejoin:round;stroke-dasharray:none;stroke-opacity:1"
     id="rect178086-9-2-9-66-6"
     width="128.49159"
     height="354.48956"
     x="1761.8861"
     y="-832.00726" />
  <rect
     style="fill:#fdeed3;fill-opacity:0;stroke:#974795;stroke-width:32.1055;stroke-linecap:round;stroke-linejoin:round;stroke-dasharray:none;stroke-opacity:1"
     id="rect178086-9-2-9-6-8-0"
     width="128.49159"
     height="354.48956"
     x="1898.9125"
     y="-832.00726" />
  <path
     style="fill:#974795;fill-opacity:1;stroke:#974795;stroke-width:30.4083;stroke-linecap:round;stroke-linejoin:round;stroke-dasharray:none;stroke-opacity:1"
     id="path184604-0-3-5-6-1"
     sodipodi:type="arc"
     sodipodi:cx="1765.4973"
     sodipodi:cy="-702.09692"
     sodipodi:rx="28.155214"
     sodipodi:ry="39.886898"
     sodipodi:start="0"
     sodipodi:end="6.248534"
     sodipodi:arc-type="slice"
     d="m 1793.6525,-702.09692 a 28.155214,39.886898 0 0 1 -27.9113,39.8854 28.155214,39.886898 0 0 1 -28.3949,-39.19437 28.155214,39.886898 0 0 1 27.4194,-40.56446 28.155214,39.886898 0 0 1 28.8699,38.49157 l -28.1383,1.38186 z" />
  <rect
     style="fill:#974795;fill-opacity:1;stroke:#974795;stroke-width:34.1968;stroke-linecap:round;stroke-linejoin:round;stroke-dasharray:none;stroke-opacity:1"
     id="rect184606-6-3-0-5-8"
     width="52.972233"
     height="189.40213"
     x="1738.7715"
     y="-894.92157" />
  <rect
     style="fill:#fdeed3;fill-opacity:0.0614334;stroke:#974795;stroke-width:32.1055;stroke-linecap:round;stroke-linejoin:round;stroke-dasharray:none;stroke-opacity:1"
     id="rect178086-1"
     width="128.49159"
     height="354.48956"
     x="2027.5261"
     y="-831.88739" />
  <rect
     style="fill:#fdeed3;fill-opacity:0;stroke:#974795;stroke-width:32.1055;stroke-linecap:round;stroke-linejoin:round;stroke-dasharray:none;stroke-opacity:1"
     id="rect178086-9-0"
     width="128.49159"
     height="354.48956"
     x="2159.6589"
     y="-831.89777" />
  <rect
     style="fill:#fdeed3;fill-opacity:0;stroke:#974795;stroke-width:32.1055;stroke-linecap:round;stroke-linejoin:round;stroke-dasharray:none;stroke-opacity:1"
     id="rect178086-9-2-5"
     width="128.49159"
     height="354.48956"
     x="2294.2385"
     y="-831.89777" />
  <rect
     style="fill:#fdeed3;fill-opacity:0;stroke:#974795;stroke-width:32.1055;stroke-linecap:round;stroke-linejoin:round;stroke-dasharray:none;stroke-opacity:1"
     id="rect178086-9-2-9-0"
     width="128.49159"
     height="354.48956"
     x="2428.8181"
     y="-831.89777" />
  <rect
     style="fill:#fdeed3;fill-opacity:0.0102389;stroke:#974795;stroke-width:32.1055;stroke-linecap:round;stroke-linejoin:round;stroke-dasharray:none;stroke-opacity:1"
     id="rect178086-9-2-9-6-4"
     width="128.49159"
     height="354.48956"
     x="2565.8447"
     y="-831.89777" />
  <rect
     style="fill:#fdeed3;fill-opacity:0;stroke:#974795;stroke-width:32.1055;stroke-linecap:round;stroke-linejoin:round;stroke-dasharray:none;stroke-opacity:1"
     id="rect178086-9-2-9-6-9-6"
     width="128.49159"
     height="354.48956"
     x="2698.5823"
     y="-831.89777" />
  <path
     style="fill:#974795;fill-opacity:1;stroke:#974795;stroke-width:30.4083;stroke-linecap:round;stroke-linejoin:round;stroke-dasharray:none;stroke-opacity:1"
     id="path184604-5"
     sodipodi:type="arc"
     sodipodi:cx="2158.1362"
     sodipodi:cy="-701.91553"
     sodipodi:rx="28.155214"
     sodipodi:ry="39.886898"
     sodipodi:start="0"
     sodipodi:end="6.248534"
     sodipodi:arc-type="slice"
     d="m 2186.2914,-701.91553 a 28.155214,39.886898 0 0 1 -27.9113,39.8854 28.155214,39.886898 0 0 1 -28.3949,-39.19437 28.155214,39.886898 0 0 1 27.4194,-40.56446 28.155214,39.886898 0 0 1 28.8699,38.49158 l -28.1383,1.38185 z" />
  <rect
     style="fill:#974795;fill-opacity:1;stroke:#974795;stroke-width:34.1968;stroke-linecap:round;stroke-linejoin:round;stroke-dasharray:none;stroke-opacity:1"
     id="rect184606-8"
     width="52.972233"
     height="189.40213"
     x="2131.4106"
     y="-891.96637" />
  <path
     style="fill:#974795;fill-opacity:1;stroke:#974795;stroke-width:30.4083;stroke-linecap:round;stroke-linejoin:round;stroke-dasharray:none;stroke-opacity:1"
     id="path184604-0-7"
     sodipodi:type="arc"
     sodipodi:cx="2292.0688"
     sodipodi:cy="-699.49805"
     sodipodi:rx="28.155214"
     sodipodi:ry="39.886898"
     sodipodi:start="0"
     sodipodi:end="6.248534"
     sodipodi:arc-type="slice"
     d="m 2320.2241,-699.49805 a 28.155214,39.886898 0 0 1 -27.9114,39.8854 28.155214,39.886898 0 0 1 -28.3948,-39.19436 28.155214,39.886898 0 0 1 27.4193,-40.56447 28.155214,39.886898 0 0 1 28.87,38.49158 l -28.1384,1.38185 z" />
  <rect
     style="fill:#974795;fill-opacity:1;stroke:#974795;stroke-width:34.1968;stroke-linecap:round;stroke-linejoin:round;stroke-dasharray:none;stroke-opacity:1"
     id="rect184606-6-4"
     width="52.972233"
     height="189.40213"
     x="2265.343"
     y="-889.54901" />
  <path
     style="fill:#974795;fill-opacity:1;stroke:#974795;stroke-width:30.4083;stroke-linecap:round;stroke-linejoin:round;stroke-dasharray:none;stroke-opacity:1"
     id="path184604-0-3-9"
     sodipodi:type="arc"
     sodipodi:cx="2561.3711"
     sodipodi:cy="-706.00879"
     sodipodi:rx="28.155214"
     sodipodi:ry="39.886898"
     sodipodi:start="0"
     sodipodi:end="6.248534"
     sodipodi:arc-type="slice"
     d="m 2589.5263,-706.00879 a 28.155214,39.886898 0 0 1 -27.9113,39.8854 28.155214,39.886898 0 0 1 -28.3949,-39.19437 28.155214,39.886898 0 0 1 27.4194,-40.56446 28.155214,39.886898 0 0 1 28.8699,38.49157 l -28.1383,1.38186 z" />
  <rect
     style="fill:#974795;fill-opacity:1;stroke:#974795;stroke-width:34.1968;stroke-linecap:round;stroke-linejoin:round;stroke-dasharray:none;stroke-opacity:1"
     id="rect184606-6-3-3"
     width="52.972233"
     height="189.40213"
     x="2534.6455"
     y="-896.05975" />
  <path
     style="fill:#974795;fill-opacity:1;stroke:#974795;stroke-width:30.4083;stroke-linecap:round;stroke-linejoin:round;stroke-dasharray:none;stroke-opacity:1"
     id="path184604-0-3-5-4"
     sodipodi:type="arc"
     sodipodi:cx="2696.8118"
     sodipodi:cy="-704.177"
     sodipodi:rx="28.155214"
     sodipodi:ry="39.886898"
     sodipodi:start="0"
     sodipodi:end="6.248534"
     sodipodi:arc-type="slice"
     d="m 2724.967,-704.177 a 28.155214,39.886898 0 0 1 -27.9113,39.8854 28.155214,39.886898 0 0 1 -28.3949,-39.19437 28.155214,39.886898 0 0 1 27.4193,-40.56446 28.155214,39.886898 0 0 1 28.87,38.49157 l -28.1383,1.38186 z" />
  <rect
     style="fill:#974795;fill-opacity:1;stroke:#974795;stroke-width:34.1968;stroke-linecap:round;stroke-linejoin:round;stroke-dasharray:none;stroke-opacity:1"
     id="rect184606-6-3-0-6"
     width="52.972233"
     height="189.40213"
     x="2670.0862"
     y="-894.22784" />
  <rect
     style="fill:#fdeed3;fill-opacity:0;stroke:#974795;stroke-width:32.1055;stroke-linecap:round;stroke-linejoin:round;stroke-dasharray:none;stroke-opacity:1"
     id="rect178086-9-2-9-66-4"
     width="128.49159"
     height="354.48956"
     x="2827.5203"
     y="-830.802" />
  <path
     style="fill:#974795;fill-opacity:1;stroke:#974795;stroke-width:30.4083;stroke-linecap:round;stroke-linejoin:round;stroke-dasharray:none;stroke-opacity:1"
     id="path184604-0-3-5-6-11"
     sodipodi:type="arc"
     sodipodi:cx="2831.1316"
     sodipodi:cy="-704.73291"
     sodipodi:rx="28.155214"
     sodipodi:ry="39.886898"
     sodipodi:start="0"
     sodipodi:end="6.248534"
     sodipodi:arc-type="slice"
     d="m 2859.2868,-704.73291 a 28.155214,39.886898 0 0 1 -27.9113,39.8854 28.155214,39.886898 0 0 1 -28.3949,-39.19437 28.155214,39.886898 0 0 1 27.4194,-40.56446 28.155214,39.886898 0 0 1 28.8699,38.49157 l -28.1383,1.38186 z" />
  <rect
     style="fill:#974795;fill-opacity:1;stroke:#974795;stroke-width:34.1968;stroke-linecap:round;stroke-linejoin:round;stroke-dasharray:none;stroke-opacity:1"
     id="rect184606-6-3-0-5-5"
     width="52.972233"
     height="189.40213"
     x="2804.4058"
     y="-894.78375" />
</svg>
