<?xml version="1.0" encoding="UTF-8" standalone="no"?>
<svg
   height="21"
   viewBox="0 -960 360 420"
   width="18"
   version="1.1"
   id="svg19"
   sodipodi:docname="hearing_FILL0_wght400_GRAD0_opsz48.svg"
   inkscape:export-filename="..\..\..\mainroot\project files\code\NSF code\refactored\media\hearing.svg"
   inkscape:export-xdpi="96"
   inkscape:export-ydpi="96"
   inkscape:version="1.2.2 (732a01da63, 2022-12-09)"
   xmlns:inkscape="http://www.inkscape.org/namespaces/inkscape"
   xmlns:sodipodi="http://sodipodi.sourceforge.net/DTD/sodipodi-0.dtd"
   xmlns="http://www.w3.org/2000/svg"
   xmlns:svg="http://www.w3.org/2000/svg">
  <defs
     id="defs23" />
  <sodipodi:namedview
     id="namedview21"
     pagecolor="#ffffff"
     bordercolor="#000000"
     borderopacity="0.25"
     inkscape:showpageshadow="2"
     inkscape:pageopacity="0.0"
     inkscape:pagecheckerboard="0"
     inkscape:deskcolor="#d1d1d1"
     showgrid="false"
     inkscape:zoom="16"
     inkscape:cx="10.03125"
     inkscape:cy="12.34375"
     inkscape:window-width="1920"
     inkscape:window-height="991"
     inkscape:window-x="-9"
     inkscape:window-y="-9"
     inkscape:window-maximized="1"
     inkscape:current-layer="svg19" />
  <g
     id="g14272"
     transform="translate(80)">
    <path
       style="fill:#f7f6f8;fill-opacity:1;stroke:none;stroke-width:19.4558;stroke-opacity:1"
       d="m 266.01096,-853.28566 -36.35882,-34.10827 -34.61046,-28.61297 -46.14728,-22.52511 -58.291284,10.34938 -44.93287,32.87447 -27.324044,71.83682 4.250407,65.14017 30.967249,40.78871 47.968872,33.48327 27.93125,52.96443 27.93124,49.9205 49.18328,19.48117 30.96725,-21.91631 c 0,0 28.99349,-33.52055 29.51943,-44.26308 3.35638,-68.55545 12.99836,-101.81643 -1.05422,-225.41318 z"
       id="path19547"
       sodipodi:nodetypes="ccccccccccccccsc" />
  </g>
  <g
     id="g15013"
     transform="matrix(0.5,0,0,0.50480769,81.76777,-473.61685)">
    <path
       d="m 394.03553,-136.45424 c -38,0 -71,-10.71906 -99,-32.15721 -28,-21.43815 -47.4167,-58.45849 -62,-107.34673 -10.77371,-36.1172 -26.5,-62.75844 -39.5,-82.4677 -13,-19.70926 -37.5,-44.43227 -73.5,-74.16906 -53.999996,-36.6523 -75.666696,-53.43934 -94.999996,-94.93251 -19.3333001,-41.49319 -29.0000001,-91.97656 -29.0000001,-151.45012 0,-82.98636 25.3333001,-150.93144 76.0000001,-203.83525 50.666696,-52.9038 115.999996,-79.3557 195.999996,-79.3557 78.6667,0 143.8333,25.41458 195.5,76.24372 51.6667,50.82915 79.1667,115.66223 82.5,194.49927 h -60 c -3.3333,-60.85665 -25.1667,-110.82136 -65.5,-149.8941 -40.3333,-39.07276 -91.1667,-58.60912 -152.5,-58.60912 -60,0 -110.3333,21.26525 -151,63.79576 -40.666696,42.53051 -60.999996,94.91565 -60.999996,157.15542 0,49.79182 9.3333,92.841 28,129.14753 18.666696,36.30653 45.916696,50.35522 92.999996,83.00323 26,20.05504 46.8333,41.83895 62.5,65.35176 15.6667,23.5128 30.5,52.55803 44.5,87.13567 11.3333,29.04523 26.1667,74.15219 44.5,90.74946 18.3333,16.59727 40.1667,24.89591 65.5,24.89591 23.3333,0 43.5,-8.29864 60.5,-24.89591 17,-16.59727 27.1667,-36.99808 30.5,-61.20243 h 60 c -3.3333,41.49317 -19.3333,76.58949 -48,105.28894 -28.6667,28.69945 -63,43.04917 -103,43.04917 z"
       id="path17"
       style="fill:#f9ad29;fill-opacity:1;stroke-width:1.01849"
       sodipodi:nodetypes="sssscsssssccssssscscsssccss" />
  </g>
  <path
     style="fill:none;fill-opacity:1;stroke:none;stroke-width:20;stroke-opacity:1"
     d="m 262.96388,-726.65476 c -4.003,-15.83148 -14.5416,-22.4742 -22.98097,-35.35534 -1.88989,-2.88456 -2.44501,-6.45116 -3.53553,-9.72272 -2.50329,-7.50986 -5.63847,-16.7923 -6.18719,-24.74874 -0.52704,-7.64217 0,-15.32064 0,-22.98097 0,-6.58858 -1.372,-21.5351 0.88388,-27.40039 0.946,-2.45958 2.53217,-4.63432 3.53553,-7.07106 0.40908,-0.99348 2.0812,-8.65809 4.41942,-10.6066 1.32988,-1.10823 17.23125,-7.79739 17.67767,-7.95496 2.56148,-0.90405 5.33772,-1.04075 7.95496,-1.76776 2.69311,-0.74809 5.21982,-2.07584 7.95495,-2.65165 6.54651,-1.37822 27.13,-3.15153 33.58756,-1.76777 1.9326,0.41412 3.4072,2.09397 5.30332,2.65165 3.16018,0.92946 6.627,0.64206 9.7227,1.76776 5.28808,1.92294 9.3227,5.35986 14.14214,7.95495 6.09646,3.28271 7.19626,3.04364 12.37438,7.07107 5.48218,4.26392 8.59832,16.61824 11.49048,22.98097 0.5452,1.19952 1.5094,2.2435 1.7678,3.53553 0.3468,1.73344 -0.3466,3.56987 0,5.3033 0.5482,2.74081 2.1035,5.21415 2.65166,7.95495 0.3466,1.73344 -0.2192,3.54919 0,5.30331 0.082,0.65372 0.5892,1.1785 0.8838,1.76776 0.2946,2.35702 0.7358,4.70032 0.8838,7.07106 0.3814,6.10166 0,12.44301 0,18.56156 0,3.83016 1.1152,7.82627 0,11.49048 -0.3842,1.26248 -10.16746,14.14589 -11.49048,15.90989 -6.08774,8.117 -11.87284,14.482 -19.44544,21.21322 -7.79872,6.93218 -8.7809,9.44534 -17.67766,13.25824 -1.3808,0.5918 -3.03268,0.306 -4.41942,0.8838 -5.66272,2.35948 -5.25218,3.9647 -10.6066,5.3033 -9.97478,2.4937 -25.92905,0.884 -37.12311,0.884"
     id="path18146" />
  <ellipse
     style="fill:#e6e4df;fill-opacity:1;stroke:#f9ad29;stroke-width:20;stroke-opacity:1"
     id="path19403"
     cx="338.53592"
     cy="-833.60468"
     rx="9.6913099"
     ry="9.7227182" />
  <ellipse
     style="fill:#e6e4df;fill-opacity:1;stroke:#f9ad29;stroke-width:20;stroke-opacity:1"
     id="path19403-9"
     cx="339.375"
     cy="-621.25"
     rx="9.6913099"
     ry="9.7227182" />
  <path
     style="fill:#e6e4df;fill-opacity:1;stroke:#e6e4df;stroke-width:20;stroke-opacity:1"
     d="m 261.25,-874.375 c -18.75,-17.5 -93.44643,-40.90834 -116.875,35.625 -9.375,30.625 16.25,-83.75 99.375,-55 83.125,28.75 40.67352,246.11248 45,178.125 4.375,-68.75 15.23932,-96.72951 -29.375,-43.75 -20,23.75 -63.125,-4.375 -15,-24.375 77.20158,-32.08378 16.875,-90.625 16.875,-90.625 z"
     id="path19543"
     sodipodi:nodetypes="csssssc" />
  <path
     style="fill:#f9ad29;fill-opacity:1;stroke:#f9ad29;stroke-width:20;stroke-opacity:1"
     d="m 261.25,-874.375 c -18.75,-17.5 -93.44643,-40.90834 -116.875,35.625 -9.375,30.625 16.25,-83.75 99.375,-55 83.125,28.75 40.67352,246.11248 45,178.125 4.375,-68.75 15.23932,-96.72951 -29.375,-43.75 -20,23.75 -63.125,-4.375 -15,-24.375 77.20158,-32.08378 16.875,-90.625 16.875,-90.625 z"
     id="path19545"
     sodipodi:nodetypes="csssssc" />
  <path
     style="fill:#f9ad29;fill-opacity:1;stroke:none;stroke-width:20;stroke-opacity:1"
     d="m 32.313214,-737.57601 -17.387215,-49.4863 c 0,0 -28.683591,-116.45579 23.022009,-157.89439 31.995622,-25.64234 12.748358,40.5471 12.748358,40.5471 0,0 -38.394592,47.75205 -18.383152,166.83359 z"
     id="path22682"
     sodipodi:nodetypes="ccscc" />
  <path
     style="fill:#f9ad29;fill-opacity:1;stroke:none;stroke-width:11.1311;stroke-opacity:1"
     d="m 81.327133,-904.03826 -15.305138,17.89946 c 0,0 -38.156906,60.92744 -17.919718,91.86253 12.522855,19.14274 13.855539,-18.99553 13.855539,-18.99553 0,0 -12.061571,-31.87693 19.369317,-90.76646 z"
     id="path22682-7"
     sodipodi:nodetypes="ccscc" />
</svg>
