<?xml version="1.0" encoding="UTF-8" standalone="no"?>
<svg
   height="25.216347"
   viewBox="0 -960 358.70434 504.32693"
   width="17.935217"
   version="1.1"
   id="svg19"
   sodipodi:docname="hearing.svg"
   inkscape:export-filename="../../app/media/hearingd.svg"
   inkscape:export-xdpi="96"
   inkscape:export-ydpi="96"
   inkscape:version="1.2.2 (732a01da63, 2022-12-09)"
   xmlns:inkscape="http://www.inkscape.org/namespaces/inkscape"
   xmlns:sodipodi="http://sodipodi.sourceforge.net/DTD/sodipodi-0.dtd"
   xmlns="http://www.w3.org/2000/svg"
   xmlns:svg="http://www.w3.org/2000/svg">
  <defs
     id="defs23" />
  <sodipodi:namedview
     id="namedview21"
     pagecolor="#ffffff"
     bordercolor="#000000"
     borderopacity="0.25"
     inkscape:showpageshadow="2"
     inkscape:pageopacity="0.0"
     inkscape:pagecheckerboard="0"
     inkscape:deskcolor="#d1d1d1"
     showgrid="false"
     inkscape:zoom="16"
     inkscape:cx="10.03125"
     inkscape:cy="12.34375"
     inkscape:window-width="1920"
     inkscape:window-height="991"
     inkscape:window-x="-9"
     inkscape:window-y="-9"
     inkscape:window-maximized="1"
     inkscape:current-layer="svg19" />
  <g
     id="g14272"
     transform="translate(71.464463,38.07692)">
    <path
       style="fill:#705c84;fill-opacity:1;stroke:none;stroke-width:23.9584;stroke-opacity:1"
       d="m 262.19999,-869.77556 -45.56907,-41.26825 -43.37783,-34.61938 -57.8371,-27.25357 -73.057373,12.52192 -56.315063,39.77545 -34.245648,86.91675 5.327101,78.81435 38.811734,49.35105 60.120131,40.51205 35.006668,64.08268 35.00666,60.39978 61.64216,23.57064 38.81174,-26.51697 c 0,0 36.33799,-40.55715 36.99716,-53.55475 4.2066,-82.94656 16.29105,-123.18966 -1.32127,-272.73175 z"
       id="path19547"
       sodipodi:nodetypes="ccccccccccccccsc" />
  </g>
  <g
     id="g15013"
     transform="matrix(0.62665775,0,0,0.61077655,2.4843632,-372.33003)">
    <path
       d="m 394.03553,-136.45424 c -38,0 -71,-10.71906 -99,-32.15721 -28,-21.43815 -47.4167,-58.45849 -62,-107.34673 -10.77371,-36.1172 -26.5,-62.75844 -39.5,-82.4677 -13,-19.70926 -37.5,-44.43227 -73.5,-74.16906 -53.999996,-36.6523 -75.666696,-53.43934 -94.999996,-94.93251 -19.3333001,-41.49319 -29.0000001,-91.97656 -29.0000001,-151.45012 0,-82.98636 25.3333001,-150.93144 76.0000001,-203.83525 50.666696,-52.9038 115.999996,-79.3557 195.999996,-79.3557 78.6667,0 143.8333,25.41458 195.5,76.24372 51.6667,50.82915 79.1667,115.66223 82.5,194.49927 h -60 c -3.3333,-60.85665 -25.1667,-110.82136 -65.5,-149.8941 -40.3333,-39.07276 -91.1667,-58.60912 -152.5,-58.60912 -60,0 -110.3333,21.26525 -151,63.79576 -40.666696,42.53051 -60.999996,94.91565 -60.999996,157.15542 0,49.79182 9.3333,92.841 28,129.14753 18.666696,36.30653 45.916696,50.35522 92.999996,83.00323 26,20.05504 46.8333,41.83895 62.5,65.35176 15.6667,23.5128 30.5,52.55803 44.5,87.13567 11.3333,29.04523 26.1667,74.15219 44.5,90.74946 18.3333,16.59727 40.1667,24.89591 65.5,24.89591 23.3333,0 43.5,-8.29864 60.5,-24.89591 17,-16.59727 27.1667,-36.99808 30.5,-61.20243 h 60 c -3.3333,41.49317 -19.3333,76.58949 -48,105.28894 -28.6667,28.69945 -63,43.04917 -103,43.04917 z"
       id="path17"
       style="fill:#f9ad29;fill-opacity:1;stroke-width:1.01849"
       sodipodi:nodetypes="sssscsssssccssssscscsssccss" />
  </g>
  <path
     style="fill:none;fill-opacity:1;stroke:none;stroke-width:24.6285;stroke-opacity:1"
     d="m 229.58026,-678.48547 c -5.01703,-19.15481 -18.22522,-27.19197 -28.80241,-42.77711 -2.36863,-3.49008 -3.06437,-7.80538 -4.43114,-11.7637 -3.13741,-9.08633 -7.06678,-20.31733 -7.7545,-29.94398 -0.66054,-9.24641 0,-18.53674 0,-27.80512 0,-7.97165 -1.71955,-26.05573 1.10778,-33.15226 1.18564,-2.97589 3.17361,-5.60715 4.43114,-8.55541 0.5127,-1.20203 2.6084,-10.47559 5.53893,-12.83313 1.66676,-1.34087 21.59619,-9.43421 22.15569,-9.62486 3.21035,-1.09383 6.68985,-1.25922 9.97008,-2.13885 3.37532,-0.90513 6.54208,-2.5116 9.97006,-3.20828 8.20484,-1.66754 34.00245,-3.8131 42.09581,-2.13886 2.42216,0.50105 4.2703,2.53354 6.64673,3.20828 3.96071,1.12457 8.30573,0.77684 12.18561,2.13885 6.62764,2.3266 11.68429,6.485 17.72457,9.62485 7.64079,3.97181 9.01918,3.68256 15.509,8.55542 6.8709,5.159 10.77641,20.10673 14.4012,27.80512 0.6833,1.45132 1.89175,2.71445 2.21561,4.27771 0.43465,2.09732 -0.4344,4.31925 0,6.41656 0.68707,3.31616 2.63635,6.3087 3.32337,9.62485 0.43439,2.09732 -0.27473,4.29423 0,6.41657 0.10277,0.79095 0.73845,1.42589 1.10768,2.13885 0.36922,2.85181 0.92218,5.68701 1.10768,8.55541 0.47801,7.38252 0,15.05504 0,22.45799 0,4.63419 1.39769,9.46916 0,13.90255 -0.48153,1.5275 -12.74304,17.11539 -14.4012,19.24969 -7.62986,9.82091 -14.88042,17.52205 -24.37127,25.66628 -9.77426,8.38738 -11.00524,11.4281 -22.15569,16.0414 -1.73058,0.71603 -3.8009,0.37024 -5.53893,1.06933 -7.09717,2.85478 -6.58263,4.79696 -13.29341,6.41656 -12.50155,3.01718 -32.49728,1.06957 -46.52697,1.06957"
     id="path18146" />
  <ellipse
     style="fill:#e6e4df;fill-opacity:1;stroke:#f9ad29;stroke-width:24.6285;stroke-opacity:1"
     id="path19403"
     cx="324.29587"
     cy="-807.88623"
     rx="12.146269"
     ry="11.763704" />
  <ellipse
     style="fill:#e6e4df;fill-opacity:1;stroke:#f9ad29;stroke-width:24.6285;stroke-opacity:1"
     id="path19403-9"
     cx="325.3475"
     cy="-550.95422"
     rx="12.146269"
     ry="11.763704" />
  <path
     style="fill:#e6e4df;fill-opacity:1;stroke:#e6e4df;stroke-width:24.6285;stroke-opacity:1"
     d="m 227.43222,-857.21504 c -23.49966,-21.17358 -117.11786,-49.49578 -146.481247,43.10338 -11.74983,37.05378 20.366377,-101.33074 124.548227,-66.54556 104.18185,34.78518 50.97675,297.77623 56.3992,215.51687 5.48325,-83.18195 19.09968,-117.0349 -36.81614,-52.93397 -25.06631,28.73558 -79.11555,-5.2934 -18.79974,-29.49178 96.75794,-38.81879 21.1497,-109.64894 21.1497,-109.64894 z"
     id="path19543"
     sodipodi:nodetypes="csssssc" />
  <path
     style="fill:#f9ad29;fill-opacity:1;stroke:#f9ad29;stroke-width:24.6285;stroke-opacity:1"
     d="m 227.43222,-857.21504 c -23.49966,-21.17358 -117.11786,-49.49578 -146.481247,43.10338 -11.74983,37.05378 20.366377,-101.33074 124.548227,-66.54556 104.18185,34.78518 50.97675,297.77623 56.3992,215.51687 5.48325,-83.18195 19.09968,-117.0349 -36.81614,-52.93397 -25.06631,28.73558 -79.11555,-5.2934 -18.79974,-29.49178 96.75794,-38.81879 21.1497,-109.64894 21.1497,-109.64894 z"
     id="path19545"
     sodipodi:nodetypes="csssssc" />
</svg>
