<?xml version="1.0" encoding="UTF-8" standalone="no"?>
<!-- Created with Inkscape (http://www.inkscape.org/) -->

<svg
   version="1.1"
   id="svg134"
   width="33.397903"
   height="28.458099"
   viewBox="0 0 33.397903 28.458099"
   sodipodi:docname="MW.svg"
   xml:space="preserve"
   inkscape:export-filename="homebutton.svg"
   inkscape:export-xdpi="96"
   inkscape:export-ydpi="96"
   inkscape:version="1.2.2 (b0a8486, 2022-12-01)"
   xmlns:inkscape="http://www.inkscape.org/namespaces/inkscape"
   xmlns:sodipodi="http://sodipodi.sourceforge.net/DTD/sodipodi-0.dtd"
   xmlns="http://www.w3.org/2000/svg"
   xmlns:svg="http://www.w3.org/2000/svg"><defs
     id="defs138" /><sodipodi:namedview
     id="namedview136"
     pagecolor="#ffffff"
     bordercolor="#000000"
     borderopacity="0.25"
     inkscape:showpageshadow="2"
     inkscape:pageopacity="0.0"
     inkscape:pagecheckerboard="0"
     inkscape:deskcolor="#d1d1d1"
     showgrid="false"
     inkscape:zoom="11.652302"
     inkscape:cx="163.83029"
     inkscape:cy="111.86631"
     inkscape:window-width="1245"
     inkscape:window-height="835"
     inkscape:window-x="0"
     inkscape:window-y="37"
     inkscape:window-maximized="0"
     inkscape:current-layer="g140" /><g
     inkscape:groupmode="layer"
     inkscape:label="Image"
     id="g140"
     transform="translate(-893.8194,-676.7987)"><path
       id="rect4423-0-6"
       style="fill:#e4dfe6;fill-opacity:1;stroke:#e4dfe6;stroke-width:0.594335;stroke-linejoin:miter;stroke-opacity:1"
       d="m 904.2535,679.29764 -3.73112,3.41263 5.88512,5.34839 3.67213,-3.43253 z m 12.43183,0.19917 -9.94002,8.87377 3.77267,3.37182 9.77806,-8.94319 z m -16.59967,3.61708 -5.82595,5.32865 3.73112,3.41263 5.92475,-5.38783 z m 20.76733,0.0829 -3.89308,3.2738 5.98791,5.46748 3.73129,-3.41262 z"
       sodipodi:nodetypes="cccccccccccccccccccc" /><path
       id="rect4423-0-6-6"
       style="fill:#e4dfe6;fill-opacity:1;stroke:#e4dfe6;stroke-width:0.594335;stroke-linejoin:miter;stroke-opacity:1"
       d="m 916.79427,707.19643 3.73111,-3.41262 -5.88512,-5.34839 -3.67212,3.43254 z m -12.43185,-0.19917 9.94003,-8.87377 -3.77267,-3.37181 -9.77806,8.94318 z m 16.59967,-3.61707 5.82596,-5.32866 -3.73112,-3.41262 -5.92475,5.38783 z m -20.60049,-0.0526 3.72625,-3.30413 -5.9879,-5.46748 -3.7313,3.41262 z"
       sodipodi:nodetypes="cccccccccccccccccccc" /><rect
       style="fill:#974795;fill-opacity:1;stroke:#974795;stroke-width:0.595519;stroke-linejoin:miter;stroke-opacity:1"
       id="rect4423"
       width="7.895359"
       height="5.0565777"
       x="1121.364"
       y="-95.719719"
       transform="matrix(0.73790302,0.67490676,-0.73790302,0.67490676,0,0)" /><rect
       style="fill:#f9ad29;fill-opacity:1;stroke:#f9ad29;stroke-width:0.595519;stroke-linejoin:miter;stroke-opacity:1"
       id="rect4423-2"
       width="7.895359"
       height="5.0565777"
       x="1135.5005"
       y="-104.07871"
       transform="matrix(0.73790302,0.67490676,-0.73790302,0.67490676,0,0)" /><rect
       style="fill:#81c170;fill-opacity:1;stroke:#81c170;stroke-width:0.595519;stroke-linejoin:miter;stroke-opacity:1"
       id="rect4423-2-6"
       width="7.895359"
       height="5.0565777"
       x="-112.56892"
       y="-1143.3927"
       transform="matrix(-0.73790302,0.67490676,-0.73790302,-0.67490676,0,0)" /><rect
       style="fill:#4e8dd3;fill-opacity:1;stroke:#4e8dd3;stroke-width:0.758928;stroke-linejoin:miter;stroke-opacity:1"
       id="rect4423-3"
       width="13.251019"
       height="4.893168"
       x="-103.99709"
       y="-1134.8246"
       transform="matrix(-0.73790302,0.67490676,-0.73790302,-0.67490676,0,0)" /><rect
       style="fill:#23b7a7;fill-opacity:1;stroke:#23b7a7;stroke-width:0.595519;stroke-linejoin:miter;stroke-opacity:1"
       id="rect4423-0"
       width="7.895359"
       height="5.0565777"
       x="-1136.4386"
       y="114.32204"
       transform="matrix(-0.73790302,-0.67490676,0.73790302,-0.67490676,0,0)" /><rect
       style="fill:#f1806b;fill-opacity:1;stroke:#f1806b;stroke-width:0.595519;stroke-linejoin:miter;stroke-opacity:1"
       id="rect4423-2-5"
       width="7.895359"
       height="5.0565777"
       x="-1122.3345"
       y="105.98376"
       transform="matrix(-0.73790302,-0.67490676,0.73790302,-0.67490676,0,0)" /><rect
       style="fill:#ed6c98;fill-opacity:1;stroke:#ed6c98;stroke-width:0.595519;stroke-linejoin:miter;stroke-opacity:1"
       id="rect4423-2-6-6"
       width="7.895359"
       height="5.0565777"
       x="97.493553"
       y="1114.4421"
       transform="matrix(0.73790302,-0.67490676,0.73790302,0.67490676,0,0)" /><rect
       style="fill:#02b7d9;fill-opacity:1;stroke:#02b7d9;stroke-width:0.758928;stroke-linejoin:miter;stroke-opacity:1"
       id="rect4423-3-7"
       width="13.251019"
       height="4.893168"
       x="106.04415"
       y="1122.9893"
       transform="matrix(0.73790302,-0.67490676,0.73790302,0.67490676,0,0)" /></g></svg>
