<?xml version="1.0" encoding="UTF-8" standalone="no"?>
<svg
   height="50"
   viewBox="0 -960 1000 1000"
   width="50"
   version="1.1"
   id="svg19"
   sodipodi:docname="IconRainstick.svg"
   inkscape:export-filename="..\..\..\mainroot\project files\code\NSF code\refactored\media\sensor.svg"
   inkscape:export-xdpi="96"
   inkscape:export-ydpi="96"
   inkscape:version="1.2.2 (b0a8486, 2022-12-01)"
   xmlns:inkscape="http://www.inkscape.org/namespaces/inkscape"
   xmlns:sodipodi="http://sodipodi.sourceforge.net/DTD/sodipodi-0.dtd"
   xmlns="http://www.w3.org/2000/svg"
   xmlns:svg="http://www.w3.org/2000/svg">
  <defs
     id="defs23" />
  <sodipodi:namedview
     id="namedview21"
     pagecolor="#ffffff"
     bordercolor="#000000"
     borderopacity="0.25"
     inkscape:showpageshadow="2"
     inkscape:pageopacity="0.0"
     inkscape:pagecheckerboard="0"
     inkscape:deskcolor="#d1d1d1"
     showgrid="false"
     inkscape:zoom="9.0204946"
     inkscape:cx="29.155829"
     inkscape:cy="36.749648"
     inkscape:window-width="1293"
     inkscape:window-height="835"
     inkscape:window-x="0"
     inkscape:window-y="37"
     inkscape:window-maximized="0"
     inkscape:current-layer="svg19" />
  <rect
     style="fill:#f9ad29;fill-opacity:1;stroke:#f9ad29;stroke-width:41.6305;stroke-linecap:butt;stroke-linejoin:round;stroke-dasharray:none;stroke-opacity:1;paint-order:normal"
     id="rect17437-1"
     width="187.89919"
     height="317.55322"
     x="261.02933"
     y="-688.62134" />
  <path
     style="fill:none;fill-opacity:1;stroke:none;stroke-width:21.6529;stroke-opacity:1"
     d="m -51.635905,-432.5203 c -4.32004,-17.19454 -15.69334,-24.40919 -24.80115,-38.39937 -2.03957,-3.13291 -2.63866,-7.00659 -3.81555,-10.55983 -2.70157,-8.15644 -6.08507,-18.23807 -6.67724,-26.87955 -0.56879,-8.30015 0,-16.63972 0,-24.95958 0,-7.15586 -1.48067,-23.38923 0.95388,-29.75952 1.02093,-2.67134 2.73274,-5.03332 3.81556,-7.67987 0.44149,-1.07902 2.24605,-9.40352 4.76946,-11.51979 1.43521,-1.20366 18.59603,-8.46875 19.0778,-8.63987 2.76436,-0.9819 5.76049,-1.13037 8.58503,-1.91997 2.90642,-0.81249 5.633244,-2.25457 8.585007,-2.87995 7.065026,-1.49688 29.278802,-3.42287 36.247819,-1.91997 2.085678,0.44977 3.677081,2.27425 5.72337199,2.87995 3.41048201,1.00949 7.15187601,0.69734 10.49276901,1.91997 5.706927,2.08849 10.061091,5.82133 15.262256,8.63984 6.579323,3.56534 7.766235,3.30569 13.354472,7.67988 5.916391,4.63104 9.279343,18.04904 12.400579,24.95959 0.588384,1.30279 1.62895,2.43667 1.90781,3.83993 0.374265,1.88269 -0.374046,3.87723 0,5.75991 0.591628,2.97678 2.270109,5.66308 2.861686,8.63985 0.374055,1.88269 -0.236565,3.85477 0,5.75992 0.0885,0.70999 0.635856,1.27995 0.953801,1.91996 0.317936,2.55995 0.794075,5.10501 0.9538,7.67986 0.411609,6.62699 0,13.51433 0,20.15967 0,4.15993 1.203534,8.5001 0,12.4798 -0.414635,1.37118 -10.972765,15.36382 -12.400562,17.27969 -6.56992,8.81586 -12.813222,15.72886 -20.985604,23.03964 -8.41641,7.52903 -9.47638,10.25857 -19.077794,14.39974 -1.490167,0.64276 -3.272884,0.33236 -4.769455,0.9599 -6.111233,2.56263 -5.668178,4.30606 -11.446686,5.7599 -10.76483,2.7084 -27.982721,0.96012 -40.06341,0.96012"
     id="path18146" />
  <rect
     style="fill:#f9ad29;fill-opacity:1;stroke:#f9ad29;stroke-width:36.9454;stroke-linecap:butt;stroke-linejoin:round;stroke-dasharray:none;stroke-opacity:1;paint-order:normal"
     id="rect11291"
     width="799.05829"
     height="195.94798"
     x="-303.21887"
     y="-621.86224" />
  <rect
     style="fill:#fdeed3;fill-opacity:1;stroke:none;stroke-width:27.6941;stroke-linecap:butt;stroke-linejoin:round;stroke-dasharray:none;stroke-opacity:1;paint-order:normal"
     id="rect22127-7"
     width="68.680107"
     height="22.079636"
     x="212.19919"
     y="-482.64856" />
  <rect
     style="fill:#fdeed3;fill-opacity:1;stroke:#fdeed3;stroke-width:29.8709;stroke-linecap:butt;stroke-linejoin:round;stroke-dasharray:none;stroke-opacity:1;paint-order:normal"
     id="rect17437"
     width="120.88193"
     height="254.13197"
     x="291.40958"
     y="-652.22467" />
  <rect
     style="fill:#fdeed3;fill-opacity:1;stroke:none;stroke-width:27.6941;stroke-linecap:butt;stroke-linejoin:round;stroke-dasharray:none;stroke-opacity:1;paint-order:normal"
     id="rect21291"
     width="122.09795"
     height="19.199718"
     x="-237.1768"
     y="-555.39832" />
  <rect
     style="fill:#fdeed3;fill-opacity:1;stroke:none;stroke-width:27.6941;stroke-linecap:butt;stroke-linejoin:round;stroke-dasharray:none;stroke-opacity:1;paint-order:normal"
     id="rect21291-1"
     width="122.09795"
     height="19.199718"
     x="50.898136"
     y="-576.51794" />
  <rect
     style="fill:#fdeed3;fill-opacity:1;stroke:none;stroke-width:27.6941;stroke-linecap:butt;stroke-linejoin:round;stroke-dasharray:none;stroke-opacity:1;paint-order:normal"
     id="rect22127"
     width="68.680107"
     height="22.079636"
     x="-83.600464"
     y="-489.15936" />
  <path
     sodipodi:type="star"
     style="fill:#f9ad29;fill-opacity:1;stroke:#f9ad29;stroke-width:1.039;stroke-linejoin:round;stroke-dasharray:none;stroke-opacity:1"
     id="path95263"
     inkscape:flatsided="true"
     sodipodi:sides="3"
     sodipodi:cx="20.439062"
     sodipodi:cy="5.2916665"
     sodipodi:r1="2.928401"
     sodipodi:r2="1.4642005"
     sodipodi:arg1="-0.32175055"
     sodipodi:arg2="0.725447"
     inkscape:rounded="0"
     inkscape:randomized="0"
     d="M 23.217187,4.3656248 19.851975,8.1606143 18.248024,3.3487604 Z"
     inkscape:transform-center-x="-17.067825"
     inkscape:transform-center-y="-10.207487"
     transform="matrix(-13.946169,15.822288,-17.51201,-14.16307,19.517948,-932.16)"
     clip-path="none" />
  <path
     sodipodi:type="star"
     style="fill:#fdeed3;fill-opacity:1;stroke:#fdeed3;stroke-width:0.635052;stroke-linejoin:round;stroke-dasharray:none;stroke-opacity:1"
     id="path95265-0"
     inkscape:flatsided="true"
     sodipodi:sides="3"
     sodipodi:cx="15.411979"
     sodipodi:cy="11.377083"
     sodipodi:r1="0.44371971"
     sodipodi:r2="0.22185986"
     sodipodi:arg1="-0.46364761"
     sodipodi:arg2="0.58354994"
     inkscape:rounded="0"
     inkscape:randomized="0"
     d="m 15.808854,11.178645 -0.423461,0.64136 -0.343704,-0.687407 z"
     inkscape:transform-center-x="-0.32430607"
     inkscape:transform-center-y="-0.1345197"
     transform="matrix(44.861517,0.93494229,-0.99062545,48.142588,-1053.6909,-953.8815)"
     clip-path="none" />
  <rect
     style="fill:#f9ad29;stroke:#f9ad29;stroke-width:24.1311;stroke-linecap:round;stroke-linejoin:round"
     id="rect225381"
     width="7.7231092"
     height="74.100479"
     x="540.64331"
     y="-558.57965" />
  <rect
     style="fill:#f9ad29;stroke:#f9ad29;stroke-width:24.1311;stroke-linecap:round;stroke-linejoin:round"
     id="rect225383"
     width="7.7231092"
     height="74.100479"
     x="540.64331"
     y="-558.57965" />
  <rect
     style="fill:#f9ad29;stroke:#f9ad29;stroke-width:28.6803;stroke-linecap:round;stroke-linejoin:round"
     id="rect225383-7"
     width="3.1371374"
     height="257.68884"
     x="641.67133"
     y="-700.59363" />
  <rect
     style="fill:#f9ad29;stroke:#f9ad29;stroke-width:28.28;stroke-linecap:round;stroke-linejoin:round"
     id="rect225383-7-9"
     width="3.5407348"
     height="221.98573"
     x="588.24042"
     y="-638.50153" />
  <rect
     style="fill:#f9ad29;stroke:#f9ad29;stroke-width:27.3085;stroke-linecap:round;stroke-linejoin:round"
     id="rect225383-7-9-3"
     width="4.5200367"
     height="162.14905"
     x="694.20886"
     y="-604.37341" />
  <rect
     style="fill:#f9ad29;stroke:#f9ad29;stroke-width:24.9402;stroke-linecap:round;stroke-linejoin:round"
     id="rect225383-7-9-3-7"
     width="6.9075408"
     height="88.498009"
     x="746.24414"
     y="-555.7381" />
  <rect
     style="fill:#f9ad29;stroke:#f9ad29;stroke-width:24.1311;stroke-linecap:round;stroke-linejoin:round"
     id="rect225383-2"
     width="7.7231092"
     height="74.100479"
     x="-987.68744"
     y="467.58405"
     transform="scale(-1)" />
  <rect
     style="fill:#f9ad29;stroke:#f9ad29;stroke-width:28.6803;stroke-linecap:round;stroke-linejoin:round"
     id="rect225383-7-1"
     width="3.1371374"
     height="257.68884"
     x="-896.03412"
     y="379.4751"
     transform="scale(-1)" />
  <rect
     style="fill:#f9ad29;stroke:#f9ad29;stroke-width:28.28;stroke-linecap:round;stroke-linejoin:round"
     id="rect225383-7-9-0"
     width="3.5407348"
     height="221.98573"
     x="-942.43396"
     y="390.00583"
     transform="scale(-1)" />
  <rect
     style="fill:#f9ad29;stroke:#f9ad29;stroke-width:27.3085;stroke-linecap:round;stroke-linejoin:round"
     id="rect225383-7-9-3-5"
     width="4.5200367"
     height="162.14905"
     x="-801.15289"
     y="435.85242"
     transform="scale(-1)" />
  <rect
     style="fill:#f9ad29;stroke:#f9ad29;stroke-width:24.9402;stroke-linecap:round;stroke-linejoin:round"
     id="rect225383-7-9-3-7-5"
     width="6.9075408"
     height="88.498009"
     x="-850.3681"
     y="468.08191"
     transform="scale(-1)" />
  <rect
     style="fill:#f9ad29;stroke:#f9ad29;stroke-width:29.0664;stroke-linecap:round;stroke-linejoin:round;stroke-opacity:1"
     id="rect225958"
     width="1241.7728"
     height="296.90744"
     x="16.650608"
     y="-276.30856" />
</svg>
