<?xml version="1.0" encoding="UTF-8" standalone="no"?>
<svg
   height="50"
   viewBox="0 -960 1000 1000"
   width="50"
   version="1.1"
   id="svg19"
   sodipodi:docname="IconHarmony.svg"
   inkscape:export-filename="..\..\..\mainroot\project files\code\NSF code\refactored\media\sensor.svg"
   inkscape:export-xdpi="96"
   inkscape:export-ydpi="96"
   inkscape:version="1.2.2 (b0a8486, 2022-12-01)"
   xmlns:inkscape="http://www.inkscape.org/namespaces/inkscape"
   xmlns:sodipodi="http://sodipodi.sourceforge.net/DTD/sodipodi-0.dtd"
   xmlns="http://www.w3.org/2000/svg"
   xmlns:svg="http://www.w3.org/2000/svg">
  <defs
     id="defs23" />
  <sodipodi:namedview
     id="namedview21"
     pagecolor="#ffffff"
     bordercolor="#000000"
     borderopacity="0.25"
     inkscape:showpageshadow="2"
     inkscape:pageopacity="0.0"
     inkscape:pagecheckerboard="0"
     inkscape:deskcolor="#d1d1d1"
     showgrid="false"
     inkscape:zoom="5.2108823"
     inkscape:cx="41.259808"
     inkscape:cy="32.336175"
     inkscape:window-width="1293"
     inkscape:window-height="835"
     inkscape:window-x="0"
     inkscape:window-y="37"
     inkscape:window-maximized="0"
     inkscape:current-layer="svg19" />
  <rect
     style="fill:#fdeed3;fill-opacity:1;stroke:#f9ad29;stroke-width:32.1055;stroke-linecap:round;stroke-linejoin:round;stroke-dasharray:none"
     id="rect178086"
     width="128.49159"
     height="354.48956"
     x="-9.2671146"
     y="-632.01678" />
  <rect
     style="fill:#f9ad29;fill-opacity:1;stroke:#f9ad29;stroke-width:86.6104;stroke-linecap:round;stroke-linejoin:round;stroke-dasharray:none"
     id="rect178086-7-2"
     width="239.10002"
     height="1386.3727"
     x="-221.76112"
     y="-1304.2216"
     transform="matrix(0.01770736,0.99984321,-0.99999471,0.0032528,0,0)" />
  <rect
     style="fill:#fdeed3;fill-opacity:1;stroke:#f9ad29;stroke-width:32.1055;stroke-linecap:round;stroke-linejoin:round;stroke-dasharray:none"
     id="rect178086-9"
     width="128.49159"
     height="354.48956"
     x="122.86555"
     y="-632.02716" />
  <rect
     style="fill:#fdeed3;fill-opacity:1;stroke:#f9ad29;stroke-width:32.1055;stroke-linecap:round;stroke-linejoin:round;stroke-dasharray:none"
     id="rect178086-9-2"
     width="128.49159"
     height="354.48956"
     x="257.44516"
     y="-632.02716" />
  <rect
     style="fill:#fdeed3;fill-opacity:1;stroke:#f9ad29;stroke-width:32.1055;stroke-linecap:round;stroke-linejoin:round;stroke-dasharray:none"
     id="rect178086-9-2-9"
     width="128.49159"
     height="354.48956"
     x="392.02475"
     y="-632.02716" />
  <rect
     style="fill:#fdeed3;fill-opacity:1;stroke:#f9ad29;stroke-width:32.1055;stroke-linecap:round;stroke-linejoin:round;stroke-dasharray:none"
     id="rect178086-9-2-9-6"
     width="128.49159"
     height="354.48956"
     x="529.05121"
     y="-632.02716" />
  <rect
     style="fill:#fdeed3;fill-opacity:1;stroke:#f9ad29;stroke-width:32.1055;stroke-linecap:round;stroke-linejoin:round;stroke-dasharray:none"
     id="rect178086-9-2-9-6-9"
     width="128.49159"
     height="354.48956"
     x="661.78882"
     y="-632.02716" />
  <path
     style="fill:#f9ad29;fill-opacity:1;stroke:#f9ad29;stroke-width:30.4083;stroke-linecap:round;stroke-linejoin:round;stroke-dasharray:none"
     id="path184604"
     sodipodi:type="arc"
     sodipodi:cx="121.34285"
     sodipodi:cy="-502.04489"
     sodipodi:rx="28.155214"
     sodipodi:ry="39.886898"
     sodipodi:start="0"
     sodipodi:end="6.248534"
     sodipodi:arc-type="slice"
     d="m 149.49806,-502.04489 a 28.155214,39.886898 0 0 1 -27.91131,39.8854 28.155214,39.886898 0 0 1 -28.394889,-39.19437 28.155214,39.886898 0 0 1 27.419359,-40.56446 28.155214,39.886898 0 0 1 28.86994,38.49157 l -28.13831,1.38186 z" />
  <rect
     style="fill:#f9ad29;fill-opacity:1;stroke:#f9ad29;stroke-width:34.1968;stroke-linecap:round;stroke-linejoin:round;stroke-dasharray:none"
     id="rect184606"
     width="52.972233"
     height="189.40213"
     x="94.617111"
     y="-692.09576" />
  <path
     style="fill:#f9ad29;fill-opacity:1;stroke:#f9ad29;stroke-width:30.4083;stroke-linecap:round;stroke-linejoin:round;stroke-dasharray:none"
     id="path184604-0"
     sodipodi:type="arc"
     sodipodi:cx="255.27533"
     sodipodi:cy="-499.62747"
     sodipodi:rx="28.155214"
     sodipodi:ry="39.886898"
     sodipodi:start="0"
     sodipodi:end="6.248534"
     sodipodi:arc-type="slice"
     d="m 283.43054,-499.62747 a 28.155214,39.886898 0 0 1 -27.91131,39.8854 28.155214,39.886898 0 0 1 -28.39489,-39.19437 28.155214,39.886898 0 0 1 27.41936,-40.56446 28.155214,39.886898 0 0 1 28.86994,38.49157 l -28.13831,1.38186 z" />
  <rect
     style="fill:#f9ad29;fill-opacity:1;stroke:#f9ad29;stroke-width:34.1968;stroke-linecap:round;stroke-linejoin:round;stroke-dasharray:none"
     id="rect184606-6"
     width="52.972233"
     height="189.40213"
     x="228.54961"
     y="-689.67841" />
  <path
     style="fill:#f9ad29;fill-opacity:1;stroke:#f9ad29;stroke-width:30.4083;stroke-linecap:round;stroke-linejoin:round;stroke-dasharray:none"
     id="path184604-0-3"
     sodipodi:type="arc"
     sodipodi:cx="524.5777"
     sodipodi:cy="-506.13821"
     sodipodi:rx="28.155214"
     sodipodi:ry="39.886898"
     sodipodi:start="0"
     sodipodi:end="6.248534"
     sodipodi:arc-type="slice"
     d="m 552.73291,-506.13821 a 28.155214,39.886898 0 0 1 -27.91131,39.8854 28.155214,39.886898 0 0 1 -28.39489,-39.19437 28.155214,39.886898 0 0 1 27.41936,-40.56446 28.155214,39.886898 0 0 1 28.86994,38.49157 l -28.13831,1.38186 z" />
  <rect
     style="fill:#f9ad29;fill-opacity:1;stroke:#f9ad29;stroke-width:34.1968;stroke-linecap:round;stroke-linejoin:round;stroke-dasharray:none"
     id="rect184606-6-3"
     width="52.972233"
     height="189.40213"
     x="497.85196"
     y="-696.18915" />
  <path
     style="fill:#f9ad29;fill-opacity:1;stroke:#f9ad29;stroke-width:30.4083;stroke-linecap:round;stroke-linejoin:round;stroke-dasharray:none"
     id="path184604-0-3-5"
     sodipodi:type="arc"
     sodipodi:cx="660.01837"
     sodipodi:cy="-504.30637"
     sodipodi:rx="28.155214"
     sodipodi:ry="39.886898"
     sodipodi:start="0"
     sodipodi:end="6.248534"
     sodipodi:arc-type="slice"
     d="m 688.17359,-504.30637 a 28.155214,39.886898 0 0 1 -27.91132,39.88541 28.155214,39.886898 0 0 1 -28.39489,-39.19437 28.155214,39.886898 0 0 1 27.41936,-40.56446 28.155214,39.886898 0 0 1 28.86994,38.49157 l -28.13831,1.38185 z" />
  <rect
     style="fill:#f9ad29;fill-opacity:1;stroke:#f9ad29;stroke-width:34.1968;stroke-linecap:round;stroke-linejoin:round;stroke-dasharray:none"
     id="rect184606-6-3-0"
     width="52.972233"
     height="189.40213"
     x="633.29266"
     y="-694.35724" />
  <rect
     style="fill:#fdeed3;fill-opacity:1;stroke:#f9ad29;stroke-width:32.1055;stroke-linecap:round;stroke-linejoin:round;stroke-dasharray:none"
     id="rect178086-9-2-9-66"
     width="128.49159"
     height="354.48956"
     x="790.72675"
     y="-630.9314" />
  <rect
     style="fill:#fdeed3;fill-opacity:1;stroke:#f9ad29;stroke-width:32.1055;stroke-linecap:round;stroke-linejoin:round;stroke-dasharray:none"
     id="rect178086-9-2-9-6-8"
     width="128.49159"
     height="354.48956"
     x="927.75317"
     y="-630.9314" />
  <path
     style="fill:#f9ad29;fill-opacity:1;stroke:#f9ad29;stroke-width:30.4083;stroke-linecap:round;stroke-linejoin:round;stroke-dasharray:none"
     id="path184604-0-3-5-6"
     sodipodi:type="arc"
     sodipodi:cx="794.33801"
     sodipodi:cy="-504.86234"
     sodipodi:rx="28.155214"
     sodipodi:ry="39.886898"
     sodipodi:start="0"
     sodipodi:end="6.248534"
     sodipodi:arc-type="slice"
     d="m 822.49323,-504.86234 a 28.155214,39.886898 0 0 1 -27.91132,39.88541 28.155214,39.886898 0 0 1 -28.39489,-39.19437 28.155214,39.886898 0 0 1 27.41936,-40.56446 28.155214,39.886898 0 0 1 28.86995,38.49157 l -28.13832,1.38185 z" />
  <rect
     style="fill:#f9ad29;fill-opacity:1;stroke:#f9ad29;stroke-width:34.1968;stroke-linecap:round;stroke-linejoin:round;stroke-dasharray:none"
     id="rect184606-6-3-0-5"
     width="52.972233"
     height="189.40213"
     x="767.61218"
     y="-694.91315" />
</svg>
