<?xml version="1.0" encoding="UTF-8" standalone="no"?>
<svg
   height="50"
   viewBox="0 -960 1000 1000"
   width="50"
   version="1.1"
   id="svg19"
   sodipodi:docname="loopvis.svg"
   inkscape:export-filename="..\..\..\mainroot\project files\code\NSF code\refactored\media\sensor.svg"
   inkscape:export-xdpi="96"
   inkscape:export-ydpi="96"
   inkscape:version="1.2.2 (b0a8486, 2022-12-01)"
   xmlns:inkscape="http://www.inkscape.org/namespaces/inkscape"
   xmlns:sodipodi="http://sodipodi.sourceforge.net/DTD/sodipodi-0.dtd"
   xmlns="http://www.w3.org/2000/svg"
   xmlns:svg="http://www.w3.org/2000/svg">
  <defs
     id="defs23" />
  <sodipodi:namedview
     id="namedview21"
     pagecolor="#ffffff"
     bordercolor="#000000"
     borderopacity="0.25"
     inkscape:showpageshadow="2"
     inkscape:pageopacity="0.0"
     inkscape:pagecheckerboard="0"
     inkscape:deskcolor="#d1d1d1"
     showgrid="false"
     inkscape:zoom="8.6524354"
     inkscape:cx="19.763222"
     inkscape:cy="23.634964"
     inkscape:window-width="1293"
     inkscape:window-height="835"
     inkscape:window-x="0"
     inkscape:window-y="37"
     inkscape:window-maximized="0"
     inkscape:current-layer="svg19" />
  <path
     style="fill:#974795;fill-opacity:1;stroke:#974795;stroke-width:63.8772;stroke-linecap:round;stroke-linejoin:round;stroke-opacity:1"
     id="path168733"
     sodipodi:type="arc"
     sodipodi:cx="499.11661"
     sodipodi:cy="-457.40945"
     sodipodi:rx="437.73935"
     sodipodi:ry="434.4924"
     sodipodi:start="0"
     sodipodi:end="6.248534"
     sodipodi:arc-type="slice"
     d="M 936.85596,-457.40945 A 437.73935,434.4924 0 0 1 502.90862,-22.933356 437.73935,434.4924 0 0 1 61.442957,-449.88197 437.73935,434.4924 0 0 1 487.74171,-891.75514 437.73935,434.4924 0 0 1 936.59318,-472.46217 l -437.47657,15.05272 z" />
  <path
     style="fill:#dac1da;fill-opacity:1;stroke:#dac1da;stroke-width:63.8772;stroke-linecap:round;stroke-linejoin:round;stroke-opacity:1"
     id="path169269"
     sodipodi:type="arc"
     sodipodi:cx="499.11658"
     sodipodi:cy="-436.50604"
     sodipodi:rx="92.765945"
     sodipodi:ry="94.065361"
     sodipodi:start="0"
     sodipodi:end="6.248534"
     sodipodi:arc-type="slice"
     d="m 591.88252,-436.50604 a 92.765945,94.065361 0 0 1 -91.96234,94.06183 92.765945,94.065361 0 0 1 -93.55563,-92.43217 92.765945,94.065361 0 0 1 90.34145,-95.66326 92.765945,94.065361 0 0 1 95.12084,90.77476 l -92.71026,3.25884 z" />
  <path
     style="fill:#974795;fill-opacity:1;stroke:#974795;stroke-width:13.3087;stroke-linecap:round;stroke-linejoin:round;stroke-opacity:1"
     id="path169269-1"
     sodipodi:type="arc"
     sodipodi:cx="497.05768"
     sodipodi:cy="-437.36621"
     sodipodi:rx="18.950958"
     sodipodi:ry="19.987911"
     sodipodi:start="0"
     sodipodi:end="6.2778924"
     sodipodi:arc-type="slice"
     d="m 516.00864,-437.36621 a 18.950958,19.987911 0 0 1 -18.92589,19.98789 18.950958,19.987911 0 0 1 -18.97596,-19.93499 18.950958,19.987911 0 0 1 18.87566,-20.04065 18.950958,19.987911 0 0 1 19.02592,19.88196 l -18.95069,0.10579 z" />
  <path
     sodipodi:type="spiral"
     style="fill:none;fill-rule:evenodd;stroke:#bf8fbe;stroke-width:1.7;stroke-linecap:round;stroke-dasharray:none;stroke-opacity:1"
     id="path170827"
     sodipodi:cx="14.219019"
     sodipodi:cy="26.696934"
     sodipodi:expansion="1"
     sodipodi:revolution="2.2621152"
     sodipodi:radius="21.7474"
     sodipodi:argument="-14.417543"
     sodipodi:t0="0.34608853"
     d="M 6.7129298,27.251205 C 5.3766687,22.50187 8.8957457,17.852635 13.487753,16.793934 19.552375,15.395719 25.341402,19.893142 26.518929,25.788673 27.992024,33.164029 22.503992,40.104701 15.304274,41.393754 6.62019,42.948571 -1.4783584,36.463523 -2.8747116,27.959184 -4.515292,17.967406 2.9705326,8.7072774 12.779774,7.2062928 22.989331,5.644053 32.752071,12.47667 35.514346,22.285759"
     transform="matrix(20.271808,0,0,22.094343,181.85832,-997.3638)" />
  <path
     sodipodi:type="spiral"
     style="fill:none;fill-rule:evenodd;stroke:#bf8fbe;stroke-width:1.7;stroke-linecap:round;stroke-dasharray:none;stroke-opacity:1"
     id="path170827-0"
     sodipodi:cx="14.219019"
     sodipodi:cy="26.696934"
     sodipodi:expansion="1"
     sodipodi:revolution="2.2621152"
     sodipodi:radius="21.7474"
     sodipodi:argument="-14.417543"
     sodipodi:t0="0.75970793"
     d="M -0.45083296,34.297006 C -5.7366737,26.056692 -2.6163511,14.97496 5.5133505,9.893033 14.920972,4.01227 27.46676,7.5967414 33.156969,16.88567 c 1.029399,1.680433 1.823249,3.503352 2.357377,5.400089"
     transform="matrix(15.863442,0,0,16.71614,251.71179,-867.00286)" />
  <path
     style="fill:#974795;fill-opacity:1;stroke:#974795;stroke-width:34.4734;stroke-linecap:round;stroke-linejoin:round;stroke-dasharray:none;stroke-opacity:1"
     d="m 141.9761,-653.43669 428.94475,-236.86726 -97.91031,309.46295 -70.89358,28.80653 z"
     id="path172537"
     sodipodi:nodetypes="ccccc" />
  <path
     style="fill:#974795;fill-opacity:1;stroke:#974795;stroke-width:34.4734;stroke-linecap:round;stroke-linejoin:round;stroke-dasharray:none;stroke-opacity:1"
     d="m 550.71806,-842.62487 -416.9272,192.02506 109.43491,-144.09796 121.57456,-78.19117 z"
     id="path172537-5"
     sodipodi:nodetypes="ccccc" />
</svg>
