<?xml version="1.0" encoding="UTF-8" standalone="no"?>
<!-- Created with Inkscape (http://www.inkscape.org/) -->

<svg
   version="1.1"
   id="svg134"
   width="39.612427"
   height="36.5196"
   viewBox="0 0 39.612427 36.519599"
   sodipodi:docname="MW.svg"
   xml:space="preserve"
   inkscape:export-filename="WM.svg"
   inkscape:export-xdpi="96"
   inkscape:export-ydpi="96"
   inkscape:version="1.2.2 (b0a8486, 2022-12-01)"
   xmlns:inkscape="http://www.inkscape.org/namespaces/inkscape"
   xmlns:sodipodi="http://sodipodi.sourceforge.net/DTD/sodipodi-0.dtd"
   xmlns="http://www.w3.org/2000/svg"
   xmlns:svg="http://www.w3.org/2000/svg"><defs
     id="defs138" /><sodipodi:namedview
     id="namedview136"
     pagecolor="#ffffff"
     bordercolor="#000000"
     borderopacity="0.25"
     inkscape:showpageshadow="2"
     inkscape:pageopacity="0.0"
     inkscape:pagecheckerboard="0"
     inkscape:deskcolor="#d1d1d1"
     showgrid="false"
     inkscape:zoom="6.5202469"
     inkscape:cx="158.12285"
     inkscape:cy="63.877949"
     inkscape:window-width="1245"
     inkscape:window-height="835"
     inkscape:window-x="0"
     inkscape:window-y="37"
     inkscape:window-maximized="0"
     inkscape:current-layer="g140" /><g
     inkscape:groupmode="layer"
     inkscape:label="Image"
     id="g140"
     transform="translate(-893.8194,-676.79866)"><path
       id="rect4423-0-6"
       style="fill:#e4dfe6;fill-opacity:1;stroke:#e4dfe6;stroke-width:0.704693;stroke-linejoin:miter;stroke-opacity:1"
       d="m 906.19093,679.76166 -4.42392,4.04629 6.97788,6.3415 4.35398,-4.0699 z m 14.74021,0.23615 -11.78571,10.52148 4.47319,3.9979 11.59367,-10.60378 z m -19.68194,4.28871 -6.90773,6.31809 4.42392,4.04629 7.02487,-6.38826 z m 24.62346,0.0983 -4.61596,3.88169 7.09976,6.4827 4.42413,-4.04629 z"
       sodipodi:nodetypes="cccccccccccccccccccc" /><path
       id="rect4423-0-6-6"
       style="fill:#e4dfe6;fill-opacity:1;stroke:#e4dfe6;stroke-width:0.704693;stroke-linejoin:miter;stroke-opacity:1"
       d="m 921.0603,712.84077 4.42392,-4.04629 -6.97789,-6.34149 -4.35397,4.0699 z m -14.74022,-0.23615 11.78571,-10.52148 -4.47318,-3.9979 -11.59368,10.60378 z m 19.68194,-4.2887 6.90774,-6.3181 -4.42393,-4.04629 -7.02487,6.38826 z m -24.42565,-0.0624 4.41815,-3.91765 -7.09975,-6.4827 -4.42414,4.04629 z"
       sodipodi:nodetypes="cccccccccccccccccccc" /><rect
       style="fill:#974795;fill-opacity:1;stroke:#974795;stroke-width:0.706097;stroke-linejoin:miter;stroke-opacity:1"
       id="rect4423"
       width="9.3613901"
       height="5.9954963"
       x="1124.0219"
       y="-94.136406"
       transform="matrix(0.73790302,0.67490676,-0.73790302,0.67490676,0,0)" /><rect
       style="fill:#f9ad29;fill-opacity:1;stroke:#f9ad29;stroke-width:0.706097;stroke-linejoin:miter;stroke-opacity:1"
       id="rect4423-2"
       width="9.3613901"
       height="5.9954963"
       x="1140.7832"
       y="-104.04752"
       transform="matrix(0.73790302,0.67490676,-0.73790302,0.67490676,0,0)" /><rect
       style="fill:#81c170;fill-opacity:1;stroke:#81c170;stroke-width:0.706097;stroke-linejoin:miter;stroke-opacity:1"
       id="rect4423-2-6"
       width="9.3613901"
       height="5.9954963"
       x="-114.11422"
       y="-1150.141"
       transform="matrix(-0.73790302,0.67490676,-0.73790302,-0.67490676,0,0)" /><rect
       style="fill:#4e8dd3;fill-opacity:1;stroke:#4e8dd3;stroke-width:0.899848;stroke-linejoin:miter;stroke-opacity:1"
       id="rect4423-3"
       width="15.711502"
       height="5.8017445"
       x="-103.95074"
       y="-1139.9818"
       transform="matrix(-0.73790302,0.67490676,-0.73790302,-0.67490676,0,0)" /><rect
       style="fill:#23b7a7;fill-opacity:1;stroke:#23b7a7;stroke-width:0.706097;stroke-linejoin:miter;stroke-opacity:1"
       id="rect4423-0"
       width="9.3613901"
       height="5.9954963"
       x="-1141.8955"
       y="116.19286"
       transform="matrix(-0.73790302,-0.67490676,0.73790302,-0.67490676,0,0)" /><rect
       style="fill:#f1806b;fill-opacity:1;stroke:#f1806b;stroke-width:0.706097;stroke-linejoin:miter;stroke-opacity:1"
       id="rect4423-2-5"
       width="9.3613901"
       height="5.9954963"
       x="-1125.1725"
       y="106.3063"
       transform="matrix(-0.73790302,-0.67490676,0.73790302,-0.67490676,0,0)" /><rect
       style="fill:#ed6c98;fill-opacity:1;stroke:#ed6c98;stroke-width:0.706097;stroke-linejoin:miter;stroke-opacity:1"
       id="rect4423-2-6-6"
       width="9.3613901"
       height="5.9954963"
       x="96.239609"
       y="1115.8148"
       transform="matrix(0.73790302,-0.67490676,0.73790302,0.67490676,0,0)" /><rect
       style="fill:#02b7d9;fill-opacity:1;stroke:#02b7d9;stroke-width:0.899848;stroke-linejoin:miter;stroke-opacity:1"
       id="rect4423-3-7"
       width="15.711502"
       height="5.8017445"
       x="106.37791"
       y="1125.9489"
       transform="matrix(0.73790302,-0.67490676,0.73790302,0.67490676,0,0)" /></g></svg>
