<?xml version="1.0" encoding="UTF-8" standalone="no"?>
<!-- Created with Inkscape (http://www.inkscape.org/) -->

<svg
   version="1.1"
   id="svg134"
   width="206.90149"
   height="235.57555"
   viewBox="0 0 206.90149 235.57555"
   sodipodi:docname="NEWMTlogo.svg"
   xml:space="preserve"
   inkscape:export-filename="..\code\NSF code\refactored\media\NEWMTlogo.svg"
   inkscape:export-xdpi="96"
   inkscape:export-ydpi="96"
   inkscape:version="1.2.2 (732a01da63, 2022-12-09)"
   xmlns:inkscape="http://www.inkscape.org/namespaces/inkscape"
   xmlns:sodipodi="http://sodipodi.sourceforge.net/DTD/sodipodi-0.dtd"
   xmlns:xlink="http://www.w3.org/1999/xlink"
   xmlns="http://www.w3.org/2000/svg"
   xmlns:svg="http://www.w3.org/2000/svg"><defs
     id="defs138"><linearGradient
       inkscape:collect="always"
       id="linearGradient30088"><stop
         style="stop-color:#f9ad29;stop-opacity:1;"
         offset="0"
         id="stop30084" /><stop
         style="stop-color:#230543;stop-opacity:1;"
         offset="1"
         id="stop30086" /></linearGradient><inkscape:path-effect
       effect="bspline"
       id="path-effect25459"
       is_visible="true"
       lpeversion="1"
       weight="33.333333"
       steps="2"
       helper_size="0"
       apply_no_weight="true"
       apply_with_weight="true"
       only_selected="false" /><linearGradient
       inkscape:collect="always"
       xlink:href="#linearGradient30088"
       id="linearGradient30090"
       x1="202.21964"
       y1="315.76953"
       x2="233.22925"
       y2="329.65698"
       gradientUnits="userSpaceOnUse"
       gradientTransform="matrix(-4.6373728,0,0,4.9319188,1528.0934,-1489.4845)" /></defs><sodipodi:namedview
     id="namedview136"
     pagecolor="#ffffff"
     bordercolor="#000000"
     borderopacity="0.25"
     inkscape:showpageshadow="2"
     inkscape:pageopacity="0.0"
     inkscape:pagecheckerboard="0"
     inkscape:deskcolor="#d1d1d1"
     showgrid="false"
     inkscape:zoom="0.46354778"
     inkscape:cx="654.73294"
     inkscape:cy="216.80613"
     inkscape:window-width="1245"
     inkscape:window-height="1120"
     inkscape:window-x="-7"
     inkscape:window-y="0"
     inkscape:window-maximized="0"
     inkscape:current-layer="g140" /><g
     inkscape:groupmode="layer"
     inkscape:label="Image"
     id="g140"
     transform="translate(-377.79968,-128.90999)"><path
       style="fill:#230543;fill-opacity:1;stroke:#230543;stroke-width:1.09593;stroke-linecap:round;stroke-linejoin:round;stroke-dasharray:none;stroke-opacity:1"
       d="M 378.34765,362.08764 V 129.45796 l 70.29765,0.46248 56.88558,84.17218 2.31241,14.7995 v -99.43416 l 75.84745,1.38745 0.46249,233.09215 -72.61006,-0.46248 -56.42309,-87.87204 -0.92497,-14.33702 -0.46249,102.20906 z"
       id="path1031"
       inkscape:export-filename="N.svg"
       inkscape:export-xdpi="96"
       inkscape:export-ydpi="96" /><path
       style="fill:url(#linearGradient30090);fill-opacity:1;stroke:none;stroke-width:3.05593;stroke-linecap:round;stroke-linejoin:round;stroke-dasharray:none;stroke-opacity:1"
       d="m 331.85299,108.03887 c 4.86436,-5.56299 9.87509,-13.713203 16.50593,-20.140603 6.63084,-6.4274 14.88365,-11.129363 24.24236,-13.795312 9.35871,-2.665949 19.82208,-3.292863 31.24487,-1.412602 11.42279,1.880262 23.80196,6.268747 37.21285,10.265578 13.41088,3.99683 27.85327,7.601657 38.53803,10.344515 10.68477,2.742857 17.61118,4.62362 28.00029,5.251077 10.38912,0.627457 24.24203,5.42e-4 35.22115,-1.33114 10.97913,-1.331683 19.0845,-3.369191 26.45341,-6.972794 7.36892,-3.603604 14.00059,-8.775717 18.49628,-13.085244 4.49569,-4.309527 6.85365,-7.757643 8.25485,-10.343653 1.40121,-2.58601 1.84334,-4.310088 -0.29557,-4.782716 -2.13891,-0.472628 -6.85477,0.311026 -9.80066,2.351098 -2.94588,2.040071 -4.12484,5.331421 -5.74726,8.073857 -1.62242,2.742437 -3.6856,4.936658 -7.66516,6.658868 -3.97956,1.722211 -9.87439,2.976056 -21.51666,3.36725 -11.64228,0.391194 -29.03207,-0.079 -43.3996,-3.527556 C 493.23056,75.51094 481.883,69.08496 469.50299,63.128904 457.12297,57.172847 443.71219,51.687238 431.47966,47.377038 c -12.23254,-4.310199 -23.28535,-7.444821 -33.89715,-9.168552 -10.61179,-1.723731 -20.78039,-2.037195 -32.57105,0.0798 -11.79067,2.116996 -25.20142,6.662203 -35.7383,12.77636 -10.53688,6.114158 -18.2002,13.794022 -24.02065,21.396225 -5.82045,7.602202 -9.79948,15.125328 -13.63064,24.686289 -3.83116,9.560958 -7.51542,21.159078 -7.66131,30.483048 -0.14589,9.32398 3.24363,16.37687 8.76692,17.63127 5.52329,1.2544 13.18657,-3.29081 17.68366,-8.54031 4.49709,-5.24949 5.82342,-11.20528 8.84249,-15.67334 3.01908,-4.46805 7.73499,-7.44597 12.59936,-13.00896 z"
       id="path25457"
       inkscape:path-effect="#path-effect25459"
       inkscape:original-d="m 331.71012,110.62041 c 5.00608,-8.14524 10.01681,-16.29545 15.03217,-24.45062 8.24844,-4.69722 16.50126,-9.39916 24.75886,-14.10614 10.45912,-0.622 20.92249,-1.24889 31.3907,-1.88078 12.37501,4.3936 24.75419,8.78207 37.13824,13.16571 14.43836,3.60992 28.88075,7.21472 43.32802,10.8147 6.92212,1.88579 13.84853,3.76656 20.77972,5.64242 13.84882,-0.62202 27.70173,-1.2489 41.55952,-1.88078 8.10113,-2.0327 16.20651,-4.07017 24.31673,-6.11268 6.62738,-5.16741 13.25902,-10.33956 19.89552,-15.51674 2.3534,-3.44326 4.71134,-6.89139 7.07396,-10.34446 0.4373,-1.71922 0.87962,-3.44325 1.3264,-5.17227 -4.72075,0.78864 -9.43662,1.57228 -14.14795,2.35102 -1.18364,3.29645 -2.3626,6.5878 -3.53697,9.87429 -2.06793,2.1993 -4.13112,4.39351 -6.18974,6.58288 -5.8997,1.25881 -11.79453,2.51266 -17.6849,3.76162 -17.39512,-0.46507 -34.78491,-0.93548 -52.17044,-1.41062 -11.35263,-6.42131 -22.70019,-12.84729 -34.04344,-19.27837 -13.41594,-5.4809 -26.82673,-10.96648 -40.2331,-16.45714 -11.05794,-3.12983 -22.11075,-6.26446 -33.15919,-9.40408 -10.17366,-0.30875 -20.34227,-0.622 -30.50643,-0.94041 -13.41599,4.55032 -26.82674,9.09555 -40.23316,13.63592 -7.66819,7.6851 -15.33153,15.36494 -22.99033,23.03998 -3.98383,7.52838 -7.96289,15.05149 -11.93732,22.56981 -3.68906,11.60357 -7.37336,23.20167 -11.05304,34.79513 3.38503,7.05813 6.77451,14.11104 10.1688,21.15917 7.65897,-4.54049 15.32226,-9.08568 22.99035,-13.63593 1.32177,-5.95111 2.64815,-11.90689 3.97909,-17.86775 4.71144,-2.97305 9.42733,-5.951 14.14793,-8.93388 z" /></g></svg>
