<?xml version="1.0" encoding="UTF-8" standalone="no"?>
<!-- Created with Inkscape (http://www.inkscape.org/) -->

<svg
   version="1.1"
   id="svg134"
   width="559.37756"
   height="615.82898"
   viewBox="0 0 559.37756 615.82898"
   sodipodi:docname="NEWMThomepage.svg"
   xml:space="preserve"
   inkscape:export-filename="..\code\NSF code\refactored\media\NEWMTlogo.svg"
   inkscape:export-xdpi="96"
   inkscape:export-ydpi="96"
   inkscape:version="1.2.2 (b0a8486, 2022-12-01)"
   xmlns:inkscape="http://www.inkscape.org/namespaces/inkscape"
   xmlns:sodipodi="http://sodipodi.sourceforge.net/DTD/sodipodi-0.dtd"
   xmlns:xlink="http://www.w3.org/1999/xlink"
   xmlns="http://www.w3.org/2000/svg"
   xmlns:svg="http://www.w3.org/2000/svg"><defs
     id="defs138"><linearGradient
       inkscape:collect="always"
       id="linearGradient41520"><stop
         style="stop-color:#f9ad29;stop-opacity:1;"
         offset="0"
         id="stop41516" /><stop
         style="stop-color:#230543;stop-opacity:0.20754717;"
         offset="1"
         id="stop41518" /></linearGradient><linearGradient
       inkscape:collect="always"
       id="linearGradient38406"><stop
         style="stop-color:#f9ad29;stop-opacity:1;"
         offset="0"
         id="stop38402" /><stop
         style="stop-color:#230543;stop-opacity:0;"
         offset="1"
         id="stop38404" /></linearGradient><linearGradient
       inkscape:collect="always"
       id="linearGradient30088"><stop
         style="stop-color:#f9ad29;stop-opacity:1;"
         offset="0"
         id="stop30084" /><stop
         style="stop-color:#230543;stop-opacity:1;"
         offset="1"
         id="stop30086" /></linearGradient><inkscape:path-effect
       effect="bspline"
       id="path-effect30004"
       is_visible="true"
       lpeversion="1"
       weight="33.333333"
       steps="2"
       helper_size="0"
       apply_no_weight="true"
       apply_with_weight="true"
       only_selected="false" /><inkscape:path-effect
       effect="bspline"
       id="path-effect25834"
       is_visible="true"
       lpeversion="1"
       weight="33.333333"
       steps="2"
       helper_size="0"
       apply_no_weight="true"
       apply_with_weight="true"
       only_selected="false" /><linearGradient
       inkscape:collect="always"
       id="linearGradient25774"><stop
         style="stop-color:#f9ad29;stop-opacity:1;"
         offset="0"
         id="stop25770" /><stop
         style="stop-color:#230543;stop-opacity:1;"
         offset="1"
         id="stop25772" /></linearGradient><linearGradient
       inkscape:collect="always"
       id="linearGradient25766"><stop
         style="stop-color:#f9ad29;stop-opacity:1;"
         offset="0"
         id="stop25762" /><stop
         style="stop-color:#230543;stop-opacity:1;"
         offset="1"
         id="stop25764" /></linearGradient><linearGradient
       inkscape:collect="always"
       id="linearGradient25694"><stop
         style="stop-color:#f9ad29;stop-opacity:1;"
         offset="0"
         id="stop25690" /><stop
         style="stop-color:#230543;stop-opacity:1;"
         offset="1"
         id="stop25692" /></linearGradient><inkscape:path-effect
       effect="bspline"
       id="path-effect25537"
       is_visible="true"
       lpeversion="1"
       weight="33.333333"
       steps="2"
       helper_size="0"
       apply_no_weight="true"
       apply_with_weight="true"
       only_selected="false" /><inkscape:path-effect
       effect="bspline"
       id="path-effect25529"
       is_visible="true"
       lpeversion="1"
       weight="33.333333"
       steps="2"
       helper_size="0"
       apply_no_weight="true"
       apply_with_weight="true"
       only_selected="false" /><inkscape:path-effect
       effect="bspline"
       id="path-effect25525"
       is_visible="true"
       lpeversion="1"
       weight="33.333333"
       steps="2"
       helper_size="0"
       apply_no_weight="true"
       apply_with_weight="true"
       only_selected="false" /><inkscape:path-effect
       effect="bspline"
       id="path-effect25467"
       is_visible="true"
       lpeversion="1"
       weight="33.333333"
       steps="2"
       helper_size="0"
       apply_no_weight="true"
       apply_with_weight="true"
       only_selected="false" /><inkscape:path-effect
       effect="bspline"
       id="path-effect25463"
       is_visible="true"
       lpeversion="1"
       weight="33.333333"
       steps="2"
       helper_size="0"
       apply_no_weight="true"
       apply_with_weight="true"
       only_selected="false" /><inkscape:path-effect
       effect="bspline"
       id="path-effect25459"
       is_visible="true"
       lpeversion="1"
       weight="33.333333"
       steps="2"
       helper_size="0"
       apply_no_weight="true"
       apply_with_weight="true"
       only_selected="false" /><inkscape:path-effect
       effect="bspline"
       id="path-effect25455"
       is_visible="true"
       lpeversion="1"
       weight="33.333333"
       steps="2"
       helper_size="0"
       apply_no_weight="true"
       apply_with_weight="true"
       only_selected="false" /><linearGradient
       inkscape:collect="always"
       xlink:href="#linearGradient25694"
       id="linearGradient25696"
       x1="262.23795"
       y1="307.20422"
       x2="266.74237"
       y2="316.01297"
       gradientUnits="userSpaceOnUse"
       gradientTransform="matrix(0.17792813,8.0786183,8.5917375,-0.18922923,-3731.834,235.41832)" /><linearGradient
       inkscape:collect="always"
       xlink:href="#linearGradient25766"
       id="linearGradient25768"
       x1="257.65363"
       y1="306.33615"
       x2="258.80389"
       y2="313.24582"
       gradientUnits="userSpaceOnUse"
       gradientTransform="matrix(0.17792813,8.0786183,8.5917375,-0.18922923,-3731.834,235.41832)" /><linearGradient
       inkscape:collect="always"
       xlink:href="#linearGradient25774"
       id="linearGradient25776"
       x1="273.78024"
       y1="329.08801"
       x2="272.08121"
       y2="336.29617"
       gradientUnits="userSpaceOnUse"
       gradientTransform="matrix(0.17792813,8.0786183,8.5917375,-0.18922923,-3731.834,235.41832)" /><linearGradient
       inkscape:collect="always"
       xlink:href="#linearGradient30088"
       id="linearGradient30090"
       x1="202.21964"
       y1="315.76953"
       x2="229.3344"
       y2="332.71567"
       gradientUnits="userSpaceOnUse"
       gradientTransform="matrix(0.17792813,8.0786183,8.5917375,-0.18922923,-3730.4221,226.81064)" /><linearGradient
       inkscape:collect="always"
       xlink:href="#linearGradient38406"
       id="linearGradient38408"
       x1="359.59241"
       y1="297.88901"
       x2="353.75195"
       y2="301.89325"
       gradientUnits="userSpaceOnUse"
       gradientTransform="matrix(3.6761594,6.2201247e-8,-2.7846368e-8,3.6161201,-3621.6057,-1812.1384)" /><linearGradient
       inkscape:collect="always"
       xlink:href="#linearGradient38406"
       id="linearGradient39169"
       gradientUnits="userSpaceOnUse"
       x1="359.59241"
       y1="297.88901"
       x2="353.75195"
       y2="301.89325"
       gradientTransform="matrix(4.6326826,-6.4018806e-8,-3.9518282e-8,7.8370931,-4004.6361,-2940.154)" /><linearGradient
       inkscape:collect="always"
       xlink:href="#linearGradient38406"
       id="linearGradient39205"
       gradientUnits="userSpaceOnUse"
       gradientTransform="matrix(3.67442,-6.6431493e-8,-6.5885124e-8,4.712222,-3732.2055,-1937.2758)"
       x1="359.59241"
       y1="297.88901"
       x2="353.75195"
       y2="301.89325" /><linearGradient
       inkscape:collect="always"
       xlink:href="#linearGradient38406"
       id="linearGradient39169-0"
       gradientUnits="userSpaceOnUse"
       x1="359.59241"
       y1="297.88901"
       x2="353.75195"
       y2="301.89325"
       gradientTransform="matrix(3.6761594,6.2201247e-8,-2.7846368e-8,3.6161201,-3663.872,-1817.1459)" /><linearGradient
       inkscape:collect="always"
       xlink:href="#linearGradient38406"
       id="linearGradient39263"
       gradientUnits="userSpaceOnUse"
       gradientTransform="matrix(2.5816596,0,-2.3033269e-8,2.9910924,-3242.0033,-1646.9775)"
       x1="359.59241"
       y1="297.88901"
       x2="353.75195"
       y2="301.89325" /><linearGradient
       inkscape:collect="always"
       xlink:href="#linearGradient38406"
       id="linearGradient39299"
       gradientUnits="userSpaceOnUse"
       gradientTransform="matrix(3.6748164,-2.7212932e-8,-4.5154179e-8,3.6174854,-3684.8503,-1684.9446)"
       x1="359.59241"
       y1="297.88901"
       x2="353.75195"
       y2="301.89325" /><linearGradient
       inkscape:collect="always"
       xlink:href="#linearGradient41520"
       id="linearGradient41513"
       gradientUnits="userSpaceOnUse"
       gradientTransform="matrix(2.5816596,0,-2.3033269e-8,2.9910924,-3250.01,-1591.2499)"
       x1="359.59241"
       y1="297.88901"
       x2="353.75195"
       y2="301.89325" /><linearGradient
       inkscape:collect="always"
       xlink:href="#linearGradient41520"
       id="linearGradient41555"
       gradientUnits="userSpaceOnUse"
       gradientTransform="matrix(2.5816595,0,0,2.9910923,-2264.0384,1071.0185)"
       x1="359.59241"
       y1="297.88901"
       x2="353.75195"
       y2="301.89325" /><linearGradient
       inkscape:collect="always"
       xlink:href="#linearGradient41520"
       id="linearGradient41591"
       gradientUnits="userSpaceOnUse"
       gradientTransform="matrix(1.9800392,1.1265563e-8,0,2.4507513,-1201.0521,1527.2066)"
       x1="359.59241"
       y1="297.88901"
       x2="353.75195"
       y2="301.89325" /><linearGradient
       inkscape:collect="always"
       xlink:href="#linearGradient41520"
       id="linearGradient41650"
       gradientUnits="userSpaceOnUse"
       gradientTransform="matrix(1.9800393,0,-2.2043341e-8,2.4507513,-1981.4601,1318.0836)"
       x1="359.59241"
       y1="297.88901"
       x2="353.75195"
       y2="301.89325" /><linearGradient
       inkscape:collect="always"
       xlink:href="#linearGradient41520"
       id="linearGradient41686"
       gradientUnits="userSpaceOnUse"
       gradientTransform="matrix(1.6556193,0,0,2.1891649,-2131.7851,1247.4923)"
       x1="359.59241"
       y1="297.88901"
       x2="353.75195"
       y2="301.89325" /></defs><sodipodi:namedview
     id="namedview136"
     pagecolor="#ffffff"
     bordercolor="#000000"
     borderopacity="0.25"
     inkscape:showpageshadow="2"
     inkscape:pageopacity="0.0"
     inkscape:pagecheckerboard="0"
     inkscape:deskcolor="#d1d1d1"
     showgrid="false"
     inkscape:zoom="0.25914268"
     inkscape:cx="538.31348"
     inkscape:cy="1055.4031"
     inkscape:window-width="1470"
     inkscape:window-height="801"
     inkscape:window-x="0"
     inkscape:window-y="37"
     inkscape:window-maximized="0"
     inkscape:current-layer="g140" /><g
     inkscape:groupmode="layer"
     inkscape:label="Image"
     id="g140"
     transform="translate(1052.0278,-1788.8949)"><path
       style="fill:#230543;fill-opacity:1;stroke:none;stroke-width:5.32492;stroke-linecap:round;stroke-linejoin:round;stroke-dasharray:none;stroke-opacity:1"
       d="m -823.33575,2269.5277 c 12.68418,-13.5084 29.33328,-7.9673 40.47563,-1.2102 11.14234,6.7572 16.78107,14.7238 32.21564,17.7823 15.43458,3.0585 40.66224,1.2186 58.71906,-3.6105 18.05682,-4.8291 28.94805,-12.6462 36.23848,-19.5478 7.29043,-6.9016 10.98294,-12.8907 15.09113,-18.6329 4.10819,-5.7422 8.63096,-11.2358 17.52228,-16.9553 8.89132,-5.7195 22.14577,-11.6622 31.05554,-13.4601 8.90978,-1.7979 13.46853,0.5417 16.17267,11.914 2.70415,11.3724 3.56323,31.7735 6.61717,43.0705 3.05394,11.2969 8.29243,13.4932 10.46916,16.464 2.17674,2.9709 1.30314,6.7142 -4.03008,9.3328 -5.33323,2.6186 -15.13432,4.1187 -28.67327,6.4717 -13.53895,2.3531 -30.81467,5.559 -48.32172,13.9074 -17.50705,8.3483 -35.23904,21.8385 -50.26331,31.0951 -15.02426,9.2565 -27.34284,14.2796 -41.37398,15.8745 -14.03115,1.5949 -29.77886,-0.2415 -50.39901,-3.1264 -20.62016,-2.8849 -46.11149,-6.8184 -54.50918,-25.0618 -8.39768,-18.2434 0.30961,-50.7988 12.99379,-64.3073 z"
       id="path25453"
       inkscape:path-effect="#path-effect25455"
       inkscape:original-d="m -827.31105,2250.4748 c 16.65795,5.5491 33.30707,11.0901 49.94745,16.6232 5.64789,7.9752 11.28667,15.9418 16.91688,23.9009 25.23743,-1.8322 50.4651,-3.672 75.68445,-5.5199 10.90045,-7.8094 21.79161,-15.6266 32.67427,-23.4517 3.70142,-5.9813 7.39386,-11.9704 11.07759,-17.9673 4.53189,-5.4861 9.05475,-10.9796 13.56888,-16.4814 13.26382,-5.9348 26.5182,-11.8776 39.76411,-17.8283 4.56781,2.3477 9.12657,4.6873 13.67678,7.0191 0.86812,20.4098 1.72666,40.811 2.5773,61.2044 5.24756,2.2045 10.4861,4.4007 15.71614,6.5892 -0.86499,3.7519 -1.73858,7.4952 -2.62106,11.2311 -9.79273,1.5076 -19.5938,3.0078 -29.40375,4.5004 -17.26753,3.2142 -34.54327,6.42 -51.82804,9.618 -17.72401,13.4987 -35.45604,26.9888 -53.19722,40.4714 -12.31034,5.0312 -24.62889,10.0543 -36.95659,15.0695 -15.73944,-1.8285 -31.48715,-3.6649 -47.24395,-5.5093 -25.48369,-3.9258 -50.975,-7.8595 -76.47571,-11.8008 8.71641,-32.549 17.42375,-65.1044 26.12247,-97.6685 z"
       inkscape:export-filename="Newton.svg"
       inkscape:export-xdpi="96"
       inkscape:export-ydpi="96" /><path
       style="fill:url(#linearGradient25768);fill-opacity:1;stroke:none;stroke-width:5.32492;stroke-linecap:round;stroke-linejoin:round;stroke-dasharray:none;stroke-opacity:1"
       d="m -1016.4734,2237.186 c -4.3301,-3.627 -9.4619,-8.5996 -14.9109,-10.3916 -5.449,-1.792 -11.2131,-0.3936 -14.9584,0.5968 -3.7454,0.9905 -5.4711,1.5734 -5.6667,5.9423 -0.1956,4.369 1.1427,12.5125 5.0634,19.3274 3.9207,6.8149 10.4157,12.3021 16.7891,16.6104 6.3734,4.3083 12.6234,7.4398 19.4162,8.9222 6.7927,1.4824 14.12927,1.3208 22.49857,-0.1357 8.36929,-1.4565 17.77365,-4.2064 20.37545,-8.2989 2.60179,-4.0926 -1.59996,-9.5385 -7.42377,-12.4992 -5.82381,-2.9608 -13.27147,-3.4276 -18.50896,-4.9893 -5.2375,-1.5617 -8.26389,-4.2253 -11.54019,-6.6996 -3.2764,-2.4743 -6.8037,-4.7577 -11.1338,-8.3848 z"
       id="path25535"
       inkscape:path-effect="#path-effect25537"
       inkscape:original-d="m -1015.6803,2238.5233 c -5.123,-4.9645 -10.2548,-9.9371 -15.3953,-14.9177 -5.7554,1.4063 -11.5195,2.8047 -17.2924,4.1951 -1.7164,0.5918 -3.4426,1.1734 -5.1769,1.7486 1.3472,8.152 2.6855,16.2955 4.0151,24.4313 6.5042,5.4956 12.9993,10.9826 19.4858,16.4622 6.259,3.1397 12.5091,6.2711 18.7505,9.3948 7.3457,-0.1528 14.68227,-0.3143 22.0101,-0.4846 9.41339,-2.742 18.81772,-5.492 28.21336,-8.2497 -4.19311,-5.4383 -8.39486,-10.8842 -12.60555,-16.3381 -7.43916,-0.4584 -14.8868,-0.9256 -22.34368,-1.4005 -3.01777,-2.6558 -6.04413,-5.3194 -9.07933,-7.9911 -3.5185,-2.2754 -7.0457,-4.559 -10.5817,-6.8503 z"
       sodipodi:nodetypes="ccccccccccccc" /><path
       style="fill:url(#linearGradient30090);fill-opacity:1;stroke:none;stroke-width:5.32492;stroke-linecap:round;stroke-linejoin:round;stroke-dasharray:none;stroke-opacity:1"
       d="m -901.53018,2249.4485 c -9.87773,-8.2606 -24.26825,-16.6769 -35.71966,-27.9817 -11.45141,-11.3048 -19.95907,-25.5012 -24.96243,-41.7024 -5.00335,-16.2012 -6.49693,-34.405 -3.65966,-54.3765 2.83728,-19.9714 10.00735,-41.7052 16.45553,-65.2212 6.44819,-23.516 12.17392,-48.814 16.54221,-67.5327 4.36829,-18.7188 7.37897,-30.8572 8.07342,-48.9799 0.69445,-18.1228 -0.92918,-42.2312 -3.6703,-61.3066 -2.74113,-19.0753 -6.60162,-33.1173 -13.16204,-45.8162 -6.56043,-12.6989 -15.82514,-24.0534 -23.50511,-31.7198 -7.67997,-7.6664 -13.77733,-11.6418 -18.33608,-13.9835 -4.55874,-2.3418 -7.57919,-3.0459 -8.32046,0.6984 -0.74127,3.7442 0.80486,11.9295 4.47181,16.9832 3.66696,5.0536 9.44589,6.9811 14.28569,9.7023 4.8398,2.7211 8.74136,6.2311 11.89429,13.0976 3.15293,6.8666 5.56338,17.0877 6.69156,37.3544 1.12817,20.2666 0.97628,50.5791 -4.48006,75.7406 -5.45635,25.1615 -16.2154,45.1762 -26.11625,66.9715 -9.90086,21.7954 -18.94268,45.3685 -25.98208,66.8438 -7.0393,21.4754 -12.0759,40.8503 -14.6716,59.4028 -2.5957,18.5525 -2.7516,36.2791 1.3887,56.7379 4.1404,20.4589 12.5729,43.6467 23.6285,61.7681 11.05557,18.1215 24.72836,31.1768 38.19529,41.0248 13.46693,9.8481 26.72533,16.4912 43.52815,22.7984 16.80282,6.3073 37.14895,12.2806 53.39757,12.1769 16.24861,-0.1036 28.40519,-6.279 30.37854,-15.9491 1.97334,-9.67 -6.23866,-22.8454 -15.55625,-30.4784 -9.31759,-7.6329 -19.74392,-9.715 -27.64338,-14.8029 -7.89946,-5.0879 -13.26816,-13.1892 -23.1459,-21.4498 z"
       id="path25457"
       inkscape:path-effect="#path-effect25459"
       inkscape:original-d="m -897.02752,2249.5983 c -14.38162,-8.4083 -28.7721,-16.8247 -43.1714,-25.2489 -8.49937,-14.1892 -17.00709,-28.3855 -25.52377,-42.5903 -1.48486,-18.1966 -2.97841,-36.4004 -4.48082,-54.6125 7.17914,-21.7267 14.34917,-43.4605 21.5106,-65.2025 5.73475,-25.2911 11.46043,-50.5891 17.17752,-75.8953 3.01958,-12.1311 6.03027,-24.2695 9.03223,-36.416 -1.615,-24.102 -3.23857,-48.2105 -4.87104,-72.3277 -3.85193,-14.0346 -7.71233,-28.0766 -11.5817,-42.1268 -9.25623,-11.347 -18.52096,-22.7015 -27.79458,-34.0641 -6.08868,-3.9676 -12.18603,-7.943 -18.29215,-11.9262 -3.01178,-0.6959 -6.03213,-1.4004 -9.06135,-2.1123 1.555,8.1936 3.10108,16.3789 4.6385,24.5565 5.78803,1.9354 11.567,3.8628 17.33737,5.7827 3.91067,3.5181 7.81226,7.028 11.70532,10.5304 2.41927,10.2293 4.82974,20.4504 7.23149,30.6639 -0.15028,30.3213 -0.295,60.6338 -0.45568,90.9387 -10.75075,20.0235 -21.50987,40.0382 -32.278,60.0458 -9.03339,23.5816 -18.07502,47.1548 -27.12582,70.7201 -5.0281,19.384 -10.0647,38.7589 -15.1103,58.1266 -0.1475,17.7348 -0.3031,35.4614 -0.4678,53.1801 8.4417,23.197 16.8743,46.3848 25.2984,69.5656 13.68215,13.0637 27.35497,26.119 41.01934,39.1669 13.26776,6.6513 26.5262,13.2943 39.77614,19.9297 20.35568,5.9812 40.70176,11.9546 61.03956,17.92 12.16587,-6.1678 24.32246,-12.3432 36.47055,-18.5267 -8.20371,-13.1681 -16.41574,-26.3435 -24.63685,-39.5276 -10.41793,-2.0741 -20.84421,-4.1564 -31.27948,-6.2462 -5.36,-8.0935 -10.72874,-16.1947 -16.10628,-24.3039 z"
       sodipodi:nodetypes="ccccccccccccccccccccccccccccc" /><path
       style="fill:#230543;fill-opacity:1;stroke:none;stroke-width:5.32492;stroke-linecap:round;stroke-linejoin:round;stroke-dasharray:none;stroke-opacity:1"
       d="m -798.23373,2261.7199 c -8.42208,-4.1182 -21.65803,-9.7343 -35.58927,-12.7687 -13.93123,-3.0344 -28.55561,-3.4829 -38.77607,-2.2957 -10.22046,1.1872 -16.03141,4.0122 -22.10495,4.085 -6.07354,0.073 -12.41567,-2.6131 -19.87709,-6.4936 -7.46142,-3.8805 -16.0415,-8.9571 -22.94944,-12.5304 -6.90795,-3.5733 -12.14376,-5.6413 -16.03806,-2.3443 -3.8943,3.2969 -6.43518,11.9573 -4.98972,24.7713 1.44545,12.8139 6.87261,29.7751 9.92191,41.1379 3.0493,11.3627 3.72259,17.127 8.8652,24.0771 5.14261,6.9501 14.7461,15.0863 26.72787,23.6128 11.98178,8.5265 26.33987,17.4439 42.60851,22.5835 16.26864,5.1395 34.44633,6.506 49.34966,6.0437 14.90333,-0.4624 26.53272,-2.7513 36.60128,-5.8411 10.06857,-3.0898 18.57805,-6.9795 26.48878,-13.3705 7.91073,-6.391 15.22708,-15.2854 12.45962,-26.3939 -2.76746,-11.1085 -15.62682,-24.4385 -23.48713,-33.9612 -7.8603,-9.5227 -10.71794,-15.2391 -13.949,-19.4076 -3.23105,-4.1685 -6.84001,-6.7862 -15.2621,-10.9043 z"
       id="path25461"
       inkscape:path-effect="#path-effect25463"
       inkscape:original-d="m -793.42998,2263.2136 c -13.2273,-5.6084 -26.46336,-11.2243 -39.70819,-16.8486 -14.6163,-0.4403 -29.24067,-0.8892 -43.87427,-1.3454 -5.80239,2.8328 -11.61329,5.6579 -17.43307,8.4751 -6.33354,-2.678 -12.67565,-5.3638 -19.02656,-8.0574 -8.57165,-5.0689 -17.15172,-10.1455 -25.74077,-15.2301 -5.22723,-2.06 -10.46299,-4.1281 -15.70758,-6.204 -2.53225,8.6689 -5.07323,17.3293 -7.623,25.9825 5.4363,16.9699 10.8634,33.9311 16.28192,50.8849 0.68248,5.7726 1.35539,11.5369 2.01998,17.2937 9.6127,8.1445 19.21626,16.2807 28.81115,24.4094 14.36773,8.9258 28.72585,17.8432 43.07605,26.7534 18.1876,1.3742 36.36527,2.7408 54.53544,4.0995 11.63885,-2.2812 23.26825,-4.5701 34.88945,-6.8671 8.51852,-3.8822 17.02812,-7.7717 25.52891,-11.6695 7.32539,-8.8865 14.6416,-17.781 21.94925,-26.6834 -12.85113,-13.3226 -25.71053,-26.6526 -38.57889,-39.9909 -2.84903,-5.7085 -5.70659,-11.4249 -8.57297,-17.1492 -3.60029,-2.6098 -7.20913,-5.2276 -10.82685,-7.8529 z"
       sodipodi:nodetypes="ccccccccccccccccccc" /><path
       style="fill:#e6e4df;fill-opacity:1;stroke:none;stroke-width:5.32492;stroke-linecap:round;stroke-linejoin:round;stroke-dasharray:none;stroke-opacity:1"
       d="m -530.26865,2208.4218 c 1.29012,-0.4776 3.86504,-1.4309 7.38927,0.36 3.52423,1.7909 7.99472,6.3158 9.98767,10.188 1.99296,3.8722 1.51757,7.0932 -1.74218,7.6774 -3.25976,0.5843 -9.31461,-1.4657 -13.68479,-4.4489 -4.37017,-2.9832 -7.05164,-6.9053 -7.30946,-9.2813 -0.25782,-2.376 1.90966,-3.1944 2.99076,-3.6027 1.08109,-0.4082 1.07862,-0.4149 2.36873,-0.8925 z"
       id="path25832"
       inkscape:path-effect="#path-effect25834"
       inkscape:original-d="m -531.55876,2208.8994 c 2.5842,-0.9445 5.15715,-1.9031 7.72498,-2.8599 4.47923,4.5326 8.94957,9.0577 13.41141,13.5748 -0.46701,3.2291 -0.94213,6.4501 -1.42629,9.6638 -6.04642,-2.0424 -12.10129,-4.0923 -18.16497,-6.15 -2.67287,-3.9146 -5.35435,-7.8367 -8.0447,-11.7668 2.17622,-0.8101 4.34089,-1.636 6.50204,-2.4552 z" /><path
       style="fill:#230543;fill-opacity:1;stroke:none;stroke-width:5.37038;stroke-linecap:round;stroke-linejoin:round;stroke-dasharray:none;stroke-opacity:1"
       d="m -586.42911,2213.3773 c 9.48272,-0.5343 23.01842,0.082 30.76624,-1.3941 7.74782,-1.4761 9.71793,-5.0465 12.83633,-6.3561 3.1184,-1.3096 7.37349,-0.3583 10.0197,2.1345 2.64621,2.4927 3.69098,6.5191 9.37135,9.9831 5.68037,3.464 15.98825,6.3721 22.4287,10.5446 6.44046,4.1725 9.0186,9.6022 8.21369,16.6052 -0.8049,7.0029 -4.98655,15.5859 -11.99101,23.0533 -7.00445,7.4675 -16.83523,13.8236 -26.90255,18.6827 -10.06733,4.859 -20.37374,8.2211 -30.03771,9.6761 -9.66396,1.455 -18.68858,1.0006 -29.08849,0.1196 -10.39991,-0.881 -22.17514,-2.1892 -27.57529,-5.2684 -5.40015,-3.0792 -4.41443,-7.9341 -2.49183,-13.6603 1.92259,-5.7262 4.78212,-12.3204 8.1389,-18.0784 3.35678,-5.758 7.20941,-10.676 9.51612,-14.4476 2.30671,-3.7716 3.0684,-6.4012 2.27561,-8.5381 -0.7928,-2.1369 -3.15107,-3.7832 -4.38522,-6.8905 -1.23414,-3.1073 -1.3348,-7.6773 1.33083,-10.8108 2.66562,-3.1335 8.09191,-4.8205 17.57463,-5.3548 z"
       id="path25465"
       inkscape:path-effect="#path-effect25467"
       inkscape:original-d="m -590.49124,2212.2263 c 13.54451,0.6243 27.08021,1.2405 40.60726,1.849 1.97898,-3.5627 3.94906,-7.1331 5.91047,-10.7114 4.26405,0.9595 8.51919,1.9106 12.76551,2.854 1.05361,4.0348 2.09841,8.0612 3.13446,12.0798 10.31701,2.916 20.6249,5.824 30.92428,8.7243 2.58696,5.4379 5.16517,10.8676 7.73447,16.2893 -4.17303,8.5911 -8.35477,17.174 -12.54524,25.7494 -9.82233,6.3642 -19.65302,12.7204 -29.49266,19.0684 -10.29805,3.3704 -20.60443,6.7326 -30.91983,10.0865 -9.01624,-0.4455 -18.04081,-0.9008 -27.07438,-1.3633 -11.76667,-1.2999 -23.54186,-2.6084 -35.32597,-3.9245 0.99453,-4.8472 1.98027,-9.7021 2.95729,-14.5653 2.86847,-6.5867 5.72815,-13.1809 8.57904,-19.7838 3.86162,-4.9102 7.71421,-9.8283 11.55815,-14.7545 0.77002,-2.6214 1.53193,-5.251 2.28487,-7.8882 -2.34956,-1.6382 -4.7078,-3.2845 -7.07471,-4.9387 -0.0918,-4.5619 -0.19242,-9.1319 -0.30198,-13.7099 5.43518,-1.6789 10.86138,-3.3662 16.27897,-5.0611 z" /><path
       style="fill:url(#linearGradient25696);fill-opacity:1;stroke:none;stroke-width:5.32492;stroke-linecap:round;stroke-linejoin:round;stroke-dasharray:none;stroke-opacity:1"
       d="m -904.02428,2330.6006 c -13.76143,2.211 -24.57351,2.4491 -35.24757,0.1439 -10.67407,-2.3053 -21.21157,-7.1588 -31.77376,-13.1008 -10.56218,-5.9419 -21.14763,-12.9737 -32.37499,-18.4492 -11.2273,-5.4755 -23.0964,-9.3915 -30.8659,-11.3108 -7.7696,-1.9194 -11.438,-1.8387 -13.8727,1.8506 -2.4348,3.6892 -3.6264,10.9807 -1.0271,19.1893 2.5992,8.2085 8.9812,17.3307 17.9476,25.3048 8.9664,7.974 20.5132,14.8031 30.3552,18.7615 9.84194,3.9585 17.97867,5.0507 36.2416,5.465 18.26292,0.4144 46.65173,0.1523 66.83984,0.2528 20.18811,0.1004 32.17428,0.5629 37.63117,-5.8195 5.45689,-6.3825 4.39276,-19.6177 -4.49321,-24.1492 -8.88597,-4.5315 -25.59874,-0.3493 -39.36018,1.8616 z"
       id="path25523"
       inkscape:path-effect="#path-effect25525"
       inkscape:original-d="m -906.98237,2332.5736 c -10.80315,0.2467 -21.61523,0.4846 -32.43585,0.7145 -10.52919,-4.8457 -21.06671,-9.6991 -31.6133,-14.5607 -10.57716,-7.0243 -21.16264,-14.056 -31.75708,-21.0957 -11.8607,-3.9084 -23.7298,-7.8243 -35.6077,-11.748 -3.6596,0.09 -7.328,0.17 -11.0051,0.2423 -1.1828,7.2991 -2.3743,14.5906 -3.5747,21.874 6.3912,9.1306 12.7731,18.2528 19.1466,27.3673 11.556,6.8371 23.1029,13.6661 34.6412,20.4875 8.14586,1.1001 16.28262,2.1921 24.41075,3.2767 28.39864,-0.2547 56.78745,-0.5163 85.16801,-0.7863 11.99529,0.4706 23.98147,0.9329 35.95903,1.3876 -1.05553,-13.2277 -2.11959,-26.4629 -3.19246,-39.7061 -16.70472,4.1903 -33.41752,8.3724 -50.1394,12.5469 z"
       sodipodi:nodetypes="cccccccccccccc" /><path
       style="fill:url(#linearGradient25776);fill-opacity:1;stroke:none;stroke-width:5.32492;stroke-linecap:round;stroke-linejoin:round;stroke-dasharray:none;stroke-opacity:1"
       d="m -832.75039,2371.9312 c -9.67531,1.3415 -18.433,3.2541 -24.07653,5.395 -5.64353,2.141 -8.16676,4.5098 -8.54057,7.092 -0.37381,2.5821 1.39706,5.3666 4.99954,8.0154 3.60248,2.6489 9.03235,5.167 17.46863,7.7381 8.43629,2.5711 19.87897,5.1976 30.6607,4.4099 10.78174,-0.7876 20.90702,-4.9847 31.11615,-10.5539 10.20912,-5.5691 20.50367,-12.51 29.88617,-18.7473 9.38251,-6.2373 17.85224,-11.7706 16.74725,-15.9667 -1.105,-4.1961 -11.79161,-7.0597 -21.7547,-6.8829 -9.9631,0.1767 -19.19746,3.3986 -26.6858,6.6752 -7.48834,3.2767 -13.22779,6.608 -21.39098,8.6602 -8.16319,2.0521 -18.75455,2.8235 -28.42986,4.165 z"
       id="path25527"
       inkscape:path-effect="#path-effect25529"
       inkscape:original-d="m -833.67531,2371.3618 c -8.74843,1.9199 -17.50613,3.8324 -26.27301,5.7376 -2.51424,2.3762 -5.0375,4.745 -7.57001,7.1068 1.78022,2.7921 3.55101,5.5766 5.31265,8.3534 5.43896,2.5256 10.86878,5.0438 16.28935,7.5542 11.45215,2.634 22.89481,5.2606 34.32835,7.8797 10.13497,-4.1902 20.26034,-8.3871 30.37668,-12.5917 10.3043,-6.9338 20.59887,-13.8747 30.88443,-20.8233 8.47924,-5.526 16.94894,-11.0593 25.40958,-16.6 -10.67794,-2.8565 -21.36457,-5.72 -32.06068,-8.5909 -9.22564,3.2292 -18.45995,6.4512 -27.70389,9.6658 -5.73052,3.3388 -11.46985,6.6703 -17.21871,9.9941 -10.58254,0.7792 -21.17391,1.5505 -31.77474,2.3143 z"
       sodipodi:nodetypes="ccccccccccccc" /><path
       style="fill:#e6e4df;fill-opacity:1;stroke:none;stroke-width:5.88748;stroke-linecap:round;stroke-linejoin:round;stroke-dasharray:none;stroke-opacity:1"
       d="m -524.4984,2241.5335 c -3.18917,1.6406 -9.57168,4.924 -13.07762,9.4347 -3.50593,4.5107 -4.13021,10.2385 -1.28144,13.2436 2.84877,3.0052 9.15967,3.2947 13.98174,0.9745 4.82207,-2.3201 8.16589,-7.2507 9.86318,-11.9987 1.69729,-4.748 1.74698,-9.3204 0.42758,-11.5102 -1.3194,-2.1898 -4.01691,-1.9874 -5.37016,-1.8858 -1.35324,0.1015 -1.35412,0.1013 -4.54328,1.7419 z"
       id="path30002"
       inkscape:path-effect="#path-effect30004"
       inkscape:original-d="m -521.30924,2239.8929 c -6.37273,3.2921 -12.75528,6.5754 -19.14753,9.8501 -0.61544,5.737 -1.23899,11.4648 -1.87294,17.184 6.32061,0.2989 12.63157,0.5872 18.93298,0.8686 3.35376,-4.9222 6.69762,-9.8527 10.03188,-14.7922 0.0584,-4.5637 0.10837,-9.1361 0.14908,-13.7175 -2.68789,0.211 -5.38537,0.4139 -8.09259,0.6072 z" /><path
       style="fill:url(#linearGradient38408);fill-opacity:1;stroke:none;stroke-width:2.32979;stroke-linecap:round;stroke-linejoin:round;stroke-dasharray:none;stroke-opacity:1"
       id="path37674"
       sodipodi:type="arc"
       sodipodi:cx="-2310.5969"
       sodipodi:cy="-723.90375"
       sodipodi:rx="9.4174528"
       sodipodi:ry="15.956836"
       sodipodi:start="0"
       sodipodi:end="6.1694983"
       sodipodi:open="true"
       sodipodi:arc-type="arc"
       d="m -2301.1795,-723.90375 a 9.4174528,15.956836 0 0 1 -9.1498,15.95039 9.4174528,15.956836 0 0 1 -9.6699,-15.04383 9.4174528,15.956836 0 0 1 8.6003,-16.80542 9.4174528,15.956836 0 0 1 10.1586,14.08868"
       transform="matrix(0.03913527,-0.99923392,0.99915123,0.04119239,0,0)" /><path
       style="fill:url(#linearGradient39169);fill-opacity:1;stroke:none;stroke-width:3.85032;stroke-linecap:round;stroke-linejoin:round;stroke-dasharray:none;stroke-opacity:1"
       id="path37674-3"
       sodipodi:type="arc"
       sodipodi:cx="-2352.509"
       sodipodi:cy="-581.6601"
       sodipodi:rx="11.86784"
       sodipodi:ry="34.582706"
       sodipodi:start="0"
       sodipodi:end="6.1694983"
       sodipodi:open="true"
       sodipodi:arc-type="arc"
       d="m -2340.6412,-581.6601 a 11.86784,34.582706 0 0 1 -11.5306,34.56874 11.86784,34.582706 0 0 1 -12.1859,-32.60399 11.86784,34.582706 0 0 1 10.838,-36.42182 11.86784,34.582706 0 0 1 12.8019,30.53393"
       transform="matrix(0.11466506,-0.99340421,0.99287091,0.11919461,0,0)" /><path
       style="fill:url(#linearGradient39205);fill-opacity:1;stroke:none;stroke-width:2.65893;stroke-linecap:round;stroke-linejoin:round;stroke-dasharray:none;stroke-opacity:1"
       id="path37674-3-3"
       sodipodi:type="arc"
       sodipodi:cx="-2421.8167"
       sodipodi:cy="-519.1803"
       sodipodi:rx="9.4129963"
       sodipodi:ry="20.793598"
       sodipodi:start="0"
       sodipodi:end="6.1694983"
       sodipodi:open="true"
       sodipodi:arc-type="arc"
       d="m -2412.4037,-519.1803 a 9.4129963,20.793598 0 0 1 -9.1455,20.7852 9.4129963,20.793598 0 0 1 -9.6652,-19.60385 9.4129963,20.793598 0 0 1 8.5961,-21.89941 9.4129963,20.793598 0 0 1 10.1539,18.35919"
       transform="matrix(0.15662921,-0.98765748,0.98671366,0.16246892,0,0)" /><path
       style="fill:url(#linearGradient39169-0);fill-opacity:1;stroke:none;stroke-width:2.32979;stroke-linecap:round;stroke-linejoin:round;stroke-dasharray:none;stroke-opacity:1"
       id="path37674-3-4"
       sodipodi:type="arc"
       sodipodi:cx="-2352.8633"
       sodipodi:cy="-728.91125"
       sodipodi:rx="9.4174528"
       sodipodi:ry="15.956836"
       sodipodi:start="0"
       sodipodi:end="6.1694983"
       sodipodi:open="true"
       sodipodi:arc-type="arc"
       d="m -2343.4458,-728.91125 a 9.4174528,15.956836 0 0 1 -9.1499,15.95039 9.4174528,15.956836 0 0 1 -9.6698,-15.04384 9.4174528,15.956836 0 0 1 8.6002,-16.80542 9.4174528,15.956836 0 0 1 10.1587,14.08869"
       transform="matrix(0.03913527,-0.99923392,0.99915123,0.04119239,0,0)" /><path
       style="fill:url(#linearGradient39263);fill-opacity:1;stroke:none;stroke-width:1.77569;stroke-linecap:round;stroke-linejoin:round;stroke-dasharray:none;stroke-opacity:1"
       id="path37674-3-4-4"
       sodipodi:type="arc"
       sodipodi:cx="-2321.3198"
       sodipodi:cy="-746.8385"
       sodipodi:rx="6.6136026"
       sodipodi:ry="13.198781"
       sodipodi:start="0"
       sodipodi:end="6.1694983"
       sodipodi:open="true"
       sodipodi:arc-type="arc"
       d="m -2314.7062,-746.8385 a 6.6136026,13.198781 0 0 1 -6.4257,13.19345 6.6136026,13.198781 0 0 1 -6.7908,-12.44359 6.6136026,13.198781 0 0 1 6.0396,-13.90069 6.6136026,13.198781 0 0 1 7.1342,11.65353"
       transform="matrix(0.03913527,-0.99923392,0.99915123,0.04119239,0,0)" /><path
       style="fill:url(#linearGradient41513);fill-opacity:1;stroke:none;stroke-width:1.77569;stroke-linecap:round;stroke-linejoin:round;stroke-dasharray:none;stroke-opacity:1"
       id="path37674-3-4-4-1"
       sodipodi:type="arc"
       sodipodi:cx="-2329.3269"
       sodipodi:cy="-691.11121"
       sodipodi:rx="6.6136026"
       sodipodi:ry="13.198781"
       sodipodi:start="0"
       sodipodi:end="6.1694983"
       sodipodi:open="true"
       sodipodi:arc-type="arc"
       d="m -2322.7133,-691.11121 a 6.6136026,13.198781 0 0 1 -6.4257,13.19345 6.6136026,13.198781 0 0 1 -6.7908,-12.44359 6.6136026,13.198781 0 0 1 6.0397,-13.90069 6.6136026,13.198781 0 0 1 7.1341,11.65353"
       transform="matrix(0.03913527,-0.99923392,0.99915123,0.04119239,0,0)" /><path
       style="fill:url(#linearGradient41555);fill-opacity:1;stroke:none;stroke-width:1.77569;stroke-linecap:round;stroke-linejoin:round;stroke-dasharray:none;stroke-opacity:1"
       id="path37674-3-4-4-1-7"
       sodipodi:type="arc"
       sodipodi:cx="-1343.3557"
       sodipodi:cy="1971.1582"
       sodipodi:rx="6.6136026"
       sodipodi:ry="13.198781"
       sodipodi:start="0"
       sodipodi:end="6.1694983"
       sodipodi:open="true"
       sodipodi:arc-type="arc"
       d="m -1336.7421,1971.1582 a 6.6136026,13.198781 0 0 1 -6.4257,13.1935 6.6136026,13.198781 0 0 1 -6.7908,-12.4436 6.6136026,13.198781 0 0 1 6.0397,-13.9007 6.6136026,13.198781 0 0 1 7.1341,11.6535"
       transform="matrix(0.98390809,-0.17867534,0.1766493,0.98427386,0,0)" /><path
       style="fill:url(#linearGradient41591);fill-opacity:1;stroke:none;stroke-width:1.40762;stroke-linecap:round;stroke-linejoin:round;stroke-dasharray:none;stroke-opacity:1"
       id="path37674-3-4-4-1-7-3"
       sodipodi:type="arc"
       sodipodi:cx="-494.92151"
       sodipodi:cy="2264.7346"
       sodipodi:rx="5.0723934"
       sodipodi:ry="10.814421"
       sodipodi:start="0"
       sodipodi:end="6.1694983"
       sodipodi:open="true"
       sodipodi:arc-type="arc"
       d="m -489.84912,2264.7346 a 5.0723934,10.814421 0 0 1 -4.92824,10.8101 5.0723934,10.814421 0 0 1 -5.20835,-10.1957 5.0723934,10.814421 0 0 1 4.63223,-11.3895 5.0723934,10.814421 0 0 1 5.47162,9.5483"
       transform="matrix(0.96902837,0.24694941,-0.21318534,0.97701178,0,0)" /><path
       style="fill:url(#linearGradient39299);fill-opacity:1;stroke:none;stroke-width:2.32981;stroke-linecap:round;stroke-linejoin:round;stroke-dasharray:none;stroke-opacity:1"
       id="path37674-3-4-4-9"
       sodipodi:type="arc"
       sodipodi:cx="-2374.321"
       sodipodi:cy="-596.29889"
       sodipodi:rx="9.414012"
       sodipodi:ry="15.962861"
       sodipodi:start="0"
       sodipodi:end="6.1694983"
       sodipodi:open="true"
       sodipodi:arc-type="arc"
       d="m -2364.907,-596.29889 a 9.414012,15.962861 0 0 1 -9.1465,15.95641 9.414012,15.962861 0 0 1 -9.6664,-15.04951 9.414012,15.962861 0 0 1 8.5971,-16.81177 9.414012,15.962861 0 0 1 10.155,14.09401"
       transform="matrix(0.13761077,-0.99048638,0.98974235,0.14286383,0,0)" /><path
       style="fill:url(#linearGradient41650);fill-opacity:1;stroke:none;stroke-width:1.40762;stroke-linecap:round;stroke-linejoin:round;stroke-dasharray:none;stroke-opacity:1"
       id="path37674-3-4-4-1-7-3-6"
       sodipodi:type="arc"
       sodipodi:cx="-1275.3291"
       sodipodi:cy="2055.6128"
       sodipodi:rx="5.0723934"
       sodipodi:ry="10.814421"
       sodipodi:start="0"
       sodipodi:end="6.1694983"
       sodipodi:open="true"
       sodipodi:arc-type="arc"
       d="m -1270.2567,2055.6128 a 5.0723934,10.814421 0 0 1 -4.9283,10.81 5.0723934,10.814421 0 0 1 -5.2083,-10.1956 5.0723934,10.814421 0 0 1 4.6322,-11.3895 5.0723934,10.814421 0 0 1 5.4716,9.5483"
       transform="matrix(0.99483334,-0.10152153,0.13597103,0.99071281,0,0)" /><path
       style="fill:url(#linearGradient41686);fill-opacity:1;stroke:none;stroke-width:1.21652;stroke-linecap:round;stroke-linejoin:round;stroke-dasharray:none;stroke-opacity:1"
       id="path37674-3-4-4-1-7-3-6-9"
       sodipodi:type="arc"
       sodipodi:cx="-1541.3503"
       sodipodi:cy="1906.2988"
       sodipodi:rx="4.2413054"
       sodipodi:ry="9.6601181"
       sodipodi:start="0"
       sodipodi:end="6.1694983"
       sodipodi:open="true"
       sodipodi:arc-type="arc"
       d="m -1537.109,1906.2988 a 4.2413054,9.6601181 0 0 1 -4.1208,9.6562 4.2413054,9.6601181 0 0 1 -4.355,-9.1074 4.2413054,9.6601181 0 0 1 3.8733,-10.1738 4.2413054,9.6601181 0 0 1 4.5751,8.5292"
       transform="matrix(0.96876731,-0.24797157,0.26901286,0.96313659,0,0)" /></g></svg>
