<?xml version="1.0" encoding="UTF-8" standalone="no"?>
<svg
   height="20"
   viewBox="0 -960 1200 400"
   width="60"
   version="1.1"
   id="svg19"
   sodipodi:docname="rainstick2.svg"
   inkscape:export-filename="rainstick2.svg"
   inkscape:export-xdpi="96"
   inkscape:export-ydpi="96"
   inkscape:version="1.2.2 (732a01da63, 2022-12-09)"
   xmlns:inkscape="http://www.inkscape.org/namespaces/inkscape"
   xmlns:sodipodi="http://sodipodi.sourceforge.net/DTD/sodipodi-0.dtd"
   xmlns="http://www.w3.org/2000/svg"
   xmlns:svg="http://www.w3.org/2000/svg">
  <defs
     id="defs23" />
  <sodipodi:namedview
     id="namedview21"
     pagecolor="#ffffff"
     bordercolor="#000000"
     borderopacity="0.25"
     inkscape:showpageshadow="2"
     inkscape:pageopacity="0.0"
     inkscape:pagecheckerboard="0"
     inkscape:deskcolor="#d1d1d1"
     showgrid="false"
     inkscape:zoom="11.313709"
     inkscape:cx="27.267805"
     inkscape:cy="11.446291"
     inkscape:window-width="1513"
     inkscape:window-height="1120"
     inkscape:window-x="0"
     inkscape:window-y="0"
     inkscape:window-maximized="0"
     inkscape:current-layer="svg19" />
  <rect
     style="fill:#fdeed3;fill-opacity:1;stroke:none;stroke-width:39.9243;stroke-linejoin:round;stroke-dasharray:none;stroke-opacity:1"
     id="rect97535"
     width="33.397533"
     height="495.38474"
     x="-449.23056"
     y="-1128.4366"
     transform="matrix(0.44028147,0.8978598,-0.87757041,0.47944777,0,0)"
     clip-path="none" />
  <rect
     style="fill:#fdeed3;fill-opacity:1;stroke:none;stroke-width:43.719;stroke-linejoin:round;stroke-dasharray:none;stroke-opacity:1"
     id="rect97535-3"
     width="35.617607"
     height="557.00293"
     x="-892.4137"
     y="-149.52933"
     transform="matrix(-0.6349423,0.77255956,-0.88597253,-0.46373773,0,0)"
     clip-path="none" />
  <path
     style="fill:none;fill-opacity:1;stroke:none;stroke-width:18.7076;stroke-opacity:1"
     d="m 527.26465,-679.13338 c -3.74433,-14.80847 -13.60194,-21.02195 -21.49597,-33.07073 -1.76777,-2.69816 -2.28702,-6.03429 -3.30707,-9.09445 -2.34153,-7.02458 -5.27412,-15.7072 -5.78738,-23.14951 -0.49299,-7.14834 0,-14.33064 0,-21.49597 0,-6.16284 -1.28335,-20.14353 0.82676,-25.62982 0.88487,-2.30064 2.36855,-4.33485 3.30707,-6.61414 0.38265,-0.92928 1.94672,-8.09861 4.13385,-9.92121 1.24394,-1.03662 16.11779,-7.29354 16.53536,-7.44092 2.39596,-0.84564 4.9928,-0.9735 7.44092,-1.65353 2.51909,-0.69975 4.88252,-1.94171 7.44091,-2.48031 6.12349,-1.28916 25.3769,-2.94788 31.41718,-1.65354 1.80772,0.38736 3.18704,1.95866 4.96063,2.48031 2.95598,0.8694 6.19877,0.60057 9.09443,1.65353 4.94638,1.79868 8.72028,5.01351 13.2283,7.44091 5.70252,3.07058 6.73125,2.84696 11.57476,6.61415 5.12793,3.98839 8.04271,15.54439 10.74799,21.49597 0.50997,1.12201 1.41186,2.09853 1.65356,3.30707 0.32439,1.62143 -0.3242,3.33919 0,4.96061 0.51278,2.5637 1.96758,4.87722 2.48032,7.44091 0.3242,1.62143 -0.20504,3.31985 0,4.96062 0.0767,0.61147 0.55112,1.10234 0.82669,1.65353 0.27556,2.20471 0.68825,4.39659 0.82669,6.61413 0.35675,5.70738 0,11.63897 0,17.36214 0,3.58266 1.04314,7.32055 0,10.74799 -0.35938,1.1809 -9.51046,13.2318 -10.74798,14.88181 -5.69436,7.59249 -11.10564,13.54619 -18.18891,19.84245 -7.29478,6.48424 -8.21349,8.835 -16.53535,12.40151 -1.29158,0.55356 -2.83672,0.28623 -4.13385,0.82669 -5.2968,2.20702 -4.91279,3.70851 -9.92121,4.96061 -9.33023,2.33256 -24.25355,0.82688 -34.72427,0.82688"
     id="path18146" />
  <rect
     style="fill:#f9ad29;fill-opacity:1;stroke:#230543;stroke-width:23.9271;stroke-linecap:butt;stroke-linejoin:round;stroke-dasharray:none;stroke-opacity:1;paint-order:normal"
     id="rect11291"
     width="692.57007"
     height="168.75648"
     x="309.20938"
     y="-842.20056" />
  <rect
     style="fill:#fdeed3;fill-opacity:1;stroke:none;stroke-width:23.9271;stroke-linecap:butt;stroke-linejoin:round;stroke-dasharray:none;stroke-opacity:1;paint-order:normal"
     id="rect22127-7"
     width="59.527309"
     height="19.015669"
     x="779.0069"
     y="-744.86145" />
  <rect
     style="fill:#fdeed3;fill-opacity:1;stroke:#230543;stroke-width:25.8078;stroke-linecap:butt;stroke-linejoin:round;stroke-dasharray:none;stroke-opacity:1;paint-order:normal"
     id="rect17437"
     width="104.77235"
     height="218.86636"
     x="824.59344"
     y="-868.34967" />
  <rect
     style="fill:#fdeed3;fill-opacity:1;stroke:none;stroke-width:23.9271;stroke-linecap:butt;stroke-linejoin:round;stroke-dasharray:none;stroke-opacity:1;paint-order:normal"
     id="rect21291"
     width="105.82632"
     height="16.535395"
     x="366.45026"
     y="-784.95972" />
  <rect
     style="fill:#fdeed3;fill-opacity:1;stroke:none;stroke-width:23.9271;stroke-linecap:butt;stroke-linejoin:round;stroke-dasharray:none;stroke-opacity:1;paint-order:normal"
     id="rect21291-1"
     width="105.82632"
     height="16.535395"
     x="616.13428"
     y="-803.14862" />
  <rect
     style="fill:#fdeed3;fill-opacity:1;stroke:none;stroke-width:23.9271;stroke-linecap:butt;stroke-linejoin:round;stroke-dasharray:none;stroke-opacity:1;paint-order:normal"
     id="rect22127"
     width="59.527309"
     height="19.015669"
     x="499.55991"
     y="-727.91272" />
  <path
     sodipodi:type="star"
     style="fill:#fdeed3;fill-opacity:1;stroke:#fdeed3;stroke-width:1.039;stroke-linejoin:round;stroke-dasharray:none;stroke-opacity:1"
     id="path95261"
     inkscape:flatsided="true"
     sodipodi:sides="3"
     sodipodi:cx="13.361458"
     sodipodi:cy="7.8713541"
     sodipodi:r1="1.3129572"
     sodipodi:r2="0.93661189"
     sodipodi:arg1="0.71409069"
     sodipodi:arg2="1.7612882"
     inkscape:rounded="0"
     inkscape:randomized="0"
     d="M 14.353645,8.7312498 12.120673,8.3006657 13.610056,6.5821467 Z"
     inkscape:transform-center-x="2.2343112"
     inkscape:transform-center-y="8.0457719"
     transform="matrix(-23.878303,15.41127,-12.232799,-23.272889,834.96689,-937.96669)"
     clip-path="none" />
  <path
     sodipodi:type="star"
     style="fill:#f9ad29;fill-opacity:1;stroke:#f9ad29;stroke-width:1.039;stroke-linejoin:round;stroke-dasharray:none;stroke-opacity:1"
     id="path95261-8"
     inkscape:flatsided="true"
     sodipodi:sides="3"
     sodipodi:cx="13.361458"
     sodipodi:cy="7.8713541"
     sodipodi:r1="1.3129572"
     sodipodi:r2="0.93661189"
     sodipodi:arg1="0.71409069"
     sodipodi:arg2="1.7612882"
     inkscape:rounded="0"
     inkscape:randomized="0"
     d="M 14.353645,8.7312498 12.120673,8.3006657 13.610056,6.5821467 Z"
     inkscape:transform-center-x="1.3608695"
     inkscape:transform-center-y="-4.8016642"
     transform="matrix(11.295288,-0.02242428,-0.159101,10.577545,114.60878,-978.57076)"
     clip-path="none" />
  <path
     sodipodi:type="star"
     style="fill:#f9ad29;fill-opacity:1;stroke:#f9ad29;stroke-width:1.039;stroke-linejoin:round;stroke-dasharray:none;stroke-opacity:1"
     id="path95261-8-9"
     inkscape:flatsided="true"
     sodipodi:sides="3"
     sodipodi:cx="13.361458"
     sodipodi:cy="7.8713541"
     sodipodi:r1="1.3129572"
     sodipodi:r2="0.93661189"
     sodipodi:arg1="0.71409069"
     sodipodi:arg2="1.7612882"
     inkscape:rounded="0"
     inkscape:randomized="0"
     d="M 14.353645,8.7312498 12.120673,8.3006657 13.610056,6.5821467 Z"
     inkscape:transform-center-x="-2.5787048"
     inkscape:transform-center-y="1.4087273"
     transform="matrix(6.6145252,9.1559866,-8.679359,6.0480161,364.3816,-795.92127)"
     clip-path="none" />
  <path
     sodipodi:type="star"
     style="fill:#f9ad29;fill-opacity:1;stroke:#f9ad29;stroke-width:1.039;stroke-linejoin:round;stroke-dasharray:none;stroke-opacity:1"
     id="path95263"
     inkscape:flatsided="true"
     sodipodi:sides="3"
     sodipodi:cx="20.439062"
     sodipodi:cy="5.2916665"
     sodipodi:r1="2.928401"
     sodipodi:r2="1.4642005"
     sodipodi:arg1="-0.32175055"
     sodipodi:arg2="0.725447"
     inkscape:rounded="0"
     inkscape:randomized="0"
     d="M 23.217187,4.3656248 19.851975,8.1606143 18.248024,3.3487604 Z"
     inkscape:transform-center-x="-13.223002"
     inkscape:transform-center-y="-7.8023939"
     transform="matrix(-11.494532,14.130513,-15.685387,-11.538231,479.99134,-1010.2937)"
     clip-path="none" />
  <path
     sodipodi:type="star"
     style="fill:#fdeed3;fill-opacity:1;stroke:#fdeed3;stroke-width:0.635052;stroke-linejoin:round;stroke-dasharray:none;stroke-opacity:1"
     id="path95265"
     inkscape:flatsided="true"
     sodipodi:sides="3"
     sodipodi:cx="15.411979"
     sodipodi:cy="11.377083"
     sodipodi:r1="0.44371971"
     sodipodi:r2="0.22185986"
     sodipodi:arg1="-0.46364761"
     sodipodi:arg2="0.58354994"
     inkscape:rounded="0"
     inkscape:randomized="0"
     d="m 15.808854,11.178645 -0.423461,0.64136 -0.343704,-0.687407 z"
     inkscape:transform-center-x="-4.3620064"
     inkscape:transform-center-y="-5.3870133"
     transform="matrix(29.227028,25.657615,-27.359376,31.165532,95.866998,-1438.754)"
     clip-path="none" />
</svg>
