<?xml version="1.0" encoding="UTF-8" standalone="no"?>
<svg
   height="25"
   viewBox="0 -960 320 500"
   width="16"
   version="1.1"
   id="svg19"
   sodipodi:docname="sensor.svg"
   inkscape:export-filename="..\..\..\mainroot\project files\code\NSF code\refactored\media\sensor.svg"
   inkscape:export-xdpi="96"
   inkscape:export-ydpi="96"
   inkscape:version="1.2.2 (732a01da63, 2022-12-09)"
   xmlns:inkscape="http://www.inkscape.org/namespaces/inkscape"
   xmlns:sodipodi="http://sodipodi.sourceforge.net/DTD/sodipodi-0.dtd"
   xmlns="http://www.w3.org/2000/svg"
   xmlns:svg="http://www.w3.org/2000/svg">
  <defs
     id="defs23" />
  <sodipodi:namedview
     id="namedview21"
     pagecolor="#ffffff"
     bordercolor="#000000"
     borderopacity="0.25"
     inkscape:showpageshadow="2"
     inkscape:pageopacity="0.0"
     inkscape:pagecheckerboard="0"
     inkscape:deskcolor="#d1d1d1"
     showgrid="false"
     inkscape:zoom="32"
     inkscape:cx="8.296875"
     inkscape:cy="11.109375"
     inkscape:window-width="1293"
     inkscape:window-height="981"
     inkscape:window-x="-8"
     inkscape:window-y="0"
     inkscape:window-maximized="0"
     inkscape:current-layer="svg19" />
  <path
     style="fill:#f9ad29;fill-opacity:1;stroke:#230543;stroke-width:14.4968;stroke-linejoin:round;stroke-dasharray:none;stroke-dashoffset:0;stroke-opacity:1"
     d="m 54.092977,-468.76242 c -50.4541828,-1.47409 -42.074252,-43.16584 -42.91783,-91.26186 -3.3367439,-190.2422 1.923175,-176.21766 0.275045,-318.54857 -0.608644,-52.56189 18.994677,-72.00047 58.853313,-72.05765 113.767135,-0.16318 4.511195,-0.16396 183.224115,-0.047 41.087,0.0269 56.03335,21.77622 56.24802,64.30483 0.6572,130.19128 -3.00234,211.76251 -2.89722,350.81286 0.0285,37.65181 -6.06794,66.7192 -46.68877,67.39968 -87.59026,3.08537 -139.75486,2.55877 -206.096673,-0.6023 z"
     id="path68084"
     sodipodi:nodetypes="csssssscc" />
  <path
     style="fill:#230543;fill-opacity:1;stroke:#230543;stroke-width:13.9121;stroke-linejoin:round;stroke-dasharray:none;stroke-dashoffset:0;stroke-opacity:1"
     d="m 66.837126,-671.6577 185.171694,0.14115 0.85798,-230.05977 -185.196717,0.52813 z"
     id="path68410"
     sodipodi:nodetypes="ccccc" />
</svg>
