<?xml version="1.0" encoding="UTF-8" standalone="no"?>
<svg
   height="20"
   viewBox="0 -960 1200 400"
   width="60"
   version="1.1"
   id="svg19"
   sodipodi:docname="WJicon.svg"
   inkscape:export-filename="sonicicon.svg"
   inkscape:export-xdpi="96"
   inkscape:export-ydpi="96"
   inkscape:version="1.2.2 (732a01da63, 2022-12-09)"
   xmlns:inkscape="http://www.inkscape.org/namespaces/inkscape"
   xmlns:sodipodi="http://sodipodi.sourceforge.net/DTD/sodipodi-0.dtd"
   xmlns="http://www.w3.org/2000/svg"
   xmlns:svg="http://www.w3.org/2000/svg">
  <defs
     id="defs23" />
  <sodipodi:namedview
     id="namedview21"
     pagecolor="#ffffff"
     bordercolor="#000000"
     borderopacity="0.25"
     inkscape:showpageshadow="2"
     inkscape:pageopacity="0.0"
     inkscape:pagecheckerboard="0"
     inkscape:deskcolor="#d1d1d1"
     showgrid="false"
     inkscape:zoom="16"
     inkscape:cx="16.28125"
     inkscape:cy="8.0625"
     inkscape:window-width="1513"
     inkscape:window-height="1161"
     inkscape:window-x="0"
     inkscape:window-y="0"
     inkscape:window-maximized="0"
     inkscape:current-layer="svg19" />
  <rect
     style="fill:#f9ad29;fill-opacity:1;stroke:#f9ad29;stroke-width:4.67682;stroke-linejoin:round;stroke-dasharray:none;stroke-opacity:1"
     id="rect97535-5"
     width="4.4152117"
     height="51.420532"
     x="-388.86288"
     y="-1214.1791"
     transform="matrix(0.28375273,0.95889749,-0.8774674,0.47963628,0,0)"
     clip-path="none" />
  <g
     id="g96721-6-7"
     transform="matrix(8.676671,-3.3852148,2.9504116,9.5325362,642.67938,-914.17403)"
     style="fill:#f9ad29;fill-opacity:1;stroke:#f9ad29;stroke-opacity:1"
     clip-path="none">
    <path
       style="fill:#f9ad29;fill-opacity:1;stroke:#f9ad29;stroke-width:0.771873;stroke-linejoin:round;stroke-dasharray:none;stroke-opacity:1"
       id="path94400-6-4"
       sodipodi:type="arc"
       sodipodi:cx="26.822189"
       sodipodi:cy="15.732291"
       sodipodi:rx="1.5559835"
       sodipodi:ry="1.4665335"
       sodipodi:start="0"
       sodipodi:end="6.0688543"
       sodipodi:arc-type="slice"
       d="m 28.378173,15.732291 a 1.5559835,1.4665335 0 0 1 -1.47265,1.464429 1.5559835,1.4665335 0 0 1 -1.630391,-1.307568 1.5559835,1.4665335 0 0 1 1.298011,-1.604487 1.5559835,1.4665335 0 0 1 1.769427,1.135704 l -1.520381,0.311922 z" />
    <rect
       style="fill:#f9ad29;fill-opacity:1;stroke:#f9ad29;stroke-width:0.757862;stroke-linejoin:round;stroke-dasharray:none;stroke-opacity:1"
       id="rect94402-8-6"
       width="0.2794134"
       height="7.3481517"
       x="28.105097"
       y="8.391881" />
  </g>
  <g
     id="g96721-6-7-4"
     transform="matrix(8.676671,-3.3852148,2.9504116,9.5325362,683.38105,-936.46841)"
     style="fill:#f9ad29;fill-opacity:1;stroke:#f9ad29;stroke-opacity:1"
     clip-path="none">
    <path
       style="fill:#f9ad29;fill-opacity:1;stroke:#f9ad29;stroke-width:0.771873;stroke-linejoin:round;stroke-dasharray:none;stroke-opacity:1"
       id="path94400-6-4-4"
       sodipodi:type="arc"
       sodipodi:cx="26.822189"
       sodipodi:cy="15.732291"
       sodipodi:rx="1.5559835"
       sodipodi:ry="1.4665335"
       sodipodi:start="0"
       sodipodi:end="6.0688543"
       sodipodi:arc-type="slice"
       d="m 28.378173,15.732291 a 1.5559835,1.4665335 0 0 1 -1.47265,1.464429 1.5559835,1.4665335 0 0 1 -1.630391,-1.307568 1.5559835,1.4665335 0 0 1 1.298011,-1.604487 1.5559835,1.4665335 0 0 1 1.769427,1.135704 l -1.520381,0.311922 z" />
    <rect
       style="fill:#f9ad29;fill-opacity:1;stroke:#f9ad29;stroke-width:0.757862;stroke-linejoin:round;stroke-dasharray:none;stroke-opacity:1"
       id="rect94402-8-6-8"
       width="0.2794134"
       height="7.3481517"
       x="28.105097"
       y="8.391881" />
  </g>
  <g
     id="g96733"
     transform="matrix(19.360622,13.305622,-11.332972,19.268562,189.36395,-1717.4946)"
     style="fill:#f9ad29;fill-opacity:1;stroke:#f9ad29;stroke-opacity:1"
     clip-path="none">
    <path
       style="fill:#f9ad29;fill-opacity:1;stroke:#f9ad29;stroke-width:0.748624;stroke-linejoin:round;stroke-dasharray:none;stroke-opacity:1"
       id="path94400-8-60"
       sodipodi:type="arc"
       sodipodi:cx="42.91901"
       sodipodi:cy="24.857306"
       sodipodi:rx="1.5909058"
       sodipodi:ry="1.3492374"
       sodipodi:start="0"
       sodipodi:end="6.0688543"
       sodipodi:arc-type="slice"
       d="m 44.509916,24.857306 a 1.5909058,1.3492374 0 0 1 -1.505702,1.347301 1.5909058,1.3492374 0 0 1 -1.666983,-1.202986 1.5909058,1.3492374 0 0 1 1.327144,-1.476158 1.5909058,1.3492374 0 0 1 1.809139,1.044868 l -1.554504,0.286975 z" />
    <rect
       style="fill:#f9ad29;fill-opacity:1;stroke:#f9ad29;stroke-width:0.735035;stroke-linejoin:round;stroke-dasharray:none;stroke-opacity:1"
       id="rect94402-3-0"
       width="0.2856845"
       height="6.7604327"
       x="44.230709"
       y="18.103994" />
    <path
       style="fill:#f9ad29;fill-opacity:1;stroke:#f9ad29;stroke-width:0.748624;stroke-linejoin:round;stroke-dasharray:none;stroke-opacity:1"
       d="m 44.578211,18.111141 c 0,0 1.315358,1.961647 3.52272,1.973885 -0.836151,0.358324 -2.382992,0.176976 -3.52272,0.349803 z"
       id="path94533"
       sodipodi:nodetypes="cccc" />
  </g>
  <path
     sodipodi:type="star"
     style="fill:#f9ad29;fill-opacity:1;stroke:#f9ad29;stroke-width:1.039;stroke-linejoin:round;stroke-dasharray:none;stroke-opacity:1"
     id="path95261-8"
     inkscape:flatsided="true"
     sodipodi:sides="3"
     sodipodi:cx="13.361458"
     sodipodi:cy="7.8713541"
     sodipodi:r1="1.3129572"
     sodipodi:r2="0.93661189"
     sodipodi:arg1="0.71409069"
     sodipodi:arg2="1.7612882"
     inkscape:rounded="0"
     inkscape:randomized="0"
     d="M 14.353645,8.7312498 12.120673,8.3006657 13.610056,6.5821467 Z"
     inkscape:transform-center-x="1.3608695"
     inkscape:transform-center-y="-4.8016642"
     transform="matrix(11.295288,-0.02242428,-0.159101,10.577545,445.79456,-953.44215)"
     clip-path="none" />
  <path
     sodipodi:type="star"
     style="fill:#f9ad29;fill-opacity:1;stroke:#f9ad29;stroke-width:1.039;stroke-linejoin:round;stroke-dasharray:none;stroke-opacity:1"
     id="path95263"
     inkscape:flatsided="true"
     sodipodi:sides="3"
     sodipodi:cx="20.439062"
     sodipodi:cy="5.2916665"
     sodipodi:r1="2.928401"
     sodipodi:r2="1.4642005"
     sodipodi:arg1="-0.32175055"
     sodipodi:arg2="0.725447"
     inkscape:rounded="0"
     inkscape:randomized="0"
     d="M 23.217187,4.3656248 19.851975,8.1606143 18.248024,3.3487604 Z"
     inkscape:transform-center-x="4.8612969"
     inkscape:transform-center-y="-2.937484"
     transform="matrix(-3.9062922,17.791474,-19.199688,-3.2456284,572.04563,-1243.2406)"
     clip-path="none" />
  <path
     sodipodi:type="star"
     style="fill:#f9ad29;fill-opacity:1;stroke:#f9ad29;stroke-width:0.635052;stroke-linejoin:round;stroke-dasharray:none;stroke-opacity:1"
     id="path95265"
     inkscape:flatsided="true"
     sodipodi:sides="3"
     sodipodi:cx="15.411979"
     sodipodi:cy="11.377083"
     sodipodi:r1="0.44371971"
     sodipodi:r2="0.22185986"
     sodipodi:arg1="-0.46364761"
     sodipodi:arg2="0.58354994"
     inkscape:rounded="0"
     inkscape:randomized="0"
     d="m 15.808854,11.178645 -0.423461,0.64136 -0.343704,-0.687407 z"
     inkscape:transform-center-x="-4.3620064"
     inkscape:transform-center-y="-5.3870133"
     transform="matrix(29.227028,25.657615,-27.359376,31.165532,380.42327,-1649.3279)"
     clip-path="none" />
  <path
     sodipodi:type="spiral"
     style="fill:none;fill-rule:evenodd;stroke:#230543;stroke-width:1.518;stroke-dasharray:36.432, 36.432;stroke-dashoffset:0;stroke-opacity:1"
     id="path14440"
     sodipodi:cx="34.25"
     sodipodi:cy="8.1875"
     sodipodi:expansion="1"
     sodipodi:revolution="3.5797405"
     sodipodi:radius="10.147875"
     sodipodi:argument="-18.553051"
     sodipodi:t0="0.071375385"
     d="M 34.014542,8.8724688 C 33.348807,9.0255353 32.879577,8.3061021 32.894821,7.7216573 32.92191,6.6831399 33.987777,6.043165 34.946227,6.1621115 c 1.402603,0.1740671 2.232834,1.6247211 1.999371,2.9520005 -0.31068,1.76627 -2.158105,2.791521 -3.852595,2.439196 C 30.962808,11.110389 29.7406,8.8610992 30.213982,6.8001187 30.78691,4.3057416 33.440689,2.8855693 35.867766,3.4812722 c 2.858754,0.7016542 4.477488,3.7614509 3.758672,6.5543788 -0.829575,3.223274 -4.296358,5.040955 -7.454973,4.198496 -3.587901,-0.956956 -5.604794,-4.8313805 -4.638322,-8.3555669 1.083961,-3.9526065 5.366488,-6.16890273 9.256162,-5.07814719 4.317373,1.21069259 6.733214,5.90166069 5.517972,10.15675609 -1.337218,4.682188 -6.436883,7.297682 -11.057351,5.957798 -5.04704,-1.463585 -7.862271,-6.9721444 -6.397623,-11.9579456 0.441069,-1.501438 1.239678,-2.8902778 2.309641,-4.03169177"
     transform="matrix(10.367081,14.744037,-14.744037,10.367081,62.350245,-1353.3746)" />
  <path
     sodipodi:type="spiral"
     style="fill:none;fill-rule:evenodd;stroke:#230543;stroke-width:1.63556;stroke-dasharray:39.2534, 1.63556;stroke-dashoffset:0;stroke-opacity:1"
     id="path14442"
     sodipodi:cx="23.3125"
     sodipodi:cy="2.4375"
     sodipodi:expansion="1"
     sodipodi:revolution="2.3435626"
     sodipodi:radius="7.2847414"
     sodipodi:argument="-22.172199"
     sodipodi:t0="0.42227376"
     d="m 20.329134,3.1873374 c -0.765602,-1.7824395 0.30234,-3.80341162 2.044104,-4.4868645 2.196051,-0.8617109 4.638274,0.45743078 5.42995,2.6083405 0.960104,2.6085148 -0.612116,5.4745795 -3.172577,6.3730353 -3.020368,1.0598355 -6.311784,-0.7665452 -7.31612,-3.7368128 -1.160415,-3.43186026 0.920803,-7.1495876 4.301048,-8.2592062 1.482604,-0.4866878 3.109413,-0.4568979 4.57947,0.061483"
     transform="matrix(-9.1932235,14.271188,14.122554,10.946581,742.06127,-1062.6357)" />
  <path
     sodipodi:type="star"
     style="fill:#f9ad29;fill-opacity:1;stroke:#230543;stroke-width:3;stroke-linecap:round;stroke-linejoin:round;stroke-dasharray:none;stroke-dashoffset:0;stroke-opacity:1"
     id="path14498"
     inkscape:flatsided="false"
     sodipodi:sides="6"
     sodipodi:cx="41.1875"
     sodipodi:cy="4.375"
     sodipodi:r1="5.3125"
     sodipodi:r2="2.606437"
     sodipodi:arg1="0.15354378"
     sodipodi:arg2="0.67714256"
     inkscape:rounded="0"
     inkscape:randomized="0"
     d="M 46.4375,5.1875 43.218869,6.0081115 43.108854,9.3278834 40.788868,6.950773 37.858854,8.5153834 38.757499,5.3176615 35.9375,3.5625 39.156131,2.7418885 39.266146,-0.57788336 41.586132,1.799227 44.516146,0.23461662 43.617501,3.4323385 Z"
     transform="matrix(12.786608,0,0,12.786608,233.91471,-913.30789)" />
  <path
     sodipodi:type="star"
     style="fill:#f9ad29;fill-opacity:1;stroke:#f9ad29;stroke-width:3;stroke-linecap:round;stroke-linejoin:round;stroke-dasharray:none;stroke-dashoffset:0;stroke-opacity:1"
     id="path14498-3"
     inkscape:flatsided="false"
     sodipodi:sides="6"
     sodipodi:cx="41.1875"
     sodipodi:cy="4.375"
     sodipodi:r1="5.3125"
     sodipodi:r2="2.606437"
     sodipodi:arg1="0.15354378"
     sodipodi:arg2="0.67714256"
     inkscape:rounded="0"
     inkscape:randomized="0"
     d="M 46.4375,5.1875 43.218869,6.0081115 43.108854,9.3278834 40.788868,6.950773 37.858854,8.5153834 38.757499,5.3176615 35.9375,3.5625 39.156131,2.7418885 39.266146,-0.57788336 41.586132,1.799227 44.516146,0.23461662 43.617501,3.4323385 Z"
     transform="matrix(8.5242612,0,0,8.5242612,408.19911,-897.52943)" />
  <path
     sodipodi:type="star"
     style="fill:#f9ad29;fill-opacity:1;stroke:#230543;stroke-width:3;stroke-linecap:round;stroke-linejoin:round;stroke-dasharray:none;stroke-dashoffset:0;stroke-opacity:1"
     id="path14498-6"
     inkscape:flatsided="false"
     sodipodi:sides="6"
     sodipodi:cx="41.1875"
     sodipodi:cy="4.375"
     sodipodi:r1="5.3125"
     sodipodi:r2="2.606437"
     sodipodi:arg1="0.15354378"
     sodipodi:arg2="0.67714256"
     inkscape:rounded="0"
     inkscape:randomized="0"
     d="M 46.4375,5.1875 43.218869,6.0081115 43.108854,9.3278834 40.788868,6.950773 37.858854,8.5153834 38.757499,5.3176615 35.9375,3.5625 39.156131,2.7418885 39.266146,-0.57788336 41.586132,1.799227 44.516146,0.23461662 43.617501,3.4323385 Z"
     transform="matrix(5.0197811,20.91166,-20.91166,5.0197811,938.1887,-1625.7242)" />
  <path
     sodipodi:type="star"
     style="fill:#f9ad29;fill-opacity:1;stroke:#f9ad29;stroke-width:3;stroke-linecap:round;stroke-linejoin:round;stroke-dasharray:none;stroke-dashoffset:0;stroke-opacity:1"
     id="path14498-3-2"
     inkscape:flatsided="false"
     sodipodi:sides="6"
     sodipodi:cx="41.1875"
     sodipodi:cy="4.375"
     sodipodi:r1="5.3125"
     sodipodi:r2="2.606437"
     sodipodi:arg1="0.15354378"
     sodipodi:arg2="0.67714256"
     inkscape:rounded="0"
     inkscape:randomized="0"
     d="M 46.4375,5.1875 43.218869,6.0081115 43.108854,9.3278834 40.788868,6.950773 37.858854,8.5153834 38.757499,5.3176615 35.9375,3.5625 39.156131,2.7418885 39.266146,-0.57788336 41.586132,1.799227 44.516146,0.23461662 43.617501,3.4323385 Z"
     transform="matrix(3.3464641,13.940871,-13.940871,3.3464641,976.57243,-1336.7838)" />
</svg>
