<?xml version="1.0" encoding="UTF-8" standalone="no"?>
<svg
   height="20"
   viewBox="0 -960 820 400"
   width="41"
   version="1.1"
   id="svg19"
   sodipodi:docname="sonicicon.svg"
   inkscape:export-filename="sonicicon.svg"
   inkscape:export-xdpi="96"
   inkscape:export-ydpi="96"
   inkscape:version="1.2.2 (b0a8486, 2022-12-01)"
   xmlns:inkscape="http://www.inkscape.org/namespaces/inkscape"
   xmlns:sodipodi="http://sodipodi.sourceforge.net/DTD/sodipodi-0.dtd"
   xmlns="http://www.w3.org/2000/svg"
   xmlns:svg="http://www.w3.org/2000/svg">
  <defs
     id="defs23" />
  <sodipodi:namedview
     id="namedview21"
     pagecolor="#ffffff"
     bordercolor="#000000"
     borderopacity="0.25"
     inkscape:showpageshadow="2"
     inkscape:pageopacity="0.0"
     inkscape:pagecheckerboard="0"
     inkscape:deskcolor="#d1d1d1"
     showgrid="false"
     inkscape:zoom="15.572177"
     inkscape:cx="16.407469"
     inkscape:cy="6.6464697"
     inkscape:window-width="1470"
     inkscape:window-height="835"
     inkscape:window-x="0"
     inkscape:window-y="37"
     inkscape:window-maximized="0"
     inkscape:current-layer="svg19" />
  <path
     sodipodi:type="star"
     style="fill:#705c84;fill-opacity:1;stroke:#705c84;stroke-width:0.635052;stroke-linejoin:round;stroke-dasharray:none;stroke-opacity:1"
     id="path95265-6"
     inkscape:flatsided="true"
     sodipodi:sides="3"
     sodipodi:cx="15.411979"
     sodipodi:cy="11.377083"
     sodipodi:r1="0.44371971"
     sodipodi:r2="0.22185986"
     sodipodi:arg1="-0.46364761"
     sodipodi:arg2="0.58354994"
     inkscape:rounded="0"
     inkscape:randomized="0"
     d="m 15.808854,11.178645 -0.423461,0.64136 -0.343704,-0.687407 z"
     inkscape:transform-center-x="11.751507"
     inkscape:transform-center-y="-3.9163673"
     transform="matrix(59.210125,-32.743178,36.828969,70.525937,-964.5676,-1206.3586)"
     clip-path="none" />
  <path
     sodipodi:type="star"
     style="fill:#705c84;fill-opacity:1;stroke:#705c84;stroke-width:3;stroke-linecap:round;stroke-linejoin:round;stroke-dasharray:none;stroke-dashoffset:0;stroke-opacity:1"
     id="path14498-6"
     inkscape:flatsided="false"
     sodipodi:sides="6"
     sodipodi:cx="41.1875"
     sodipodi:cy="4.375"
     sodipodi:r1="5.3125"
     sodipodi:r2="2.606437"
     sodipodi:arg1="0.15354378"
     sodipodi:arg2="0.67714256"
     inkscape:rounded="0"
     inkscape:randomized="0"
     d="M 46.4375,5.1875 43.218869,6.0081115 43.108854,9.3278834 40.788868,6.950773 37.858854,8.5153834 38.757499,5.3176615 35.9375,3.5625 39.156131,2.7418885 39.266146,-0.57788336 41.586132,1.799227 44.516146,0.23461662 43.617501,3.4323385 Z"
     transform="matrix(21.790343,21.385906,-22.666946,22.594335,-274.95251,-1740.6092)"
     inkscape:transform-center-x="-7.6979715"
     inkscape:transform-center-y="6.0069812" />
  <path
     style="fill:#705c84;fill-opacity:1;stroke:#705c84;stroke-width:26.7381;stroke-linecap:round;stroke-linejoin:round;stroke-opacity:1"
     id="path168733-2"
     sodipodi:type="arc"
     sodipodi:cx="213.201"
     sodipodi:cy="-764.7796"
     sodipodi:rx="184.45132"
     sodipodi:ry="180.66988"
     sodipodi:start="0"
     sodipodi:end="6.248534"
     sodipodi:arc-type="slice"
     d="M 397.65233,-764.7796 A 184.45132,180.66988 0 0 1 214.79885,-584.11651 184.45132,180.66988 0 0 1 28.777363,-761.64953 184.45132,180.66988 0 0 1 208.40793,-945.38847 184.45132,180.66988 0 0 1 397.5416,-771.0388 l -184.3406,6.2592 z" />
  <path
     sodipodi:type="star"
     style="fill:#f9ad29;fill-opacity:1;stroke:#f9ad29;stroke-width:0.635052;stroke-linejoin:round;stroke-dasharray:none;stroke-opacity:1"
     id="path95265"
     inkscape:flatsided="true"
     sodipodi:sides="3"
     sodipodi:cx="15.411979"
     sodipodi:cy="11.377083"
     sodipodi:r1="0.44371971"
     sodipodi:r2="0.22185986"
     sodipodi:arg1="-0.46364761"
     sodipodi:arg2="0.58354994"
     inkscape:rounded="0"
     inkscape:randomized="0"
     d="m 15.808854,11.178645 -0.423461,0.64136 -0.343704,-0.687407 z"
     inkscape:transform-center-x="7.3314906"
     inkscape:transform-center-y="-2.2805837"
     transform="matrix(36.93982,-19.066993,22.976737,41.068633,-460.38635,-1086.4354)"
     clip-path="none" />
  <path
     sodipodi:type="star"
     style="fill:#705c84;fill-opacity:1;stroke:#705c84;stroke-width:0.635052;stroke-linejoin:round;stroke-dasharray:none;stroke-opacity:1"
     id="path95265-6-7"
     inkscape:flatsided="true"
     sodipodi:sides="3"
     sodipodi:cx="15.411979"
     sodipodi:cy="11.377083"
     sodipodi:r1="0.44371971"
     sodipodi:r2="0.22185986"
     sodipodi:arg1="-0.46364761"
     sodipodi:arg2="0.58354994"
     inkscape:rounded="0"
     inkscape:randomized="0"
     d="m 15.808854,11.178645 -0.423461,0.64136 -0.343704,-0.687407 z"
     inkscape:transform-center-x="-9.9319426"
     inkscape:transform-center-y="-8.6983828"
     transform="matrix(64.323888,41.543831,-46.577576,68.740826,217.5023,-2313.1268)"
     clip-path="none" />
  <path
     sodipodi:type="star"
     style="fill:#f9ad29;fill-opacity:1;stroke:#f9ad29;stroke-width:0.635052;stroke-linejoin:round;stroke-dasharray:none;stroke-opacity:1"
     id="path95265-3"
     inkscape:flatsided="true"
     sodipodi:sides="3"
     sodipodi:cx="15.411979"
     sodipodi:cy="11.377083"
     sodipodi:r1="0.44371971"
     sodipodi:r2="0.22185986"
     sodipodi:arg1="-0.46364761"
     sodipodi:arg2="0.58354994"
     inkscape:rounded="0"
     inkscape:randomized="0"
     d="m 15.808854,11.178645 -0.423461,0.64136 -0.343704,-0.687407 z"
     inkscape:transform-center-x="-5.5219905"
     inkscape:transform-center-y="-4.8793064"
     transform="matrix(34.809947,23.332861,-19.159308,43.324507,362.32783,-1745.0303)"
     clip-path="none" />
  <path
     sodipodi:type="star"
     style="fill:#f9ad29;fill-opacity:1;stroke:#f9ad29;stroke-width:3;stroke-linecap:round;stroke-linejoin:round;stroke-dasharray:none;stroke-dashoffset:0;stroke-opacity:1"
     id="path14498"
     inkscape:flatsided="false"
     sodipodi:sides="6"
     sodipodi:cx="41.1875"
     sodipodi:cy="4.375"
     sodipodi:r1="5.3125"
     sodipodi:r2="2.606437"
     sodipodi:arg1="0.15354378"
     sodipodi:arg2="0.67714256"
     inkscape:rounded="0"
     inkscape:randomized="0"
     d="M 46.4375,5.1875 43.218869,6.0081115 43.108854,9.3278834 40.788868,6.950773 37.858854,8.5153834 38.757499,5.3176615 35.9375,3.5625 39.156131,2.7418885 39.266146,-0.57788336 41.586132,1.799227 44.516146,0.23461662 43.617501,3.4323385 Z"
     transform="matrix(17.731872,18.828466,-18.445207,19.892384,-118.83294,-1610.424)"
     inkscape:transform-center-x="-6.2642126"
     inkscape:transform-center-y="5.2886731" />
  <path
     sodipodi:type="star"
     style="fill:#705c84;fill-opacity:1;stroke:#705c84;stroke-width:3;stroke-linecap:round;stroke-linejoin:round;stroke-dasharray:none;stroke-dashoffset:0;stroke-opacity:1"
     id="path14498-3"
     inkscape:flatsided="false"
     sodipodi:sides="6"
     sodipodi:cx="41.1875"
     sodipodi:cy="4.375"
     sodipodi:r1="5.3125"
     sodipodi:r2="2.606437"
     sodipodi:arg1="0.15354378"
     sodipodi:arg2="0.67714256"
     inkscape:rounded="0"
     inkscape:randomized="0"
     d="M 46.4375,5.1875 43.218869,6.0081115 43.108854,9.3278834 40.788868,6.950773 37.858854,8.5153834 38.757499,5.3176615 35.9375,3.5625 39.156131,2.7418885 39.266146,-0.57788336 41.586132,1.799227 44.516146,0.23461662 43.617501,3.4323385 Z"
     transform="matrix(8.7455092,9.2458357,-9.0973323,9.7682795,213.41462,-1177.7819)"
     inkscape:transform-center-x="-6.3926367"
     inkscape:transform-center-y="-0.77104634" />
  <path
     style="fill:#f9ad29;fill-opacity:1;stroke:#f9ad29;stroke-width:23.409;stroke-linecap:round;stroke-linejoin:round"
     id="path168733"
     sodipodi:type="arc"
     sodipodi:cx="213.50047"
     sodipodi:cy="-763.48431"
     sodipodi:rx="160.42908"
     sodipodi:ry="159.21635"
     sodipodi:start="0"
     sodipodi:end="6.248534"
     sodipodi:arc-type="slice"
     d="M 373.92955,-763.48431 A 160.42908,159.21635 0 0 1 214.89022,-604.27393 160.42908,159.21635 0 0 1 53.095474,-760.72592 160.42908,159.21635 0 0 1 209.33163,-922.6469 160.42908,159.21635 0 0 1 373.83325,-769.00026 l -160.33278,5.51595 z" />
  <path
     style="fill:#705c84;fill-opacity:1;stroke:#705c84;stroke-width:23.409;stroke-linecap:round;stroke-linejoin:round;stroke-opacity:1"
     id="path169269"
     sodipodi:type="arc"
     sodipodi:cx="213.50047"
     sodipodi:cy="-755.82446"
     sodipodi:rx="33.998215"
     sodipodi:ry="34.469517"
     sodipodi:start="0"
     sodipodi:end="6.248534"
     sodipodi:arc-type="slice"
     d="m 247.49869,-755.82446 a 33.998215,34.469517 0 0 1 -33.7037,34.46822 33.998215,34.469517 0 0 1 -34.28763,-33.87105 33.998215,34.469517 0 0 1 33.10965,-35.05505 33.998215,34.469517 0 0 1 34.86127,33.2637 l -33.97781,1.19418 z" />
  <path
     style="fill:#f9ad29;fill-opacity:1;stroke:#f9ad29;stroke-width:4.87721;stroke-linecap:round;stroke-linejoin:round;stroke-opacity:1"
     id="path169269-1"
     sodipodi:type="arc"
     sodipodi:cx="212.74586"
     sodipodi:cy="-756.13965"
     sodipodi:rx="6.9454226"
     sodipodi:ry="7.3244143"
     sodipodi:start="0"
     sodipodi:end="6.2778924"
     sodipodi:arc-type="slice"
     d="m 219.69129,-756.13965 a 6.9454226,7.3244143 0 0 1 -6.93623,7.32441 6.9454226,7.3244143 0 0 1 -6.95459,-7.30502 6.9454226,7.3244143 0 0 1 6.91782,-7.34374 6.9454226,7.3244143 0 0 1 6.9729,7.28558 l -6.94533,0.0388 z" />
  <path
     sodipodi:type="spiral"
     style="fill:none;fill-rule:evenodd;stroke:#705c84;stroke-width:1.7;stroke-linecap:round;stroke-dasharray:none;stroke-opacity:1"
     id="path170827"
     sodipodi:cx="14.219019"
     sodipodi:cy="26.696934"
     sodipodi:expansion="1"
     sodipodi:revolution="2.2621152"
     sodipodi:radius="21.7474"
     sodipodi:argument="-14.417543"
     sodipodi:t0="0.34608853"
     d="M 6.7129298,27.251205 C 5.3766687,22.50187 8.8957457,17.852635 13.487753,16.793934 19.552375,15.395719 25.341402,19.893142 26.518929,25.788673 27.992024,33.164029 22.503992,40.104701 15.304274,41.393754 6.62019,42.948571 -1.4783584,36.463523 -2.8747116,27.959184 -4.515292,17.967406 2.9705326,8.7072774 12.779774,7.2062928 22.989331,5.644053 32.752071,12.47667 35.514346,22.285759"
     transform="matrix(7.4295076,0,0,8.0962996,97.227042,-961.34642)" />
  <path
     sodipodi:type="spiral"
     style="fill:none;fill-rule:evenodd;stroke:#705c84;stroke-width:1.7;stroke-linecap:round;stroke-dasharray:none;stroke-opacity:1"
     id="path170827-0"
     sodipodi:cx="14.219019"
     sodipodi:cy="26.696934"
     sodipodi:expansion="1"
     sodipodi:revolution="2.2621152"
     sodipodi:radius="21.7474"
     sodipodi:argument="-14.417543"
     sodipodi:t0="0.75970793"
     d="M -0.45083296,34.297006 C -5.7366737,26.056692 -2.6163511,14.97496 5.5133505,9.893033 14.920972,4.01227 27.46676,7.5967414 33.156969,16.88567 c 1.029399,1.680433 1.823249,3.503352 2.357377,5.400089"
     transform="matrix(5.8138652,0,0,6.1254993,122.82797,-913.57668)" />
  <path
     style="fill:#f9ad29;fill-opacity:1;stroke:#f9ad29;stroke-width:12.6335;stroke-linecap:round;stroke-linejoin:round;stroke-dasharray:none;stroke-opacity:1"
     d="m 82.610424,-835.31697 157.205936,-86.7982 -35.88363,113.40027 -25.9821,10.55594 z"
     id="path172537"
     sodipodi:nodetypes="ccccc" />
  <path
     style="fill:#f9ad29;fill-opacity:1;stroke:#f9ad29;stroke-width:12.6335;stroke-linecap:round;stroke-linejoin:round;stroke-dasharray:none;stroke-opacity:1"
     d="m 232.41212,-904.64354 -152.801539,70.3661 40.107299,-52.80356 44.55641,-28.65254 z"
     id="path172537-5"
     sodipodi:nodetypes="ccccc" />
</svg>
