<?xml version="1.0" encoding="UTF-8" standalone="no"?>
<!-- Created with Inkscape (http://www.inkscape.org/) -->

<svg
   width="222"
   height="192"
   viewBox="0 0 58.737499 50.799999"
   version="1.1"
   id="svg1583"
   inkscape:export-filename="..\code\NSF code\refactored\media\trumpet2.svg"
   inkscape:export-xdpi="96"
   inkscape:export-ydpi="96"
   inkscape:version="1.2.2 (b0a8486, 2022-12-01)"
   sodipodi:docname="trumpet-neutral.svg"
   xmlns:inkscape="http://www.inkscape.org/namespaces/inkscape"
   xmlns:sodipodi="http://sodipodi.sourceforge.net/DTD/sodipodi-0.dtd"
   xmlns="http://www.w3.org/2000/svg"
   xmlns:svg="http://www.w3.org/2000/svg">
  <sodipodi:namedview
     id="namedview1585"
     pagecolor="#ffffff"
     bordercolor="#000000"
     borderopacity="0.25"
     inkscape:showpageshadow="2"
     inkscape:pageopacity="0.0"
     inkscape:pagecheckerboard="0"
     inkscape:deskcolor="#d1d1d1"
     inkscape:document-units="mm"
     showgrid="false"
     inkscape:zoom="1.3670264"
     inkscape:cx="46.451188"
     inkscape:cy="96.925708"
     inkscape:window-width="1470"
     inkscape:window-height="835"
     inkscape:window-x="0"
     inkscape:window-y="37"
     inkscape:window-maximized="0"
     inkscape:current-layer="layer1"
     showguides="true">
    <inkscape:grid
       type="xygrid"
       id="grid7707"
       originx="0"
       originy="0" />
  </sodipodi:namedview>
  <defs
     id="defs1580" />
  <g
     inkscape:label="Layer 1"
     inkscape:groupmode="layer"
     id="layer1">
    <path
       style="fill:#974795;fill-opacity:1;stroke:#974795;stroke-width:1.50526;stroke-linejoin:round;stroke-dasharray:none;stroke-opacity:1"
       d="m 21.722491,44.036827 c 2.250899,-0.299791 7.801174,0.862845 7.801174,0.862845 0,0 -1.361557,-2.712224 -2.259888,-3.914905 C 23.155116,35.484116 18.467396,30.336934 13.121275,26.11858 11.830516,25.100109 8.8680249,23.657577 8.8680249,23.657577 c 0,0 1.078413,6.049964 0.509649,9.00278 -0.567231,2.944848 -1.615961,5.115622 -3.797176,8.09629 -7.1365368,9.752207 -24.4318319,26.505763 -24.4318319,26.505763 0,0 19.02190722,-12.852302 28.951717,-18.499776 5.19381,-2.953924 7.78565,-4.214839 11.622108,-4.725807 z"
       id="path77547-4"
       sodipodi:nodetypes="scaacascss" />
    <path
       id="path77547-0-3"
       style="fill:#bf8fbe;fill-opacity:1;stroke:#bf8fbe;stroke-width:0.826453;stroke-linejoin:round;stroke-dasharray:none;stroke-opacity:1"
       d="m 10.146374,27.463716 c 0,0 0.662705,3.479097 0.415655,5.196223 -0.246386,1.712493 -0.7564581,2.98588 -1.8429421,4.747228 -1.386594,2.247864 -3.559612,5.135095 -5.6957023,7.825132 l 13.8482084,-12.0501 c -1.391773,-1.588029 -2.879526,-3.06444 -4.46876,-4.370172 -0.689307,-0.56634 -2.256459,-1.348311 -2.256459,-1.348311 z" />
  </g>
</svg>
