<?xml version="1.0" encoding="UTF-8" standalone="no"?>
<!-- Created with Inkscape (http://www.inkscape.org/) -->

<svg
   width="222"
   height="192"
   viewBox="0 0 58.737499 50.799999"
   version="1.1"
   id="svg1583"
   inkscape:export-filename="..\code\NSF code\refactored\media\trumpet2.svg"
   inkscape:export-xdpi="96"
   inkscape:export-ydpi="96"
   inkscape:version="1.2.2 (b0a8486, 2022-12-01)"
   sodipodi:docname="trumpet-33 copy.svg"
   xmlns:inkscape="http://www.inkscape.org/namespaces/inkscape"
   xmlns:sodipodi="http://sodipodi.sourceforge.net/DTD/sodipodi-0.dtd"
   xmlns="http://www.w3.org/2000/svg"
   xmlns:svg="http://www.w3.org/2000/svg">
  <sodipodi:namedview
     id="namedview1585"
     pagecolor="#ffffff"
     bordercolor="#000000"
     borderopacity="0.25"
     inkscape:showpageshadow="2"
     inkscape:pageopacity="0.0"
     inkscape:pagecheckerboard="0"
     inkscape:deskcolor="#d1d1d1"
     inkscape:document-units="mm"
     showgrid="false"
     inkscape:zoom="1.3670264"
     inkscape:cx="61.081483"
     inkscape:cy="98.388736"
     inkscape:window-width="1470"
     inkscape:window-height="835"
     inkscape:window-x="0"
     inkscape:window-y="37"
     inkscape:window-maximized="0"
     inkscape:current-layer="layer1"
     showguides="true">
    <inkscape:grid
       type="xygrid"
       id="grid7707"
       originx="0"
       originy="0" />
  </sodipodi:namedview>
  <defs
     id="defs1580" />
  <g
     inkscape:label="Layer 1"
     inkscape:groupmode="layer"
     id="layer1">
    <path
       style="fill:#bf8fbe;fill-opacity:1;stroke:#bf8fbe;stroke-width:1.55074;stroke-linejoin:round;stroke-dasharray:none;stroke-opacity:1"
       id="path70897"
       d="M 37.191369,38.023151 28.196698,43.366672 25.247133,31.219226 Z" />
    <path
       style="fill:#bf8fbe;fill-opacity:1;stroke:#bf8fbe;stroke-width:1.44108;stroke-linejoin:round;stroke-dasharray:none;stroke-opacity:1"
       id="path70899"
       d="M 23.266934,30.234632 10.422468,26.634909 15.19404,17.40818 Z" />
    <path
       style="fill:#bf8fbe;fill-opacity:1;stroke:#bf8fbe;stroke-width:1.55074;stroke-linejoin:round;stroke-dasharray:none;stroke-opacity:1"
       id="path70901"
       d="M 27.820253,43.079375 10.495614,26.899507 29.404366,24.046851 Z" />
    <path
       style="fill:#dac1da;fill-opacity:1;stroke:#dac1da;stroke-width:0.759547;stroke-linejoin:round;stroke-dasharray:none;stroke-opacity:1"
       id="path71772"
       d="m 45.227471,33.442161 -8.309534,-0.252309 7.889451,-4.388038 z" />
    <path
       style="fill:#dac1da;fill-opacity:1;stroke:#dac1da;stroke-width:1.34404;stroke-linejoin:round;stroke-dasharray:none;stroke-opacity:1"
       id="path71772-4"
       d="m 20.006021,3.2016454 7.937184,0.8778505 -6.25795,14.4777281 z" />
    <path
       style="fill:#974795;fill-opacity:1;stroke:#974795;stroke-width:1.56968;stroke-linejoin:round;stroke-dasharray:none;stroke-opacity:1"
       d="m 23.486347,43.008035 c 2.346967,-0.312655 8.134125,0.899869 8.134125,0.899869 0,0 -1.419668,-2.828604 -2.356339,-4.082892 -4.284017,-5.736683 -9.171807,-11.104729 -14.746098,-15.504091 -1.345848,-1.062173 -4.434777,-2.566604 -4.434777,-2.566604 0,0 1.124439,6.309566 0.531401,9.389087 -0.59144,3.07121 -1.6849297,5.335132 -3.9592379,8.443699 -7.44112107,10.170672 -25.4745721,27.643118 -25.4745721,27.643118 0,0 19.8337542,-13.40379 30.187364,-19.293596 5.415479,-3.080676 8.117938,-4.395697 12.118134,-4.92859 z"
       id="path77547-4"
       sodipodi:nodetypes="scaacascss" />
    <path
       id="path77547-0-3"
       style="fill:#bf8fbe;fill-opacity:1;stroke:#bf8fbe;stroke-width:0.861821;stroke-linejoin:round;stroke-dasharray:none;stroke-opacity:1"
       d="m 11.416167,25.723776 c 0,0 0.690989,3.628384 0.433395,5.419192 -0.256902,1.785975 -0.788744,3.114003 -1.9215984,4.95093 -1.4457732,2.344319 -3.7115346,5.355441 -5.9387923,8.160906 L 18.428415,31.687638 C 16.977242,30.031467 15.425992,28.491704 13.76893,27.129943 13.050204,26.539301 11.416167,25.723776 11.416167,25.723776 Z" />
    <path
       style="fill:#bf8fbe;fill-opacity:1;stroke:#bf8fbe;stroke-width:1.57414;stroke-linejoin:round;stroke-dasharray:none;stroke-opacity:1"
       id="path94400-6"
       sodipodi:type="arc"
       sodipodi:cx="84.01004"
       sodipodi:cy="2.2140348"
       sodipodi:rx="3.1870439"
       sodipodi:ry="2.9778514"
       sodipodi:start="0"
       sodipodi:end="6.0688543"
       sodipodi:arc-type="slice"
       d="M 87.197084,2.2140348 A 3.1870439,2.9778514 0 0 1 84.180729,5.1876123 3.1870439,2.9778514 0 0 1 80.84128,2.5325473 3.1870439,2.9778514 0 0 1 83.499932,-0.72542553 3.1870439,2.9778514 0 0 1 87.124161,1.5806643 L 84.01004,2.2140348 Z" />
    <rect
       style="fill:#bf8fbe;fill-opacity:1;stroke:#bf8fbe;stroke-width:1.54556;stroke-linejoin:round;stroke-dasharray:none;stroke-opacity:1"
       id="rect94402-8"
       width="0.5723086"
       height="14.920697"
       x="86.637756"
       y="-12.690944" />
    <path
       sodipodi:type="star"
       style="fill:#dac1da;fill-opacity:1;stroke:#dac1da;stroke-width:1.039;stroke-linejoin:round;stroke-dasharray:none;stroke-opacity:1"
       id="path95261"
       inkscape:flatsided="true"
       sodipodi:sides="3"
       sodipodi:cx="13.361458"
       sodipodi:cy="7.8713541"
       sodipodi:r1="1.3129572"
       sodipodi:r2="0.93661189"
       sodipodi:arg1="0.71409069"
       sodipodi:arg2="1.7612882"
       inkscape:rounded="0"
       inkscape:randomized="0"
       d="M 14.353645,8.7312498 12.120673,8.3006657 13.610056,6.5821467 Z"
       inkscape:transform-center-x="0.18801919"
       inkscape:transform-center-y="0.068213548"
       transform="rotate(-108.02749,26.214693,-10.931632)" />
    <path
       sodipodi:type="star"
       style="fill:#dac1da;fill-opacity:1;stroke:#dac1da;stroke-width:1.039;stroke-linejoin:round;stroke-dasharray:none;stroke-opacity:1"
       id="path95263"
       inkscape:flatsided="true"
       sodipodi:sides="3"
       sodipodi:cx="20.439062"
       sodipodi:cy="5.2916665"
       sodipodi:r1="2.928401"
       sodipodi:r2="1.4642005"
       sodipodi:arg1="-0.32175055"
       sodipodi:arg2="0.725447"
       inkscape:rounded="0"
       inkscape:randomized="0"
       d="M 23.217187,4.3656248 19.851975,8.1606143 18.248024,3.3487604 Z"
       inkscape:transform-center-x="-0.52028474"
       inkscape:transform-center-y="-0.2337414"
       transform="rotate(27.620789,-4.3268098,44.725329)" />
    <path
       sodipodi:type="star"
       style="fill:#dac1da;fill-opacity:1;stroke:#dac1da;stroke-width:1.039;stroke-linejoin:round;stroke-dasharray:none;stroke-opacity:1"
       id="path95265"
       inkscape:flatsided="true"
       sodipodi:sides="3"
       sodipodi:cx="15.411979"
       sodipodi:cy="11.377083"
       sodipodi:r1="0.44371971"
       sodipodi:r2="0.22185986"
       sodipodi:arg1="-0.46364761"
       sodipodi:arg2="0.58354994"
       inkscape:rounded="0"
       inkscape:randomized="0"
       d="m 15.808854,11.178645 -0.423461,0.64136 -0.343704,-0.687407 z"
       inkscape:transform-center-x="-1.0587906"
       inkscape:transform-center-y="-0.89309792"
       transform="matrix(0.74449711,1.2060555,-1.9660033,1.2136123,53.747366,-9.060776)" />
    <path
       style="fill:#bf8fbe;fill-opacity:1;stroke:#bf8fbe;stroke-width:1.28181;stroke-linejoin:round;stroke-dasharray:none;stroke-opacity:1"
       id="path94400-8"
       sodipodi:type="arc"
       sodipodi:cx="37.429615"
       sodipodi:cy="11.500265"
       sodipodi:rx="3.110765"
       sodipodi:ry="2.0229521"
       sodipodi:start="0"
       sodipodi:end="6.0688543"
       sodipodi:arc-type="slice"
       d="m 40.54038,11.500265 a 3.110765,2.0229521 0 0 1 -2.944161,2.020049 3.110765,2.0229521 0 0 1 -3.259523,-1.803673 3.110765,2.0229521 0 0 1 2.59502,-2.2132476 3.110765,2.0229521 0 0 1 3.537486,1.5666026 l -3.039587,0.430269 z" />
    <rect
       style="fill:#bf8fbe;fill-opacity:1;stroke:#bf8fbe;stroke-width:1.25854;stroke-linejoin:round;stroke-dasharray:none;stroke-opacity:1"
       id="rect94402-3"
       width="0.55861092"
       height="10.136119"
       x="39.994431"
       y="1.3748269" />
    <path
       style="fill:#bf8fbe;fill-opacity:1;stroke:#bf8fbe;stroke-width:1.28181;stroke-linejoin:round;stroke-dasharray:none;stroke-opacity:1"
       id="path94400-8-6"
       sodipodi:type="arc"
       sodipodi:cx="44.628815"
       sodipodi:cy="15.171548"
       sodipodi:rx="3.110765"
       sodipodi:ry="2.0229521"
       sodipodi:start="0"
       sodipodi:end="6.0688543"
       sodipodi:arc-type="slice"
       d="m 47.73958,15.171548 a 3.110765,2.0229521 0 0 1 -2.944162,2.020049 3.110765,2.0229521 0 0 1 -3.259523,-1.803673 3.110765,2.0229521 0 0 1 2.59502,-2.213248 3.110765,2.0229521 0 0 1 3.537487,1.566603 l -3.039587,0.430269 z" />
    <rect
       style="fill:#bf8fbe;fill-opacity:1;stroke:#bf8fbe;stroke-width:1.25854;stroke-linejoin:round;stroke-dasharray:none;stroke-opacity:1"
       id="rect94402-3-7"
       width="0.55861092"
       height="10.136119"
       x="47.19363"
       y="5.0461102" />
    <rect
       style="fill:#bf8fbe;fill-opacity:1;stroke:#bf8fbe;stroke-width:1.17647;stroke-linejoin:round;stroke-dasharray:none;stroke-opacity:1"
       id="rect94458"
       width="7.9767141"
       height="0.58510172"
       x="35.69241"
       y="-17.070875"
       transform="matrix(0.89340393,0.44925429,-0.51491505,0.85724121,0,0)" />
  </g>
</svg>
