<?xml version="1.0" encoding="UTF-8" standalone="no"?>
<svg
   id="visual"
   viewBox="0 0 1920 161.21466"
   width="1920"
   height="161.21466"
   version="1.1"
   sodipodi:docname="layered-waves-haikei.svg"
   xmlns:inkscape="http://www.inkscape.org/namespaces/inkscape"
   xmlns:sodipodi="http://sodipodi.sourceforge.net/DTD/sodipodi-0.dtd"
   xmlns="http://www.w3.org/2000/svg"
   xmlns:svg="http://www.w3.org/2000/svg">
  <defs
     id="defs71901" />
  <sodipodi:namedview
     id="namedview71899"
     pagecolor="#ffffff"
     bordercolor="#000000"
     borderopacity="0.25"
     inkscape:showpageshadow="2"
     inkscape:pageopacity="0.0"
     inkscape:pagecheckerboard="0"
     inkscape:deskcolor="#d1d1d1"
     showgrid="false" />
  <path
     d="m 0,85.214661 64,-19 c 64,-19 192,-57.0000004 320,-64.7000004 128,-7.6 256,15.0000004 384,32.2000004 128,17.2 256,28.8 384,35.2 128,6.3 256,7.3 384,3.5 128,-3.9 256,-12.5 320,-16.9 l 64,-4.3 V 161.21466 h -64 c -64,0 -192,0 -320,0 -128,0 -256,0 -384,0 -128,0 -256,0 -384,0 -128,0 -256,0 -384,0 -128,0 -256,0 -320,0 H 0 Z"
     fill="#f7f6f8"
     id="path71896"
     inkscape:export-filename="../Desktop/NSF code/app/media/wave-front.svg"
     inkscape:export-xdpi="96"
     inkscape:export-ydpi="96" />
</svg>
