<?xml version="1.0" encoding="UTF-8" standalone="no"?>
<svg
   id="visual"
   viewBox="0 0 1920 293.79395"
   width="1920"
   height="293.79395"
   version="1.1"
   sodipodi:docname="layered-waves-haikei.svg"
   xmlns:inkscape="http://www.inkscape.org/namespaces/inkscape"
   xmlns:sodipodi="http://sodipodi.sourceforge.net/DTD/sodipodi-0.dtd"
   xmlns="http://www.w3.org/2000/svg"
   xmlns:svg="http://www.w3.org/2000/svg">
  <defs
     id="defs71901" />
  <sodipodi:namedview
     id="namedview71899"
     pagecolor="#ffffff"
     bordercolor="#000000"
     borderopacity="0.25"
     inkscape:showpageshadow="2"
     inkscape:pageopacity="0.0"
     inkscape:pagecheckerboard="0"
     inkscape:deskcolor="#d1d1d1"
     showgrid="false" />
  <path
     d="m 0,77.793945 64,3.7 c 64,3.6 192,11 320,-6.2 128,-17.2 256,-58.8 384,-71.1999997 128,-12.3 256,4.7 384,29.8999997 128,25.1 256,58.5 384,59.6 128,1.2 256,-29.8 320,-45.3 l 64,-15.5 V 293.79395 h -64 c -64,0 -192,0 -320,0 -128,0 -256,0 -384,0 -128,0 -256,0 -384,0 -128,0 -256,0 -384,0 -128,0 -256,0 -320,0 H 0 Z"
     fill="#fafafb"
     id="path71894"
     inkscape:export-filename="../Desktop/NSF code/app/media/waves-back.svg"
     inkscape:export-xdpi="96"
     inkscape:export-ydpi="96" />
</svg>
