<?xml version="1.0" encoding="UTF-8" standalone="no"?>
<!-- Created with Inkscape (http://www.inkscape.org/) -->

<svg
   version="1.1"
   id="svg134"
   width="358.74283"
   height="330.73294"
   viewBox="0 0 358.74283 330.73293"
   sodipodi:docname="MW.svg"
   xml:space="preserve"
   inkscape:export-filename="WM.svg"
   inkscape:export-xdpi="96"
   inkscape:export-ydpi="96"
   inkscape:version="1.2.2 (b0a8486, 2022-12-01)"
   xmlns:inkscape="http://www.inkscape.org/namespaces/inkscape"
   xmlns:sodipodi="http://sodipodi.sourceforge.net/DTD/sodipodi-0.dtd"
   xmlns="http://www.w3.org/2000/svg"
   xmlns:svg="http://www.w3.org/2000/svg"><defs
     id="defs138" /><sodipodi:namedview
     id="namedview136"
     pagecolor="#ffffff"
     bordercolor="#000000"
     borderopacity="0.25"
     inkscape:showpageshadow="2"
     inkscape:pageopacity="0.0"
     inkscape:pagecheckerboard="0"
     inkscape:deskcolor="#d1d1d1"
     showgrid="false"
     inkscape:zoom="1.1284021"
     inkscape:cx="224.21085"
     inkscape:cy="136.91928"
     inkscape:window-width="1245"
     inkscape:window-height="835"
     inkscape:window-x="0"
     inkscape:window-y="37"
     inkscape:window-maximized="0"
     inkscape:current-layer="g140" /><g
     inkscape:groupmode="layer"
     inkscape:label="Image"
     id="g140"
     transform="translate(-747.59494,-589.95024)"><path
       id="rect4423-0-6"
       style="fill:#e4dfe6;fill-opacity:1;stroke:#e4dfe6;stroke-width:6.38193;stroke-linejoin:miter;stroke-opacity:1"
       d="m 859.63545,616.78376 -40.06448,36.64451 63.19402,57.43058 39.43099,-36.85831 z m 133.49215,2.13863 -106.73522,95.28592 40.51063,36.2063 104.99609,-96.03127 z m -178.24604,38.8399 -62.55865,57.2187 40.06448,36.64456 63.6195,-57.85417 z m 222.99804,0.89058 -41.8036,35.15388 64.2977,58.70941 40.0664,-36.64452 z"
       sodipodi:nodetypes="cccccccccccccccccccc" /><path
       id="rect4423-0-6-6"
       style="fill:#e4dfe6;fill-opacity:1;stroke:#e4dfe6;stroke-width:6.38193;stroke-linejoin:miter;stroke-opacity:1"
       d="m 994.29726,916.35885 40.06444,-36.64451 -63.19398,-57.43058 -39.43099,36.85831 z M 860.80512,914.22022 967.54033,818.9343 927.0297,782.728 822.03362,878.75927 Z m 178.24598,-38.8399 62.5587,-57.2187 -40.0645,-36.64456 -63.61948,57.85417 z m -221.20661,-0.56488 40.01223,-35.47958 -64.2977,-58.70941 -40.0664,36.64452 z"
       sodipodi:nodetypes="cccccccccccccccccccc" /><rect
       style="fill:#974795;fill-opacity:1;stroke:#974795;stroke-width:6.39463;stroke-linejoin:miter;stroke-opacity:1"
       id="rect4423"
       width="84.779778"
       height="54.297157"
       x="1097.3315"
       y="22.055023"
       transform="matrix(0.73790302,0.67490676,-0.73790302,0.67490676,0,0)" /><rect
       style="fill:#f9ad29;fill-opacity:1;stroke:#f9ad29;stroke-width:6.39463;stroke-linejoin:miter;stroke-opacity:1"
       id="rect4423-2"
       width="84.779778"
       height="54.297157"
       x="1249.1277"
       y="-67.703194"
       transform="matrix(0.73790302,0.67490676,-0.73790302,0.67490676,0,0)" /><rect
       style="fill:#81c170;fill-opacity:1;stroke:#81c170;stroke-width:6.39463;stroke-linejoin:miter;stroke-opacity:1"
       id="rect4423-2-6"
       width="84.779778"
       height="54.297157"
       x="-158.87051"
       y="-1333.874"
       transform="matrix(-0.73790302,0.67490676,-0.73790302,-0.67490676,0,0)" /><rect
       style="fill:#4e8dd3;fill-opacity:1;stroke:#4e8dd3;stroke-width:8.14932;stroke-linejoin:miter;stroke-opacity:1"
       id="rect4423-3"
       width="142.28845"
       height="52.542477"
       x="-66.826797"
       y="-1241.8693"
       transform="matrix(-0.73790302,0.67490676,-0.73790302,-0.67490676,0,0)" /><rect
       style="fill:#00a7aa;fill-opacity:1;stroke:#00a7aa;stroke-width:6.39463;stroke-linejoin:miter;stroke-opacity:1"
       id="rect4423-0"
       width="84.779778"
       height="54.297157"
       x="-1259.2012"
       y="177.69531"
       transform="matrix(-0.73790302,-0.67490676,0.73790302,-0.67490676,0,0)" /><rect
       style="fill:#f1806b;fill-opacity:1;stroke:#f1806b;stroke-width:6.39463;stroke-linejoin:miter;stroke-opacity:1"
       id="rect4423-2-5"
       width="84.779778"
       height="54.297157"
       x="-1107.7522"
       y="88.159531"
       transform="matrix(-0.73790302,-0.67490676,0.73790302,-0.67490676,0,0)" /><rect
       style="fill:#ed6c98;fill-opacity:1;stroke:#ed6c98;stroke-width:6.39463;stroke-linejoin:miter;stroke-opacity:1"
       id="rect4423-2-6-6"
       width="84.779778"
       height="54.297157"
       x="-3.0077715"
       y="1023.0055"
       transform="matrix(0.73790302,-0.67490676,0.73790302,0.67490676,0,0)" /><rect
       style="fill:#02b7d9;fill-opacity:1;stroke:#02b7d9;stroke-width:8.14932;stroke-linejoin:miter;stroke-opacity:1"
       id="rect4423-3-7"
       width="142.28845"
       height="52.542477"
       x="88.808037"
       y="1114.7826"
       transform="matrix(0.73790302,-0.67490676,0.73790302,0.67490676,0,0)" /></g></svg>
