<?xml version="1.0" encoding="UTF-8" standalone="no"?>
<svg
   height="20"
   viewBox="0 -960 400 400"
   width="20"
   version="1.1"
   id="svg19"
   sodipodi:docname="axis.svg"
   inkscape:export-filename="..\..\..\mainroot\project files\code\NSF code\refactored\media\zaxis.svg"
   inkscape:export-xdpi="96"
   inkscape:export-ydpi="96"
   inkscape:version="1.2.2 (732a01da63, 2022-12-09)"
   xmlns:inkscape="http://www.inkscape.org/namespaces/inkscape"
   xmlns:sodipodi="http://sodipodi.sourceforge.net/DTD/sodipodi-0.dtd"
   xmlns="http://www.w3.org/2000/svg"
   xmlns:svg="http://www.w3.org/2000/svg">
  <defs
     id="defs23" />
  <sodipodi:namedview
     id="namedview21"
     pagecolor="#ffffff"
     bordercolor="#000000"
     borderopacity="0.25"
     inkscape:showpageshadow="2"
     inkscape:pageopacity="0.0"
     inkscape:pagecheckerboard="0"
     inkscape:deskcolor="#d1d1d1"
     showgrid="false"
     inkscape:zoom="45.254834"
     inkscape:cx="9.7227182"
     inkscape:cy="11.700408"
     inkscape:window-width="1324"
     inkscape:window-height="981"
     inkscape:window-x="142"
     inkscape:window-y="0"
     inkscape:window-maximized="0"
     inkscape:current-layer="svg19" />
  <path
     style="fill:#e6e4df;fill-opacity:1;stroke:#e6e4df;stroke-width:6.68436;stroke-linejoin:round;stroke-dasharray:none;stroke-dashoffset:0;stroke-opacity:1"
     d="m 197.63123,-711.20069 -12.73655,-8.29273 6.72697,-189.01884 c 0,0 -11.02603,10.22778 -18.4122,12.71617 -3.01504,1.01578 -5.49871,1.44757 -6.5148,0.6494 -1.80265,-1.30423 -2.49754,-2.2224 0.16587,-6.81448 2.50876,-4.32545 8.67345,-11.79292 15.64065,-21.44308 3.4618,-4.13215 8.72622,-12.61712 12.28133,-16.95302 2.70717,-3.30174 5.38466,-9.03024 7.44969,-9.08689 1.95059,0.31922 2.88046,3.50511 6.40469,8.60212 4.96866,7.18606 8.61828,12.67808 12.02441,18.33375 4.61522,7.95818 8.02554,12.61552 11.71661,18.53062 3.09764,4.88271 4.8563,8.42498 4.09748,9.87798 -0.96654,1.85073 -8.91787,-1.24679 -11.57608,-2.35248 -3.00102,-1.24828 -8.44244,-8.10972 -16.12981,-12.44712 l 1.26675,190.89123 z"
     id="path22975-3"
     sodipodi:nodetypes="cccscscscsccssccc" />
  <path
     style="fill:#e6e4df;fill-opacity:1;stroke:#e6e4df;stroke-width:6.68436;stroke-linejoin:round;stroke-dasharray:none;stroke-dashoffset:0;stroke-opacity:1"
     d="m 198.38278,-711.23445 13.23066,-7.40245 153.76053,100.14834 c 0,0 -3.01434,-15.07022 -1.40715,-22.99441 0.65606,-3.23467 1.53308,-5.69775 2.70213,-6.22032 1.98106,-0.98274 3.09001,-1.15485 5.58149,3.54115 2.34681,4.42333 5.48594,13.71952 10.03991,24.8283 1.7119,5.18982 6.14474,14.17743 7.97955,19.55311 1.3972,4.09353 4.82622,9.36777 3.8457,11.26522 -1.23596,1.60681 -4.34673,0.86318 -10.33696,1.51691 -8.44537,0.9217 -14.82633,1.4924 -21.22214,1.76125 -8.91127,0.21754 -14.47937,0.98698 -21.23261,1.38465 -5.59983,0.37424 -9.41922,0.20348 -10.24932,-1.20644 -1.05731,-1.79587 5.474,-7.45198 7.71579,-9.30797 2.5309,-2.09534 10.94172,-3.60651 18.37224,-8.40671 l -159.29465,-93.84421 z"
     id="path22975-3-8"
     sodipodi:nodetypes="cccscscscsccssccc" />
  <path
     style="fill:#974795;fill-opacity:1;stroke:#bf8fbe;stroke-width:6.68436;stroke-linejoin:round;stroke-dasharray:none;stroke-dashoffset:0;stroke-opacity:1"
     d="m 196.80433,-711.69048 0.7756,15.64545 -152.362112,102.4495 c 0,0 14.347864,3.57959 20.531263,8.47517 2.524078,1.99836 4.285138,3.87637 4.239684,5.20273 0.0072,2.28906 -0.316381,3.40927 -5.449058,3.75906 -4.834639,0.3295 -14.230831,-0.67058 -25.801356,-1.10785 -5.228345,-0.59665 -14.908615,-0.24387 -20.350465,-0.80376 -4.143909,-0.42633 -10.1775106,0.56198 -11.4041647,-1.17257 -0.8658216,-1.85178 1.1050059,-4.47122 3.0922287,-10.40461 2.801693,-8.36522 5.027489,-14.63204 7.521253,-20.78416 3.610681,-8.50481 5.317655,-14.08904 7.852144,-20.63351 2.063047,-5.44568 3.83943,-8.97832 5.415437,-9.1608 2.007417,-0.23244 4.125516,8.34445 4.778499,11.25193 0.737193,3.28245 -1.538822,11.86637 -0.545995,20.92714 L 184.35446,-718.40805 Z"
     id="path22975-3-3"
     sodipodi:nodetypes="cccscscscsccssccc" />
  <path
     style="fill:#e6e4df;fill-opacity:1;stroke:#e6e4df;stroke-width:5.27753;stroke-linejoin:round;stroke-dasharray:none;stroke-dashoffset:0;stroke-opacity:1"
     d="m 220.89214,-864.32066 60.92856,-0.52957 -24.42258,39.85335 c 0,0 20.21639,-0.31985 24.48684,3.83521 0.073,7.42415 -0.21885,13.331 -0.30128,16.68754 -10.76711,-1.1616 -60.65862,-0.17734 -60.65862,-0.17734 l 25.33011,-42.36989 -25.5155,-1.92886 c 0,0 0.10581,-11.42482 0.15247,-15.37044 z"
     id="path25177"
     sodipodi:nodetypes="ccccccccc" />
  <path
     style="fill:#bf8fbe;fill-opacity:1;stroke:#974795;stroke-width:6.44;stroke-linejoin:round;stroke-dasharray:none;stroke-dashoffset:0;stroke-opacity:1"
     d="m 37.8125,-733.28125 16.5625,32.5 -17.34375,29.6875 H 61.25 l 9.21875,-14.53125 8.75,14.21875 22.96875,0.46875 -17.8125,-30.15625 15.625,-32.8125 -17.03125,0.3125 -13.75,20.78125 -13.28125,-19.84375 z"
     id="path25179"
     sodipodi:nodetypes="ccccccccccccc" />
  <path
     style="fill:#e6e4df;fill-opacity:1;stroke:#e6e4df;stroke-width:6.44;stroke-linejoin:round;stroke-dasharray:none;stroke-dashoffset:0;stroke-opacity:1"
     d="m 227.8125,-629.375 23.125,26.09375 -20.9375,30.625 20.625,4.6875 40.625,-61.5625 -20.46875,0.78125 -10.3125,12.03125 -11.25,-12.03125 z"
     id="path25181"
     sodipodi:nodetypes="ccccccccc" />
</svg>
