<?xml version="1.0" encoding="UTF-8" standalone="no"?>
<!DOCTYPE svg PUBLIC "-//W3C//DTD SVG 1.1//EN" "http://www.w3.org/Graphics/SVG/1.1/DTD/svg11.dtd">
<svg width="100%" height="100%" viewBox="0 0 556 556" version="1.1" xmlns="http://www.w3.org/2000/svg" xmlns:xlink="http://www.w3.org/1999/xlink" xml:space="preserve" xmlns:serif="http://www.serif.com/" style="fill-rule:evenodd;clip-rule:evenodd;stroke-linecap:round;stroke-linejoin:round;stroke-miterlimit:1.5;">
    <g transform="matrix(2.77778,0,0,2.77778,0,0)">
        <g transform="matrix(1.08943,0,0,1.10557,-7.85257,-11.7312)">
            <path d="M183.705,72.127C183.705,55.986 170.406,42.882 154.026,42.882L44.601,42.882C28.221,42.882 14.923,55.986 14.923,72.127L14.923,130.617C14.923,146.758 28.221,159.863 44.601,159.863L154.026,159.863C170.406,159.863 183.705,146.758 183.705,130.617L183.705,72.127Z" style="fill:rgb(238,59,37);fill-opacity:0;stroke:rgb(35,5,67);stroke-width:8.78px;"/>
        </g>
        <g transform="matrix(0.00204419,0.570392,-0.7903,0.00283231,182.82,44.8274)">
            <path d="M98.628,68.611L145.283,134.477L51.973,134.477L98.628,68.611Z" style="fill:rgb(35,5,67);stroke:rgb(35,5,67);stroke-width:18.08px;"/>
        </g>
    </g>
</svg>
